<?xml version="1.0" encoding="utf-8"?>
<!-- Generator: Adobe Illustrator 21.0.0, SVG Export Plug-In . SVG Version: 6.00 Build 0)  -->
<svg version="1.1" id="Camada_1" xmlns="http://www.w3.org/2000/svg" xmlns:xlink="http://www.w3.org/1999/xlink" x="0px" y="0px"
	 viewBox="0 0 177 60" style="enable-background:new 0 0 177 60;" xml:space="preserve">
<style type="text/css">
	.st0{fill:url(#SVGID_1_);}
	.st1{fill:#FFFFFF;}
	.st2{fill:url(#SVGID_2_);}
</style>
<linearGradient id="SVGID_1_" gradientUnits="userSpaceOnUse" x1="88.002" y1="15.87" x2="88.002" y2="72.9051">
	<stop  offset="0" style="stop-color:#0A72B8"/>
	<stop  offset="1" style="stop-color:#22B3E8"/>
</linearGradient>
<path class="st0" d="M8,0h160c4.4,0,8,3.6,8,8v44c0,4.4-3.6,8-8,8H8c-4.4,0-8-3.6-8-8V8C0,3.6,3.6,0,8,0z"/>
<g>
	<path class="st1" d="M58.8,17.8h2.9c2.6,0,4.5,1.8,4.5,4.2v0c0,2.4-1.8,4.2-4.5,4.2h-2.9V17.8z M61.7,25.3c2.1,0,3.5-1.4,3.5-3.3v0
		c0-1.9-1.4-3.3-3.5-3.3h-2v6.6H61.7z"/>
	<path class="st1" d="M67.6,23.1L67.6,23.1c0-1.8,1.4-3.3,3.2-3.3c1.9,0,3.2,1.5,3.2,3.2v0c0,1.8-1.4,3.2-3.3,3.2
		C69,26.3,67.6,24.8,67.6,23.1z M73.1,23.1L73.1,23.1c0-1.4-1-2.4-2.3-2.4c-1.3,0-2.3,1.1-2.3,2.4v0c0,1.3,1,2.4,2.3,2.4
		C72.2,25.5,73.1,24.4,73.1,23.1z"/>
	<path class="st1" d="M74.9,20h1l1.6,5l1.7-5H80l1.7,5l1.6-5h1l-2.2,6.2h-0.8l-1.7-4.9l-1.7,4.9h-0.8L74.9,20z"/>
	<path class="st1" d="M85.8,20h0.9V21c0.4-0.7,1.1-1.2,2.1-1.2c1.5,0,2.4,1,2.4,2.5v3.9h-0.9v-3.6c0-1.2-0.6-1.9-1.7-1.9
		c-1.1,0-1.9,0.8-1.9,1.9v3.5h-0.9V20z"/>
	<path class="st1" d="M93.3,17.4h0.9v8.8h-0.9V17.4z"/>
	<path class="st1" d="M95.9,23.1L95.9,23.1c0-1.8,1.4-3.3,3.2-3.3c1.9,0,3.2,1.5,3.2,3.2v0c0,1.8-1.4,3.2-3.3,3.2
		C97.3,26.3,95.9,24.8,95.9,23.1z M101.5,23.1L101.5,23.1c0-1.4-1-2.4-2.3-2.4c-1.3,0-2.3,1.1-2.3,2.4v0c0,1.3,1,2.4,2.3,2.4
		C100.5,25.5,101.5,24.4,101.5,23.1z"/>
	<path class="st1" d="M103.6,24.4L103.6,24.4c0-1.4,1.1-2.1,2.7-2.1c0.8,0,1.3,0.1,1.9,0.3v-0.2c0-1.1-0.7-1.7-1.8-1.7
		c-0.7,0-1.3,0.2-1.9,0.4l-0.3-0.8c0.7-0.3,1.3-0.5,2.3-0.5c0.9,0,1.6,0.2,2,0.7c0.4,0.4,0.6,1,0.6,1.8v3.8h-0.9v-0.9
		c-0.4,0.6-1.1,1.1-2.2,1.1C104.8,26.3,103.6,25.6,103.6,24.4z M108.2,23.9v-0.6c-0.5-0.1-1.1-0.3-1.8-0.3c-1.2,0-1.8,0.5-1.8,1.2v0
		c0,0.8,0.7,1.2,1.6,1.2C107.2,25.6,108.2,24.9,108.2,23.9z"/>
	<path class="st1" d="M110.7,23.1L110.7,23.1c0-2.1,1.5-3.3,3-3.3c1.2,0,1.9,0.6,2.4,1.3v-3.7h0.9v8.8H116v-1.2
		c-0.5,0.7-1.2,1.4-2.4,1.4C112.1,26.3,110.7,25.1,110.7,23.1z M116,23.1L116,23.1c0-1.5-1.1-2.4-2.2-2.4c-1.2,0-2.2,0.9-2.2,2.4v0
		c0,1.5,1,2.4,2.2,2.4C115,25.5,116,24.5,116,23.1z"/>
</g>
<g>
	<path class="st1" d="M62.8,30H65l4.8,11.3h-2.6l-1-2.5h-4.7l-1,2.5H58L62.8,30z M65.4,36.6L63.9,33l-1.5,3.6H65.4z"/>
	<path class="st1" d="M71.3,32.7h2.4V34c0.6-0.8,1.4-1.4,2.7-1.4c2,0,3.9,1.6,3.9,4.4v0c0,2.9-1.9,4.4-3.9,4.4
		c-1.3,0-2.1-0.6-2.7-1.3v3.7h-2.4V32.7z M77.9,37.1L77.9,37.1c0-1.5-1-2.4-2.1-2.4s-2.1,0.9-2.1,2.4v0c0,1.4,0.9,2.4,2.1,2.4
		S77.9,38.5,77.9,37.1z"/>
	<path class="st1" d="M82.1,32.7h2.4V34c0.6-0.8,1.4-1.4,2.7-1.4c2,0,3.9,1.6,3.9,4.4v0c0,2.9-1.9,4.4-3.9,4.4
		c-1.3,0-2.1-0.6-2.7-1.3v3.7h-2.4V32.7z M88.7,37.1L88.7,37.1c0-1.5-1-2.4-2.1-2.4s-2.1,0.9-2.1,2.4v0c0,1.4,0.9,2.4,2.1,2.4
		S88.7,38.5,88.7,37.1z"/>
	<path class="st1" d="M93,29.6h2.4v11.7H93V29.6z"/>
	<path class="st1" d="M97.3,37.1L97.3,37.1c0-2.5,1.7-4.5,4.2-4.5c2.9,0,4.2,2.2,4.2,4.7c0,0.2,0,0.4,0,0.6h-6
		c0.2,1.1,1,1.7,2.1,1.7c0.8,0,1.4-0.3,2.1-0.9l1.4,1.2c-0.8,1-2,1.6-3.5,1.6C99.2,41.5,97.3,39.7,97.3,37.1z M103.4,36.4
		c-0.1-1.1-0.8-1.8-1.8-1.8c-1,0-1.7,0.7-1.9,1.8H103.4z"/>
	<path class="st1" d="M111.8,39.7l1.5-1.7c1,0.8,2.1,1.4,3.3,1.4c1,0,1.6-0.4,1.6-1.1v0c0-0.6-0.4-0.9-2.3-1.4
		c-2.3-0.6-3.7-1.2-3.7-3.4v0c0-2,1.6-3.4,3.9-3.4c1.6,0,3,0.5,4.2,1.4l-1.3,1.9c-1-0.7-2-1.1-2.9-1.1s-1.4,0.4-1.4,1v0
		c0,0.7,0.5,1,2.4,1.5c2.3,0.6,3.6,1.4,3.6,3.4v0c0,2.2-1.7,3.5-4.1,3.5C114.9,41.5,113.2,40.9,111.8,39.7z"/>
	<path class="st1" d="M122.9,38.9v-4.1h-1v-2.1h1v-2.2h2.4v2.2h2v2.1h-2v3.7c0,0.6,0.2,0.8,0.8,0.8c0.4,0,0.8-0.1,1.2-0.3v2
		c-0.5,0.3-1.1,0.5-1.9,0.5C123.9,41.5,122.9,40.9,122.9,38.9z"/>
	<path class="st1" d="M128.5,37.1L128.5,37.1c0-2.5,2-4.5,4.7-4.5c2.7,0,4.6,2,4.6,4.4v0c0,2.5-2,4.5-4.7,4.5
		C130.5,41.5,128.5,39.5,128.5,37.1z M135.4,37.1L135.4,37.1c0-1.3-0.9-2.4-2.3-2.4c-1.4,0-2.2,1.1-2.2,2.3v0c0,1.3,0.9,2.4,2.3,2.4
		C134.5,39.4,135.4,38.3,135.4,37.1z"/>
	<path class="st1" d="M139.5,32.7h2.4v1.7c0.5-1.2,1.3-2,2.7-1.9v2.5h-0.1c-1.6,0-2.6,1-2.6,3v3.2h-2.4V32.7z"/>
	<path class="st1" d="M145.6,37.1L145.6,37.1c0-2.5,1.7-4.5,4.2-4.5c2.9,0,4.2,2.2,4.2,4.7c0,0.2,0,0.4,0,0.6h-6
		c0.2,1.1,1,1.7,2.1,1.7c0.8,0,1.4-0.3,2.1-0.9l1.4,1.2c-0.8,1-2,1.6-3.5,1.6C147.5,41.5,145.6,39.7,145.6,37.1z M151.6,36.4
		c-0.1-1.1-0.8-1.8-1.8-1.8c-1,0-1.7,0.7-1.9,1.8H151.6z"/>
</g>
<g>
	<path class="st1" d="M24.2,40.6c-0.6-0.4-1.1-0.8-1.5-1.3c-0.5-0.5-0.9-1.1-1.3-1.7c-0.9-1.3-1.6-2.7-2.1-4.2
		c-0.6-1.8-0.9-3.4-0.9-5.1c0-1.8,0.4-3.4,1.2-4.8c0.6-1.1,1.4-1.9,2.5-2.5c1-0.6,2.2-1,3.4-1c0.4,0,0.9,0.1,1.3,0.2
		c0.3,0.1,0.8,0.2,1.3,0.4c0.6,0.2,1,0.4,1.1,0.4c0.4,0.1,0.7,0.2,0.9,0.2c0.2,0,0.5-0.1,0.8-0.1c0.2-0.1,0.5-0.2,1-0.4
		c0.5-0.2,0.8-0.3,1.1-0.4c0.4-0.1,0.9-0.2,1.2-0.3c0.4-0.1,0.9-0.1,1.4-0.1c0.8,0.1,1.6,0.2,2.3,0.5c1.2,0.5,2.2,1.2,2.9,2.3
		c-0.3,0.2-0.6,0.4-0.9,0.6c-0.6,0.5-1.1,1.1-1.5,1.8C38,26,37.7,27,37.7,28.1c0,1.3,0.3,2.4,1,3.3c0.5,0.7,1.1,1.3,1.8,1.8
		c0.4,0.2,0.7,0.4,1,0.5c-0.1,0.4-0.3,0.9-0.5,1.3c-0.4,0.9-0.9,1.8-1.5,2.7c-0.5,0.7-0.9,1.3-1.2,1.6c-0.5,0.6-0.9,1-1.4,1.3
		c-0.5,0.3-1.1,0.5-1.7,0.5c-0.4,0-0.8,0-1.2-0.1c-0.3-0.1-0.7-0.2-1-0.4c-0.3-0.2-0.7-0.3-1.1-0.4c-0.9-0.2-1.8-0.2-2.7,0
		c-0.4,0.1-0.7,0.2-1.1,0.4c-0.5,0.2-0.8,0.3-1,0.4c-0.4,0.1-0.8,0.2-1.2,0.2C25.3,41.2,24.8,41,24.2,40.6L24.2,40.6z"/>
	<path class="st1" d="M32.3,19.1c-0.8,0.4-1.6,0.6-2.3,0.5c-0.1-0.8,0-1.5,0.3-2.4c0.6-1.5,1.7-2.7,3.1-3.4c0.8-0.4,1.5-0.6,2.2-0.6
		c0.1,0.8,0,1.6-0.3,2.4c-0.3,0.7-0.7,1.4-1.2,2C33.6,18.2,33,18.7,32.3,19.1L32.3,19.1L32.3,19.1z"/>
</g>
</svg>
