<?xml version="1.0" encoding="utf-8"?>
<!-- Generator: Adobe Illustrator 21.0.0, SVG Export Plug-In . SVG Version: 6.00 Build 0)  -->
<svg version="1.1" id="Camada_1" xmlns="http://www.w3.org/2000/svg" xmlns:xlink="http://www.w3.org/1999/xlink" x="0px" y="0px"
	 viewBox="0 0 221 60" style="enable-background:new 0 0 221 60;" xml:space="preserve">
<style type="text/css">
	.st0{fill:url(#SVGID_1_);}
	.st1{fill:#FFFFFF;}
	.st2{fill:none;stroke:#FFFFFF;stroke-width:2.8;stroke-miterlimit:10;}
</style>
<linearGradient id="SVGID_1_" gradientUnits="userSpaceOnUse" x1="110.5" y1="15.87" x2="110.5" y2="72.9051">
	<stop  offset="0" style="stop-color:#0A72B8"/>
	<stop  offset="1" style="stop-color:#22B3E8"/>
</linearGradient>
<path class="st0" d="M8,0h205c4.4,0,8,3.6,8,8v44c0,4.4-3.6,8-8,8H8c-4.4,0-8-3.6-8-8V8C0,3.6,3.6,0,8,0z"/>
<g>
	<path class="st1" d="M58.6,21.6L58.6,21.6c0-4,3-7.3,7.3-7.3c2.6,0,4.2,0.9,5.5,2.2l-2,2.3c-1.1-1-2.2-1.6-3.6-1.6
		c-2.4,0-4.1,2-4.1,4.4v0c0,2.4,1.7,4.4,4.1,4.4c1.6,0,2.6-0.6,3.7-1.6l2,2c-1.4,1.5-3,2.5-5.7,2.5C61.7,28.8,58.6,25.6,58.6,21.6z"
		/>
	<path class="st1" d="M73.1,25.4L73.1,25.4c0-2.4,1.8-3.5,4.3-3.5c1.1,0,1.9,0.2,2.6,0.4v-0.2c0-1.3-0.8-2-2.3-2c-1.2,0-2,0.2-3,0.6
		L74,18.5c1.2-0.5,2.3-0.9,4.2-0.9c1.7,0,2.9,0.4,3.6,1.2c0.8,0.8,1.2,2,1.2,3.4v6.2H80v-1.2c-0.7,0.8-1.8,1.4-3.2,1.4
		C74.7,28.7,73.1,27.6,73.1,25.4z M80,24.7v-0.5c-0.5-0.2-1.2-0.4-1.9-0.4c-1.3,0-2.1,0.5-2.1,1.5v0c0,0.8,0.7,1.3,1.7,1.3
		C79.1,26.6,80,25.8,80,24.7z"/>
	<path class="st1" d="M85.5,17.8h3v1.5c0.7-0.9,1.6-1.7,3.1-1.7c2.3,0,3.6,1.5,3.6,4v6.9h-3v-6c0-1.4-0.7-2.2-1.8-2.2
		s-1.9,0.7-1.9,2.2v6h-3V17.8z"/>
	<path class="st1" d="M97.4,25.4L97.4,25.4c0-2.4,1.8-3.5,4.3-3.5c1.1,0,1.9,0.2,2.6,0.4v-0.2c0-1.3-0.8-2-2.3-2c-1.2,0-2,0.2-3,0.6
		l-0.8-2.3c1.2-0.5,2.3-0.9,4.2-0.9c1.7,0,2.9,0.4,3.6,1.2c0.8,0.8,1.2,2,1.2,3.4v6.2h-2.9v-1.2c-0.7,0.8-1.8,1.4-3.2,1.4
		C99,28.7,97.4,27.6,97.4,25.4z M104.3,24.7v-0.5c-0.5-0.2-1.2-0.4-1.9-0.4c-1.3,0-2.1,0.5-2.1,1.5v0c0,0.8,0.7,1.3,1.7,1.3
		C103.4,26.6,104.3,25.8,104.3,24.7z"/>
	<path class="st1" d="M109.9,13.9h3.2v2.7h-3.2V13.9z M110,17.8h3v10.7h-3V17.8z"/>
	<path class="st1" d="M115,27.1l1.3-2c1.2,0.8,2.4,1.3,3.4,1.3c0.9,0,1.3-0.3,1.3-0.8v0c0-0.7-1-0.9-2.2-1.2
		c-1.5-0.4-3.2-1.1-3.2-3.2v0c0-2.2,1.8-3.4,3.9-3.4c1.4,0,2.8,0.5,4,1.2l-1.2,2.1c-1.1-0.6-2.1-1-2.9-1c-0.7,0-1.1,0.3-1.1,0.7v0
		c0,0.6,1,0.9,2.2,1.3c1.5,0.5,3.2,1.2,3.2,3.2v0c0,2.4-1.8,3.5-4.1,3.5C118.1,28.7,116.5,28.2,115,27.1z"/>
	<path class="st1" d="M131.4,23.2L131.4,23.2c0-3.6,2.3-5.6,4.9-5.6c1.6,0,2.6,0.7,3.3,1.6v-5.3h3v14.6h-3V27
		c-0.7,1-1.8,1.7-3.3,1.7C133.8,28.7,131.4,26.8,131.4,23.2z M139.7,23.2L139.7,23.2c0-1.8-1.2-3-2.6-3c-1.4,0-2.6,1.2-2.6,3v0
		c0,1.8,1.2,3,2.6,3C138.5,26.1,139.7,25,139.7,23.2z"/>
	<path class="st1" d="M144.9,23.2L144.9,23.2c0-3.1,2.2-5.6,5.3-5.6c3.6,0,5.2,2.8,5.2,5.8c0,0.2,0,0.5,0,0.8h-7.5
		c0.3,1.4,1.3,2.1,2.6,2.1c1,0,1.8-0.3,2.6-1.1l1.7,1.5c-1,1.2-2.4,2-4.4,2C147.3,28.8,144.9,26.5,144.9,23.2z M152.5,22.3
		c-0.2-1.4-1-2.3-2.3-2.3c-1.3,0-2.1,0.9-2.3,2.3H152.5z"/>
	<path class="st1" d="M58.3,43.4L58.3,43.4c0-2.4,1.8-3.5,4.3-3.5c1.1,0,1.9,0.2,2.6,0.4v-0.2c0-1.3-0.8-2-2.3-2c-1.2,0-2,0.2-3,0.6
		l-0.8-2.3c1.2-0.5,2.3-0.9,4.2-0.9c1.7,0,2.9,0.4,3.6,1.2c0.8,0.8,1.2,2,1.2,3.4v6.2h-2.9v-1.2c-0.7,0.8-1.8,1.4-3.2,1.4
		C60,46.7,58.3,45.6,58.3,43.4z M65.3,42.7v-0.5c-0.5-0.2-1.2-0.4-1.9-0.4c-1.3,0-2.1,0.5-2.1,1.5v0c0,0.8,0.7,1.3,1.7,1.3
		C64.3,44.6,65.3,43.8,65.3,42.7z"/>
	<path class="st1" d="M71.2,43.5v-5.1h-1.3v-2.6h1.3v-2.7h3v2.7h2.5v2.6h-2.5V43c0,0.7,0.3,1,1,1c0.6,0,1.1-0.1,1.5-0.4v2.4
		c-0.6,0.4-1.4,0.6-2.4,0.6C72.4,46.7,71.2,46,71.2,43.5z"/>
	<path class="st1" d="M78.2,41.2L78.2,41.2c0-3.1,2.2-5.6,5.3-5.6c3.6,0,5.2,2.8,5.2,5.8c0,0.2,0,0.5,0,0.8h-7.5
		c0.3,1.4,1.3,2.1,2.6,2.1c1,0,1.8-0.3,2.6-1.1l1.7,1.5c-1,1.2-2.4,2-4.4,2C80.5,46.8,78.2,44.5,78.2,41.2z M85.7,40.3
		c-0.2-1.4-1-2.3-2.3-2.3c-1.3,0-2.1,0.9-2.3,2.3H85.7z"/>
	<path class="st1" d="M90.9,35.8h3v1.5c0.7-0.9,1.6-1.7,3.1-1.7c2.3,0,3.6,1.5,3.6,4v6.9h-3v-6c0-1.4-0.7-2.2-1.8-2.2
		c-1.2,0-1.9,0.7-1.9,2.2v6h-3V35.8z"/>
	<path class="st1" d="M102.9,41.2L102.9,41.2c0-3.6,2.3-5.6,4.9-5.6c1.6,0,2.6,0.7,3.3,1.6v-5.3h3v14.6h-3V45
		c-0.7,1-1.8,1.7-3.3,1.7C105.3,46.7,102.9,44.8,102.9,41.2z M111.2,41.2L111.2,41.2c0-1.8-1.2-3-2.6-3c-1.4,0-2.6,1.2-2.6,3v0
		c0,1.8,1.2,3,2.6,3C110,44.1,111.2,43,111.2,41.2z"/>
	<path class="st1" d="M117,31.9h3.2v2.7H117V31.9z M117,35.8h3v10.7h-3V35.8z"/>
	<path class="st1" d="M122.9,35.8h3v1.5c0.7-0.9,1.6-1.7,3.2-1.7c1.4,0,2.5,0.6,3,1.7c0.9-1.1,2.1-1.7,3.5-1.7
		c2.3,0,3.6,1.4,3.6,3.9v7h-3v-6c0-1.4-0.6-2.2-1.8-2.2c-1.1,0-1.8,0.7-1.8,2.2v6h-3v-6c0-1.4-0.6-2.2-1.8-2.2
		c-1.1,0-1.8,0.7-1.8,2.2v6h-3V35.8z"/>
	<path class="st1" d="M141.4,41.2L141.4,41.2c0-3.1,2.2-5.6,5.3-5.6c3.6,0,5.2,2.8,5.2,5.8c0,0.2,0,0.5,0,0.8h-7.5
		c0.3,1.4,1.3,2.1,2.6,2.1c1,0,1.8-0.3,2.6-1.1l1.7,1.5c-1,1.2-2.4,2-4.4,2C143.8,46.8,141.4,44.5,141.4,41.2z M149,40.3
		c-0.2-1.4-1-2.3-2.3-2.3c-1.3,0-2.1,0.9-2.3,2.3H149z"/>
	<path class="st1" d="M154.2,35.8h3v1.5c0.7-0.9,1.6-1.7,3.1-1.7c2.3,0,3.6,1.5,3.6,4v6.9h-3v-6c0-1.4-0.7-2.2-1.8-2.2
		c-1.2,0-1.9,0.7-1.9,2.2v6h-3V35.8z"/>
	<path class="st1" d="M167.2,43.5v-5.1h-1.3v-2.6h1.3v-2.7h3v2.7h2.5v2.6h-2.5V43c0,0.7,0.3,1,1,1c0.6,0,1.1-0.1,1.5-0.4v2.4
		c-0.6,0.4-1.4,0.6-2.4,0.6C168.4,46.7,167.2,46,167.2,43.5z"/>
	<path class="st1" d="M174.1,41.2L174.1,41.2c0-3.1,2.5-5.6,5.8-5.6c3.3,0,5.8,2.5,5.8,5.5v0c0,3.1-2.5,5.6-5.8,5.6
		C176.6,46.8,174.1,44.3,174.1,41.2z M182.7,41.2L182.7,41.2c0-1.6-1.1-3-2.8-3c-1.7,0-2.8,1.3-2.8,2.9v0c0,1.6,1.1,3,2.8,3
		C181.7,44.1,182.7,42.8,182.7,41.2z"/>
</g>
<path class="st1" d="M25.7,23c0.7-0.2,1,0.2,1.2,0.8c0.3,0.9,0.7,1.7,1.1,2.6c0.1,0.3,0.1,0.5-0.1,0.8c-0.3,0.4-0.6,0.8-0.9,1.2
	c-0.2,0.2-0.2,0.5-0.1,0.7c1.2,2,2.9,3.5,5.1,4.4c0.3,0.1,0.5,0.1,0.7-0.2c0.4-0.5,0.8-0.9,1.1-1.4c0.2-0.3,0.5-0.4,0.8-0.2
	c1,0.5,2.1,1,3.1,1.5c0.1,0.1,0.2,0.3,0.2,0.5c0,1.6-0.5,2.3-2.2,3c-1,0.4-1.9,0.3-2.9,0c-3.6-1-6.2-3.2-8.3-6.2
	c-0.7-0.9-1.3-1.9-1.5-3c-0.4-1.6,0-3,1.2-4.1C24.7,23.1,25.1,23,25.7,23z"/>
<circle class="st2" cx="30.5" cy="30" r="14"/>
</svg>
