<?xml version="1.0" encoding="utf-8"?>
<!-- Generator: Adobe Illustrator 21.0.0, SVG Export Plug-In . SVG Version: 6.00 Build 0)  -->
<svg version="1.1" id="Camada_1" xmlns="http://www.w3.org/2000/svg" xmlns:xlink="http://www.w3.org/1999/xlink" x="0px" y="0px"
	 viewBox="0 0 50 59.7" style="enable-background:new 0 0 50 59.7;" xml:space="preserve">
<style type="text/css">
	.st0{fill:url(#SVGID_1_);}
	.st1{fill:url(#SVGID_2_);}
	.st2{fill:url(#SVGID_3_);}
	.st3{fill:url(#SVGID_4_);}
	.st4{fill:url(#SVGID_5_);}
	.st5{fill:url(#SVGID_6_);}
	.st6{fill:url(#SVGID_7_);}
	.st7{fill:url(#SVGID_8_);}
	.st8{fill:url(#SVGID_9_);}
</style>
<g>
	<linearGradient id="SVGID_1_" gradientUnits="userSpaceOnUse" x1="-1.818989e-12" y1="29.8363" x2="50.0306" y2="29.8363">
		<stop  offset="0" style="stop-color:#0A72B8"/>
		<stop  offset="1" style="stop-color:#22B3E8"/>
	</linearGradient>
	<path class="st0" d="M5,59.7c-0.8-0.3-1.7-0.6-2.5-1C0.8,57.5,0,55.9,0,53.8c0-4.6,0-3.1,0-7.7C0,32.8,0,19.4,0,6
		c0-2.9,1.7-5.1,4.3-5.8C4.8,0.1,5.4,0,5.9,0c8.8,0,17.7,0,26.5,0c0.8,0,1.4,0.3,1.9,0.8c5,5,9.9,9.9,14.9,14.9
		c0.6,0.6,0.8,1.2,0.8,2c0,13.9,0,21.7,0,35.6c0,3.5-1.5,5.5-4.9,6.3c0,0-0.1,0-0.1,0.1C31.7,59.7,18.3,59.7,5,59.7z M30.8,3.9
		c-0.3,0-0.5,0-0.7,0c-8,0-15.9,0-23.9,0c-1.6,0-2.3,0.7-2.3,2.3c0,17.8,0,29.6,0,47.3c0,1.6,0.7,2.3,2.3,2.3c12.6,0,25.1,0,37.7,0
		c1.6,0,2.3-0.7,2.3-2.3c0-13.2,0-20.4,0-33.6c0-0.2,0-0.5,0-0.7c-0.3,0-0.5,0-0.8,0c-2.9,0-5.9,0-8.8,0c-2.9,0-5.2-2-5.7-4.8
		c-0.1-0.5-0.1-0.9-0.1-1.4C30.8,10,30.8,7,30.8,3.9z M34.6,6.7c0,2.3,0,4.5,0,6.8c0,1,0.9,1.8,1.9,1.8c2.2,0,4.4,0,6.5,0
		c0.1,0,0.1,0,0.2,0C40.4,12.5,37.5,9.6,34.6,6.7z"/>
	<linearGradient id="SVGID_2_" gradientUnits="userSpaceOnUse" x1="17.1051" y1="32.3878" x2="40.1961" y2="32.3878">
		<stop  offset="0" style="stop-color:#0A72B8"/>
		<stop  offset="1" style="stop-color:#22B3E8"/>
	</linearGradient>
	<path class="st1" d="M28.6,34.3c-3.1,0-6.2,0-9.4,0c-1.3,0-2.2-0.8-2.2-1.9c0-1.1,0.9-1.9,2.2-1.9c6.3,0,12.6,0,18.8,0
		c1.5,0,2.5,1.4,1.9,2.7c-0.4,0.8-1,1.2-1.9,1.2C35,34.3,31.8,34.3,28.6,34.3z"/>
	<linearGradient id="SVGID_3_" gradientUnits="userSpaceOnUse" x1="17.0934" y1="40.0832" x2="40.1861" y2="40.0832">
		<stop  offset="0" style="stop-color:#0A72B8"/>
		<stop  offset="1" style="stop-color:#22B3E8"/>
	</linearGradient>
	<path class="st2" d="M28.7,38.2c3.1,0,6.2,0,9.3,0c1.3,0,2.2,0.8,2.2,1.9c0,1.1-0.9,1.9-2.2,1.9c-6.3,0-12.6,0-18.8,0
		c-1.5,0-2.5-1.4-1.9-2.7c0.4-0.8,1-1.2,1.9-1.2C22.3,38.2,25.5,38.2,28.7,38.2z"/>
	<linearGradient id="SVGID_4_" gradientUnits="userSpaceOnUse" x1="17.1051" y1="47.7794" x2="40.1925" y2="47.7794">
		<stop  offset="0" style="stop-color:#0A72B8"/>
		<stop  offset="1" style="stop-color:#22B3E8"/>
	</linearGradient>
	<path class="st3" d="M28.7,45.9c3.1,0,6.3,0,9.4,0c1.5,0,2.5,1.4,1.9,2.7c-0.4,0.8-1.1,1.1-2,1.1c-5.1,0-10.3,0-15.4,0
		c-1.1,0-2.3,0-3.4,0c-1.2,0-2.1-0.8-2.1-1.9c0-1.1,0.9-1.9,2.1-1.9C22.4,45.9,25.5,45.9,28.7,45.9z"/>
	<linearGradient id="SVGID_5_" gradientUnits="userSpaceOnUse" x1="9.4095" y1="32.3879" x2="13.2527" y2="32.3879">
		<stop  offset="0" style="stop-color:#0A72B8"/>
		<stop  offset="1" style="stop-color:#22B3E8"/>
	</linearGradient>
	<path class="st4" d="M11.4,30.5c1,0,1.9,0.9,1.9,1.9c0,1.1-0.9,1.9-2,1.9c-1,0-1.9-0.9-1.9-2C9.4,31.3,10.3,30.5,11.4,30.5z"/>
	<linearGradient id="SVGID_6_" gradientUnits="userSpaceOnUse" x1="17.1051" y1="25.2056" x2="40.1961" y2="25.2056">
		<stop  offset="0" style="stop-color:#0A72B8"/>
		<stop  offset="1" style="stop-color:#22B3E8"/>
	</linearGradient>
	<path class="st5" d="M28.6,27.1c-3.1,0-6.2,0-9.4,0c-1.3,0-2.2-0.8-2.2-1.9c0-1.1,0.9-1.9,2.2-1.9c6.3,0,12.6,0,18.8,0
		c1.5,0,2.5,1.4,1.9,2.7c-0.4,0.8-1,1.2-1.9,1.2C35,27.1,31.8,27.1,28.6,27.1z"/>
	<linearGradient id="SVGID_7_" gradientUnits="userSpaceOnUse" x1="9.4095" y1="25.2057" x2="13.2527" y2="25.2057">
		<stop  offset="0" style="stop-color:#0A72B8"/>
		<stop  offset="1" style="stop-color:#22B3E8"/>
	</linearGradient>
	<path class="st6" d="M11.4,23.3c1,0,1.9,0.9,1.9,1.9c0,1.1-0.9,1.9-2,1.9c-1,0-1.9-0.9-1.9-2C9.4,24.1,10.3,23.3,11.4,23.3z"/>
	<linearGradient id="SVGID_8_" gradientUnits="userSpaceOnUse" x1="9.4098" y1="40.0828" x2="13.2527" y2="40.0828">
		<stop  offset="0" style="stop-color:#0A72B8"/>
		<stop  offset="1" style="stop-color:#22B3E8"/>
	</linearGradient>
	<path class="st7" d="M11.3,42c-1,0-1.9-0.9-1.9-1.9c0-1.1,0.9-2,1.9-1.9c1,0,1.9,0.9,1.9,1.9C13.2,41.1,12.4,42,11.3,42z"/>
	<linearGradient id="SVGID_9_" gradientUnits="userSpaceOnUse" x1="9.4099" y1="47.7783" x2="13.2527" y2="47.7783">
		<stop  offset="0" style="stop-color:#0A72B8"/>
		<stop  offset="1" style="stop-color:#22B3E8"/>
	</linearGradient>
	<path class="st8" d="M11.3,45.9c1,0,1.9,0.9,1.9,1.9c0,1.1-0.9,2-2,1.9c-1,0-1.9-0.9-1.9-1.9C9.4,46.7,10.3,45.9,11.3,45.9z"/>
</g>
</svg>
