<?xml version="1.0" encoding="utf-8"?>
<!-- Generator: Adobe Illustrator 21.0.0, SVG Export Plug-In . SVG Version: 6.00 Build 0)  -->
<svg version="1.1" id="Camada_1" xmlns="http://www.w3.org/2000/svg" xmlns:xlink="http://www.w3.org/1999/xlink" x="0px" y="0px"
	 viewBox="0 0 177 60" style="enable-background:new 0 0 177 60;" xml:space="preserve">
<style type="text/css">
	.st0{fill:url(#SVGID_1_);}
	.st1{fill:#FFFFFF;}
	.st2{fill:url(#SVGID_2_);}
</style>
<linearGradient id="SVGID_1_" gradientUnits="userSpaceOnUse" x1="88.002" y1="15.87" x2="88.002" y2="72.9051">
	<stop  offset="0" style="stop-color:#0A72B8"/>
	<stop  offset="1" style="stop-color:#22B3E8"/>
</linearGradient>
<path class="st0" d="M8,0h160c4.4,0,8,3.6,8,8v44c0,4.4-3.6,8-8,8H8c-4.4,0-8-3.6-8-8V8C0,3.6,3.6,0,8,0z"/>
<path class="st1" d="M35.8,28L25.6,17.6l12.9,7.6L35.8,28z M23,17c-0.6,0.3-1,0.9-1,1.7v20.7c0,0.8,0.4,1.3,1,1.7l11.8-12L23,17z
	 M42.6,27.6L39.9,26l-3,3l3,3l2.8-1.6C43.4,29.8,43.4,28.2,42.6,27.6L42.6,27.6z M25.6,40.4l12.9-7.6L35.8,30L25.6,40.4L25.6,40.4z"
	/>
<g>
	<path class="st1" d="M58.8,17.8h2.9c2.6,0,4.5,1.8,4.5,4.2v0c0,2.4-1.8,4.2-4.5,4.2h-2.9V17.8z M61.7,25.3c2.1,0,3.5-1.4,3.5-3.3v0
		c0-1.9-1.4-3.3-3.5-3.3h-2v6.6H61.7z"/>
	<path class="st1" d="M67.6,23.1L67.6,23.1c0-1.8,1.4-3.3,3.2-3.3c1.9,0,3.2,1.5,3.2,3.2v0c0,1.8-1.4,3.2-3.3,3.2
		C69,26.3,67.6,24.8,67.6,23.1z M73.1,23.1L73.1,23.1c0-1.4-1-2.4-2.3-2.4c-1.3,0-2.3,1.1-2.3,2.4v0c0,1.3,1,2.4,2.3,2.4
		C72.2,25.5,73.1,24.4,73.1,23.1z"/>
	<path class="st1" d="M74.9,20h1l1.6,5l1.7-5H80l1.7,5l1.6-5h1l-2.2,6.2h-0.8l-1.7-4.9l-1.7,4.9h-0.8L74.9,20z"/>
	<path class="st1" d="M85.8,20h0.9V21c0.4-0.7,1.1-1.2,2.1-1.2c1.5,0,2.4,1,2.4,2.5v3.9h-0.9v-3.6c0-1.2-0.6-1.9-1.7-1.9
		c-1.1,0-1.9,0.8-1.9,1.9v3.5h-0.9V20z"/>
	<path class="st1" d="M93.3,17.4h0.9v8.8h-0.9V17.4z"/>
	<path class="st1" d="M95.9,23.1L95.9,23.1c0-1.8,1.4-3.3,3.2-3.3c1.9,0,3.2,1.5,3.2,3.2v0c0,1.8-1.4,3.2-3.3,3.2
		C97.3,26.3,95.9,24.8,95.9,23.1z M101.5,23.1L101.5,23.1c0-1.4-1-2.4-2.3-2.4c-1.3,0-2.3,1.1-2.3,2.4v0c0,1.3,1,2.4,2.3,2.4
		C100.5,25.5,101.5,24.4,101.5,23.1z"/>
	<path class="st1" d="M103.6,24.4L103.6,24.4c0-1.4,1.1-2.1,2.7-2.1c0.8,0,1.3,0.1,1.9,0.3v-0.2c0-1.1-0.7-1.7-1.8-1.7
		c-0.7,0-1.3,0.2-1.9,0.4l-0.3-0.8c0.7-0.3,1.3-0.5,2.3-0.5c0.9,0,1.6,0.2,2,0.7c0.4,0.4,0.6,1,0.6,1.8v3.8h-0.9v-0.9
		c-0.4,0.6-1.1,1.1-2.2,1.1C104.8,26.3,103.6,25.6,103.6,24.4z M108.2,23.9v-0.6c-0.5-0.1-1.1-0.3-1.8-0.3c-1.2,0-1.8,0.5-1.8,1.2v0
		c0,0.8,0.7,1.2,1.6,1.2C107.2,25.6,108.2,24.9,108.2,23.9z"/>
	<path class="st1" d="M110.7,23.1L110.7,23.1c0-2.1,1.5-3.3,3-3.3c1.2,0,1.9,0.6,2.4,1.3v-3.7h0.9v8.8H116v-1.2
		c-0.5,0.7-1.2,1.4-2.4,1.4C112.1,26.3,110.7,25.1,110.7,23.1z M116,23.1L116,23.1c0-1.5-1.1-2.4-2.2-2.4c-1.2,0-2.2,0.9-2.2,2.4v0
		c0,1.5,1,2.4,2.2,2.4C115,25.5,116,24.5,116,23.1z"/>
</g>
<g>
	<path class="st1" d="M58.9,30.1h4.6c2.7,0,4.3,1.6,4.3,3.9v0c0,2.6-2,3.9-4.5,3.9h-1.9v3.4h-2.5V30.1z M63.3,35.8
		c1.2,0,2-0.7,2-1.7v0c0-1.1-0.8-1.7-2-1.7h-1.9v3.4H63.3z"/>
	<path class="st1" d="M69.5,29.6h2.4v11.7h-2.4V29.6z"/>
	<path class="st1" d="M73.7,38.9L73.7,38.9c0-1.9,1.4-2.8,3.5-2.8c0.9,0,1.5,0.1,2.1,0.4v-0.1c0-1-0.6-1.6-1.8-1.6
		c-0.9,0-1.6,0.2-2.4,0.5l-0.6-1.9c0.9-0.4,1.9-0.7,3.3-0.7c1.3,0,2.3,0.4,2.9,1c0.6,0.6,0.9,1.6,0.9,2.7v5h-2.4v-0.9
		c-0.6,0.7-1.4,1.1-2.6,1.1C75,41.5,73.7,40.6,73.7,38.9z M79.3,38.3v-0.4c-0.4-0.2-1-0.3-1.6-0.3c-1,0-1.7,0.4-1.7,1.2v0
		c0,0.7,0.5,1,1.3,1C78.5,39.8,79.3,39.2,79.3,38.3z"/>
	<path class="st1" d="M83.2,43.3l0.8-1.8c0.3,0.2,0.7,0.3,1,0.3c0.4,0,0.6-0.1,0.8-0.6l-3.4-8.6h2.6l2,5.8l1.9-5.8h2.5l-3.3,8.8
		c-0.7,1.7-1.4,2.4-2.8,2.4C84.5,43.9,83.9,43.7,83.2,43.3z"/>
	<path class="st1" d="M97.2,39.7l1.5-1.7c1,0.8,2.1,1.4,3.3,1.4c1,0,1.6-0.4,1.6-1.1v0c0-0.6-0.4-0.9-2.3-1.4
		c-2.3-0.6-3.7-1.2-3.7-3.4v0c0-2,1.6-3.4,3.9-3.4c1.6,0,3,0.5,4.2,1.4l-1.3,1.9c-1-0.7-2-1.1-2.9-1.1s-1.4,0.4-1.4,1v0
		c0,0.7,0.5,1,2.4,1.5c2.3,0.6,3.6,1.4,3.6,3.4v0c0,2.2-1.7,3.5-4.1,3.5C100.3,41.5,98.6,40.9,97.2,39.7z"/>
	<path class="st1" d="M108.3,38.9v-4.1h-1v-2.1h1v-2.2h2.4v2.2h2v2.1h-2v3.7c0,0.6,0.2,0.8,0.8,0.8c0.4,0,0.8-0.1,1.2-0.3v2
		c-0.5,0.3-1.1,0.5-1.9,0.5C109.3,41.5,108.3,40.9,108.3,38.9z"/>
	<path class="st1" d="M113.9,37.1L113.9,37.1c0-2.5,2-4.5,4.7-4.5c2.7,0,4.6,2,4.6,4.4v0c0,2.5-2,4.5-4.7,4.5
		C115.9,41.5,113.9,39.5,113.9,37.1z M120.8,37.1L120.8,37.1c0-1.3-0.9-2.4-2.3-2.4c-1.4,0-2.2,1.1-2.2,2.3v0c0,1.3,0.9,2.4,2.3,2.4
		C119.9,39.4,120.8,38.3,120.8,37.1z"/>
	<path class="st1" d="M124.9,32.7h2.4v1.7c0.5-1.2,1.3-2,2.7-1.9v2.5H130c-1.6,0-2.6,1-2.6,3v3.2h-2.4V32.7z"/>
	<path class="st1" d="M131,37.1L131,37.1c0-2.5,1.7-4.5,4.2-4.5c2.9,0,4.2,2.2,4.2,4.7c0,0.2,0,0.4,0,0.6h-6c0.2,1.1,1,1.7,2.1,1.7
		c0.8,0,1.4-0.3,2.1-0.9l1.4,1.2c-0.8,1-2,1.6-3.5,1.6C132.9,41.5,131,39.7,131,37.1z M137,36.4c-0.1-1.1-0.8-1.8-1.8-1.8
		c-1,0-1.7,0.7-1.9,1.8H137z"/>
</g>
<linearGradient id="SVGID_2_" gradientUnits="userSpaceOnUse" x1="513.6847" y1="15.87" x2="513.6847" y2="72.9051">
	<stop  offset="0" style="stop-color:#0A72B8"/>
	<stop  offset="1" style="stop-color:#22B3E8"/>
</linearGradient>
<path class="st2" d="M433.7,0h160c4.4,0,8,3.6,8,8v44c0,4.4-3.6,8-8,8h-160c-4.4,0-8-3.6-8-8V8C425.7,3.6,429.3,0,433.7,0z"/>
<g>
	<path class="st1" d="M484.5,17.8h2.9c2.6,0,4.5,1.8,4.5,4.2v0c0,2.4-1.8,4.2-4.5,4.2h-2.9V17.8z M487.4,25.3c2.1,0,3.5-1.4,3.5-3.3
		v0c0-1.9-1.4-3.3-3.5-3.3h-2v6.6H487.4z"/>
	<path class="st1" d="M493.3,23.1L493.3,23.1c0-1.8,1.4-3.3,3.2-3.3c1.9,0,3.2,1.5,3.2,3.2v0c0,1.8-1.4,3.2-3.3,3.2
		C494.7,26.3,493.3,24.8,493.3,23.1z M498.8,23.1L498.8,23.1c0-1.4-1-2.4-2.3-2.4c-1.3,0-2.3,1.1-2.3,2.4v0c0,1.3,1,2.4,2.3,2.4
		C497.9,25.5,498.8,24.4,498.8,23.1z"/>
	<path class="st1" d="M500.6,20h1l1.6,5l1.7-5h0.8l1.7,5l1.6-5h1l-2.2,6.2h-0.8l-1.7-4.9l-1.7,4.9h-0.8L500.6,20z"/>
	<path class="st1" d="M511.5,20h0.9V21c0.4-0.7,1.1-1.2,2.1-1.2c1.5,0,2.4,1,2.4,2.5v3.9H516v-3.6c0-1.2-0.6-1.9-1.7-1.9
		c-1.1,0-1.9,0.8-1.9,1.9v3.5h-0.9V20z"/>
	<path class="st1" d="M518.9,17.4h0.9v8.8h-0.9V17.4z"/>
	<path class="st1" d="M521.6,23.1L521.6,23.1c0-1.8,1.4-3.3,3.2-3.3c1.9,0,3.2,1.5,3.2,3.2v0c0,1.8-1.4,3.2-3.3,3.2
		C523,26.3,521.6,24.8,521.6,23.1z M527.1,23.1L527.1,23.1c0-1.4-1-2.4-2.3-2.4c-1.3,0-2.3,1.1-2.3,2.4v0c0,1.3,1,2.4,2.3,2.4
		C526.2,25.5,527.1,24.4,527.1,23.1z"/>
	<path class="st1" d="M529.3,24.4L529.3,24.4c0-1.4,1.1-2.1,2.7-2.1c0.8,0,1.3,0.1,1.9,0.3v-0.2c0-1.1-0.7-1.7-1.8-1.7
		c-0.7,0-1.3,0.2-1.9,0.4l-0.3-0.8c0.7-0.3,1.3-0.5,2.3-0.5c0.9,0,1.6,0.2,2,0.7c0.4,0.4,0.6,1,0.6,1.8v3.8h-0.9v-0.9
		c-0.4,0.6-1.1,1.1-2.2,1.1C530.4,26.3,529.3,25.6,529.3,24.4z M533.9,23.9v-0.6c-0.5-0.1-1.1-0.3-1.8-0.3c-1.2,0-1.8,0.5-1.8,1.2v0
		c0,0.8,0.7,1.2,1.6,1.2C532.9,25.6,533.9,24.9,533.9,23.9z"/>
	<path class="st1" d="M536.4,23.1L536.4,23.1c0-2.1,1.5-3.3,3-3.3c1.2,0,1.9,0.6,2.4,1.3v-3.7h0.9v8.8h-0.9v-1.2
		c-0.5,0.7-1.2,1.4-2.4,1.4C537.8,26.3,536.4,25.1,536.4,23.1z M541.7,23.1L541.7,23.1c0-1.5-1.1-2.4-2.2-2.4
		c-1.2,0-2.2,0.9-2.2,2.4v0c0,1.5,1,2.4,2.2,2.4C540.6,25.5,541.7,24.5,541.7,23.1z"/>
</g>
<g>
	<path class="st1" d="M488.5,30h2.3l4.8,11.3h-2.6l-1-2.5h-4.7l-1,2.5h-2.5L488.5,30z M491,36.6l-1.5-3.6l-1.5,3.6H491z"/>
	<path class="st1" d="M497,32.7h2.4V34c0.6-0.8,1.4-1.4,2.7-1.4c2,0,3.9,1.6,3.9,4.4v0c0,2.9-1.9,4.4-3.9,4.4
		c-1.3,0-2.1-0.6-2.7-1.3v3.7H497V32.7z M503.6,37.1L503.6,37.1c0-1.5-1-2.4-2.1-2.4s-2.1,0.9-2.1,2.4v0c0,1.4,0.9,2.4,2.1,2.4
		S503.6,38.5,503.6,37.1z"/>
	<path class="st1" d="M507.8,32.7h2.4V34c0.6-0.8,1.4-1.4,2.7-1.4c2,0,3.9,1.6,3.9,4.4v0c0,2.9-1.9,4.4-3.9,4.4
		c-1.3,0-2.1-0.6-2.7-1.3v3.7h-2.4V32.7z M514.4,37.1L514.4,37.1c0-1.5-1-2.4-2.1-2.4s-2.1,0.9-2.1,2.4v0c0,1.4,0.9,2.4,2.1,2.4
		S514.4,38.5,514.4,37.1z"/>
	<path class="st1" d="M518.7,29.6h2.4v11.7h-2.4V29.6z"/>
	<path class="st1" d="M523,37.1L523,37.1c0-2.5,1.7-4.5,4.2-4.5c2.9,0,4.2,2.2,4.2,4.7c0,0.2,0,0.4,0,0.6h-6c0.2,1.1,1,1.7,2.1,1.7
		c0.8,0,1.4-0.3,2.1-0.9l1.4,1.2c-0.8,1-2,1.6-3.5,1.6C524.9,41.5,523,39.7,523,37.1z M529.1,36.4c-0.1-1.1-0.8-1.8-1.8-1.8
		c-1,0-1.7,0.7-1.9,1.8H529.1z"/>
	<path class="st1" d="M537.5,39.7l1.5-1.7c1,0.8,2.1,1.4,3.3,1.4c1,0,1.6-0.4,1.6-1.1v0c0-0.6-0.4-0.9-2.3-1.4
		c-2.3-0.6-3.7-1.2-3.7-3.4v0c0-2,1.6-3.4,3.9-3.4c1.6,0,3,0.5,4.2,1.4l-1.3,1.9c-1-0.7-2-1.1-2.9-1.1s-1.4,0.4-1.4,1v0
		c0,0.7,0.5,1,2.4,1.5c2.3,0.6,3.6,1.4,3.6,3.4v0c0,2.2-1.7,3.5-4.1,3.5C540.6,41.5,538.9,40.9,537.5,39.7z"/>
	<path class="st1" d="M548.6,38.9v-4.1h-1v-2.1h1v-2.2h2.4v2.2h2v2.1h-2v3.7c0,0.6,0.2,0.8,0.8,0.8c0.4,0,0.8-0.1,1.2-0.3v2
		c-0.5,0.3-1.1,0.5-1.9,0.5C549.6,41.5,548.6,40.9,548.6,38.9z"/>
	<path class="st1" d="M554.2,37.1L554.2,37.1c0-2.5,2-4.5,4.7-4.5c2.7,0,4.6,2,4.6,4.4v0c0,2.5-2,4.5-4.7,4.5
		C556.1,41.5,554.2,39.5,554.2,37.1z M561.1,37.1L561.1,37.1c0-1.3-0.9-2.4-2.3-2.4c-1.4,0-2.2,1.1-2.2,2.3v0c0,1.3,0.9,2.4,2.3,2.4
		C560.2,39.4,561.1,38.3,561.1,37.1z"/>
	<path class="st1" d="M565.2,32.7h2.4v1.7c0.5-1.2,1.3-2,2.7-1.9v2.5h-0.1c-1.6,0-2.6,1-2.6,3v3.2h-2.4V32.7z"/>
	<path class="st1" d="M571.2,37.1L571.2,37.1c0-2.5,1.7-4.5,4.2-4.5c2.9,0,4.2,2.2,4.2,4.7c0,0.2,0,0.4,0,0.6h-6
		c0.2,1.1,1,1.7,2.1,1.7c0.8,0,1.4-0.3,2.1-0.9l1.4,1.2c-0.8,1-2,1.6-3.5,1.6C573.2,41.5,571.2,39.7,571.2,37.1z M577.3,36.4
		c-0.1-1.1-0.8-1.8-1.8-1.8c-1,0-1.7,0.7-1.9,1.8H577.3z"/>
</g>
<g>
	<rect x="219.3" y="0" class="st1" width="156.9" height="156.9"/>
	<rect x="224.8" y="5.5" width="3.9" height="3.9"/>
	<rect x="228.8" y="5.5" width="3.9" height="3.9"/>
	<rect x="232.7" y="5.5" width="3.9" height="3.9"/>
	<rect x="236.6" y="5.5" width="3.9" height="3.9"/>
	<rect x="240.5" y="5.5" width="3.9" height="3.9"/>
	<rect x="244.5" y="5.5" width="3.9" height="3.9"/>
	<rect x="248.4" y="5.5" width="3.9" height="3.9"/>
	<rect x="260.1" y="5.5" width="3.9" height="3.9"/>
	<rect x="283.7" y="5.5" width="3.9" height="3.9"/>
	<rect x="287.6" y="5.5" width="3.9" height="3.9"/>
	<rect x="299.4" y="5.5" width="3.9" height="3.9"/>
	<rect x="303.3" y="5.5" width="3.9" height="3.9"/>
	<rect x="315.1" y="5.5" width="3.9" height="3.9"/>
	<rect x="326.8" y="5.5" width="3.9" height="3.9"/>
	<rect x="334.7" y="5.5" width="3.9" height="3.9"/>
	<rect x="342.5" y="5.5" width="3.9" height="3.9"/>
	<rect x="346.4" y="5.5" width="3.9" height="3.9"/>
	<rect x="350.4" y="5.5" width="3.9" height="3.9"/>
	<rect x="354.3" y="5.5" width="3.9" height="3.9"/>
	<rect x="358.2" y="5.5" width="3.9" height="3.9"/>
	<rect x="362.1" y="5.5" width="3.9" height="3.9"/>
	<rect x="366.1" y="5.5" width="3.9" height="3.9"/>
	<rect x="224.8" y="9.4" width="3.9" height="3.9"/>
	<rect x="248.4" y="9.4" width="3.9" height="3.9"/>
	<rect x="256.2" y="9.4" width="3.9" height="3.9"/>
	<rect x="260.1" y="9.4" width="3.9" height="3.9"/>
	<rect x="268" y="9.4" width="3.9" height="3.9"/>
	<rect x="271.9" y="9.4" width="3.9" height="3.9"/>
	<rect x="291.5" y="9.4" width="3.9" height="3.9"/>
	<rect x="295.5" y="9.4" width="3.9" height="3.9"/>
	<rect x="311.1" y="9.4" width="3.9" height="3.9"/>
	<rect x="330.8" y="9.4" width="3.9" height="3.9"/>
	<rect x="342.5" y="9.4" width="3.9" height="3.9"/>
	<rect x="366.1" y="9.4" width="3.9" height="3.9"/>
	<rect x="224.8" y="13.3" width="3.9" height="3.9"/>
	<rect x="232.7" y="13.3" width="3.9" height="3.9"/>
	<rect x="236.6" y="13.3" width="3.9" height="3.9"/>
	<rect x="240.5" y="13.3" width="3.9" height="3.9"/>
	<rect x="248.4" y="13.3" width="3.9" height="3.9"/>
	<rect x="260.1" y="13.3" width="3.9" height="3.9"/>
	<rect x="264.1" y="13.3" width="3.9" height="3.9"/>
	<rect x="268" y="13.3" width="3.9" height="3.9"/>
	<rect x="279.8" y="13.3" width="3.9" height="3.9"/>
	<rect x="287.6" y="13.3" width="3.9" height="3.9"/>
	<rect x="295.5" y="13.3" width="3.9" height="3.9"/>
	<rect x="303.3" y="13.3" width="3.9" height="3.9"/>
	<rect x="307.2" y="13.3" width="3.9" height="3.9"/>
	<rect x="311.1" y="13.3" width="3.9" height="3.9"/>
	<rect x="315.1" y="13.3" width="3.9" height="3.9"/>
	<rect x="319" y="13.3" width="3.9" height="3.9"/>
	<rect x="330.8" y="13.3" width="3.9" height="3.9"/>
	<rect x="342.5" y="13.3" width="3.9" height="3.9"/>
	<rect x="350.4" y="13.3" width="3.9" height="3.9"/>
	<rect x="354.3" y="13.3" width="3.9" height="3.9"/>
	<rect x="358.2" y="13.3" width="3.9" height="3.9"/>
	<rect x="366.1" y="13.3" width="3.9" height="3.9"/>
	<rect x="224.8" y="17.3" width="3.9" height="3.9"/>
	<rect x="232.7" y="17.3" width="3.9" height="3.9"/>
	<rect x="236.6" y="17.3" width="3.9" height="3.9"/>
	<rect x="240.5" y="17.3" width="3.9" height="3.9"/>
	<rect x="248.4" y="17.3" width="3.9" height="3.9"/>
	<rect x="256.2" y="17.3" width="3.9" height="3.9"/>
	<rect x="260.1" y="17.3" width="3.9" height="3.9"/>
	<rect x="268" y="17.3" width="3.9" height="3.9"/>
	<rect x="291.5" y="17.3" width="3.9" height="3.9"/>
	<rect x="311.1" y="17.3" width="3.9" height="3.9"/>
	<rect x="319" y="17.3" width="3.9" height="3.9"/>
	<rect x="322.9" y="17.3" width="3.9" height="3.9"/>
	<rect x="326.8" y="17.3" width="3.9" height="3.9"/>
	<rect x="330.8" y="17.3" width="3.9" height="3.9"/>
	<rect x="334.7" y="17.3" width="3.9" height="3.9"/>
	<rect x="342.5" y="17.3" width="3.9" height="3.9"/>
	<rect x="350.4" y="17.3" width="3.9" height="3.9"/>
	<rect x="354.3" y="17.3" width="3.9" height="3.9"/>
	<rect x="358.2" y="17.3" width="3.9" height="3.9"/>
	<rect x="366.1" y="17.3" width="3.9" height="3.9"/>
	<rect x="224.8" y="21.2" width="3.9" height="3.9"/>
	<rect x="232.7" y="21.2" width="3.9" height="3.9"/>
	<rect x="236.6" y="21.2" width="3.9" height="3.9"/>
	<rect x="240.5" y="21.2" width="3.9" height="3.9"/>
	<rect x="248.4" y="21.2" width="3.9" height="3.9"/>
	<rect x="264.1" y="21.2" width="3.9" height="3.9"/>
	<rect x="271.9" y="21.2" width="3.9" height="3.9"/>
	<rect x="275.8" y="21.2" width="3.9" height="3.9"/>
	<rect x="279.8" y="21.2" width="3.9" height="3.9"/>
	<rect x="283.7" y="21.2" width="3.9" height="3.9"/>
	<rect x="291.5" y="21.2" width="3.9" height="3.9"/>
	<rect x="295.5" y="21.2" width="3.9" height="3.9"/>
	<rect x="299.4" y="21.2" width="3.9" height="3.9"/>
	<rect x="303.3" y="21.2" width="3.9" height="3.9"/>
	<rect x="315.1" y="21.2" width="3.9" height="3.9"/>
	<rect x="326.8" y="21.2" width="3.9" height="3.9"/>
	<rect x="334.7" y="21.2" width="3.9" height="3.9"/>
	<rect x="342.5" y="21.2" width="3.9" height="3.9"/>
	<rect x="350.4" y="21.2" width="3.9" height="3.9"/>
	<rect x="354.3" y="21.2" width="3.9" height="3.9"/>
	<rect x="358.2" y="21.2" width="3.9" height="3.9"/>
	<rect x="366.1" y="21.2" width="3.9" height="3.9"/>
	<rect x="224.8" y="25.1" width="3.9" height="3.9"/>
	<rect x="248.4" y="25.1" width="3.9" height="3.9"/>
	<rect x="256.2" y="25.1" width="3.9" height="3.9"/>
	<rect x="264.1" y="25.1" width="3.9" height="3.9"/>
	<rect x="275.8" y="25.1" width="3.9" height="3.9"/>
	<rect x="279.8" y="25.1" width="3.9" height="3.9"/>
	<rect x="283.7" y="25.1" width="3.9" height="3.9"/>
	<rect x="287.6" y="25.1" width="3.9" height="3.9"/>
	<rect x="291.5" y="25.1" width="3.9" height="3.9"/>
	<rect x="303.3" y="25.1" width="3.9" height="3.9"/>
	<rect x="307.2" y="25.1" width="3.9" height="3.9"/>
	<rect x="311.1" y="25.1" width="3.9" height="3.9"/>
	<rect x="319" y="25.1" width="3.9" height="3.9"/>
	<rect x="322.9" y="25.1" width="3.9" height="3.9"/>
	<rect x="330.8" y="25.1" width="3.9" height="3.9"/>
	<rect x="334.7" y="25.1" width="3.9" height="3.9"/>
	<rect x="342.5" y="25.1" width="3.9" height="3.9"/>
	<rect x="366.1" y="25.1" width="3.9" height="3.9"/>
	<rect x="224.8" y="29" width="3.9" height="3.9"/>
	<rect x="228.8" y="29" width="3.9" height="3.9"/>
	<rect x="232.7" y="29" width="3.9" height="3.9"/>
	<rect x="236.6" y="29" width="3.9" height="3.9"/>
	<rect x="240.5" y="29" width="3.9" height="3.9"/>
	<rect x="244.5" y="29" width="3.9" height="3.9"/>
	<rect x="248.4" y="29" width="3.9" height="3.9"/>
	<rect x="256.2" y="29" width="3.9" height="3.9"/>
	<rect x="264.1" y="29" width="3.9" height="3.9"/>
	<rect x="271.9" y="29" width="3.9" height="3.9"/>
	<rect x="279.8" y="29" width="3.9" height="3.9"/>
	<rect x="287.6" y="29" width="3.9" height="3.9"/>
	<rect x="295.5" y="29" width="3.9" height="3.9"/>
	<rect x="303.3" y="29" width="3.9" height="3.9"/>
	<rect x="311.1" y="29" width="3.9" height="3.9"/>
	<rect x="319" y="29" width="3.9" height="3.9"/>
	<rect x="326.8" y="29" width="3.9" height="3.9"/>
	<rect x="334.7" y="29" width="3.9" height="3.9"/>
	<rect x="342.5" y="29" width="3.9" height="3.9"/>
	<rect x="346.4" y="29" width="3.9" height="3.9"/>
	<rect x="350.4" y="29" width="3.9" height="3.9"/>
	<rect x="354.3" y="29" width="3.9" height="3.9"/>
	<rect x="358.2" y="29" width="3.9" height="3.9"/>
	<rect x="362.1" y="29" width="3.9" height="3.9"/>
	<rect x="366.1" y="29" width="3.9" height="3.9"/>
	<rect x="271.9" y="33" width="3.9" height="3.9"/>
	<rect x="275.8" y="33" width="3.9" height="3.9"/>
	<rect x="307.2" y="33" width="3.9" height="3.9"/>
	<rect x="311.1" y="33" width="3.9" height="3.9"/>
	<rect x="315.1" y="33" width="3.9" height="3.9"/>
	<rect x="326.8" y="33" width="3.9" height="3.9"/>
	<rect x="330.8" y="33" width="3.9" height="3.9"/>
	<rect x="224.8" y="36.9" width="3.9" height="3.9"/>
	<rect x="228.8" y="36.9" width="3.9" height="3.9"/>
	<rect x="232.7" y="36.9" width="3.9" height="3.9"/>
	<rect x="236.6" y="36.9" width="3.9" height="3.9"/>
	<rect x="240.5" y="36.9" width="3.9" height="3.9"/>
	<rect x="248.4" y="36.9" width="3.9" height="3.9"/>
	<rect x="252.3" y="36.9" width="3.9" height="3.9"/>
	<rect x="256.2" y="36.9" width="3.9" height="3.9"/>
	<rect x="260.1" y="36.9" width="3.9" height="3.9"/>
	<rect x="264.1" y="36.9" width="3.9" height="3.9"/>
	<rect x="271.9" y="36.9" width="3.9" height="3.9"/>
	<rect x="279.8" y="36.9" width="3.9" height="3.9"/>
	<rect x="283.7" y="36.9" width="3.9" height="3.9"/>
	<rect x="287.6" y="36.9" width="3.9" height="3.9"/>
	<rect x="291.5" y="36.9" width="3.9" height="3.9"/>
	<rect x="295.5" y="36.9" width="3.9" height="3.9"/>
	<rect x="315.1" y="36.9" width="3.9" height="3.9"/>
	<rect x="319" y="36.9" width="3.9" height="3.9"/>
	<rect x="322.9" y="36.9" width="3.9" height="3.9"/>
	<rect x="330.8" y="36.9" width="3.9" height="3.9"/>
	<rect x="338.6" y="36.9" width="3.9" height="3.9"/>
	<rect x="346.4" y="36.9" width="3.9" height="3.9"/>
	<rect x="354.3" y="36.9" width="3.9" height="3.9"/>
	<rect x="362.1" y="36.9" width="3.9" height="3.9"/>
	<rect x="224.8" y="40.8" width="3.9" height="3.9"/>
	<rect x="236.6" y="40.8" width="3.9" height="3.9"/>
	<rect x="240.5" y="40.8" width="3.9" height="3.9"/>
	<rect x="252.3" y="40.8" width="3.9" height="3.9"/>
	<rect x="260.1" y="40.8" width="3.9" height="3.9"/>
	<rect x="283.7" y="40.8" width="3.9" height="3.9"/>
	<rect x="287.6" y="40.8" width="3.9" height="3.9"/>
	<rect x="295.5" y="40.8" width="3.9" height="3.9"/>
	<rect x="299.4" y="40.8" width="3.9" height="3.9"/>
	<rect x="303.3" y="40.8" width="3.9" height="3.9"/>
	<rect x="315.1" y="40.8" width="3.9" height="3.9"/>
	<rect x="319" y="40.8" width="3.9" height="3.9"/>
	<rect x="322.9" y="40.8" width="3.9" height="3.9"/>
	<rect x="334.7" y="40.8" width="3.9" height="3.9"/>
	<rect x="346.4" y="40.8" width="3.9" height="3.9"/>
	<rect x="354.3" y="40.8" width="3.9" height="3.9"/>
	<rect x="358.2" y="40.8" width="3.9" height="3.9"/>
	<rect x="362.1" y="40.8" width="3.9" height="3.9"/>
	<rect x="224.8" y="44.7" width="3.9" height="3.9"/>
	<rect x="240.5" y="44.7" width="3.9" height="3.9"/>
	<rect x="244.5" y="44.7" width="3.9" height="3.9"/>
	<rect x="248.4" y="44.7" width="3.9" height="3.9"/>
	<rect x="252.3" y="44.7" width="3.9" height="3.9"/>
	<rect x="268" y="44.7" width="3.9" height="3.9"/>
	<rect x="271.9" y="44.7" width="3.9" height="3.9"/>
	<rect x="283.7" y="44.7" width="3.9" height="3.9"/>
	<rect x="287.6" y="44.7" width="3.9" height="3.9"/>
	<rect x="291.5" y="44.7" width="3.9" height="3.9"/>
	<rect x="303.3" y="44.7" width="3.9" height="3.9"/>
	<rect x="311.1" y="44.7" width="3.9" height="3.9"/>
	<rect x="319" y="44.7" width="3.9" height="3.9"/>
	<rect x="322.9" y="44.7" width="3.9" height="3.9"/>
	<rect x="326.8" y="44.7" width="3.9" height="3.9"/>
	<rect x="330.8" y="44.7" width="3.9" height="3.9"/>
	<rect x="334.7" y="44.7" width="3.9" height="3.9"/>
	<rect x="338.6" y="44.7" width="3.9" height="3.9"/>
	<rect x="342.5" y="44.7" width="3.9" height="3.9"/>
	<rect x="354.3" y="44.7" width="3.9" height="3.9"/>
	<rect x="358.2" y="44.7" width="3.9" height="3.9"/>
	<rect x="366.1" y="44.7" width="3.9" height="3.9"/>
	<rect x="224.8" y="48.6" width="3.9" height="3.9"/>
	<rect x="232.7" y="48.6" width="3.9" height="3.9"/>
	<rect x="236.6" y="48.6" width="3.9" height="3.9"/>
	<rect x="240.5" y="48.6" width="3.9" height="3.9"/>
	<rect x="256.2" y="48.6" width="3.9" height="3.9"/>
	<rect x="260.1" y="48.6" width="3.9" height="3.9"/>
	<rect x="264.1" y="48.6" width="3.9" height="3.9"/>
	<rect x="268" y="48.6" width="3.9" height="3.9"/>
	<rect x="279.8" y="48.6" width="3.9" height="3.9"/>
	<rect x="283.7" y="48.6" width="3.9" height="3.9"/>
	<rect x="287.6" y="48.6" width="3.9" height="3.9"/>
	<rect x="295.5" y="48.6" width="3.9" height="3.9"/>
	<rect x="303.3" y="48.6" width="3.9" height="3.9"/>
	<rect x="307.2" y="48.6" width="3.9" height="3.9"/>
	<rect x="315.1" y="48.6" width="3.9" height="3.9"/>
	<rect x="319" y="48.6" width="3.9" height="3.9"/>
	<rect x="326.8" y="48.6" width="3.9" height="3.9"/>
	<rect x="334.7" y="48.6" width="3.9" height="3.9"/>
	<rect x="338.6" y="48.6" width="3.9" height="3.9"/>
	<rect x="342.5" y="48.6" width="3.9" height="3.9"/>
	<rect x="346.4" y="48.6" width="3.9" height="3.9"/>
	<rect x="350.4" y="48.6" width="3.9" height="3.9"/>
	<rect x="354.3" y="48.6" width="3.9" height="3.9"/>
	<rect x="362.1" y="48.6" width="3.9" height="3.9"/>
	<rect x="228.8" y="52.6" width="3.9" height="3.9"/>
	<rect x="236.6" y="52.6" width="3.9" height="3.9"/>
	<rect x="240.5" y="52.6" width="3.9" height="3.9"/>
	<rect x="244.5" y="52.6" width="3.9" height="3.9"/>
	<rect x="248.4" y="52.6" width="3.9" height="3.9"/>
	<rect x="252.3" y="52.6" width="3.9" height="3.9"/>
	<rect x="256.2" y="52.6" width="3.9" height="3.9"/>
	<rect x="264.1" y="52.6" width="3.9" height="3.9"/>
	<rect x="268" y="52.6" width="3.9" height="3.9"/>
	<rect x="283.7" y="52.6" width="3.9" height="3.9"/>
	<rect x="287.6" y="52.6" width="3.9" height="3.9"/>
	<rect x="291.5" y="52.6" width="3.9" height="3.9"/>
	<rect x="303.3" y="52.6" width="3.9" height="3.9"/>
	<rect x="311.1" y="52.6" width="3.9" height="3.9"/>
	<rect x="322.9" y="52.6" width="3.9" height="3.9"/>
	<rect x="326.8" y="52.6" width="3.9" height="3.9"/>
	<rect x="342.5" y="52.6" width="3.9" height="3.9"/>
	<rect x="350.4" y="52.6" width="3.9" height="3.9"/>
	<rect x="354.3" y="52.6" width="3.9" height="3.9"/>
	<rect x="358.2" y="52.6" width="3.9" height="3.9"/>
	<rect x="366.1" y="52.6" width="3.9" height="3.9"/>
	<rect x="224.8" y="56.5" width="3.9" height="3.9"/>
	<rect x="228.8" y="56.5" width="3.9" height="3.9"/>
	<rect x="236.6" y="56.5" width="3.9" height="3.9"/>
	<rect x="240.5" y="56.5" width="3.9" height="3.9"/>
	<rect x="264.1" y="56.5" width="3.9" height="3.9"/>
	<rect x="271.9" y="56.5" width="3.9" height="3.9"/>
	<rect x="275.8" y="56.5" width="3.9" height="3.9"/>
	<rect x="279.8" y="56.5" width="3.9" height="3.9"/>
	<rect x="283.7" y="56.5" width="3.9" height="3.9"/>
	<rect x="287.6" y="56.5" width="3.9" height="3.9"/>
	<rect x="291.5" y="56.5" width="3.9" height="3.9"/>
	<rect x="295.5" y="56.5" width="3.9" height="3.9"/>
	<rect x="299.4" y="56.5" width="3.9" height="3.9"/>
	<rect x="303.3" y="56.5" width="3.9" height="3.9"/>
	<rect x="307.2" y="56.5" width="3.9" height="3.9"/>
	<rect x="311.1" y="56.5" width="3.9" height="3.9"/>
	<rect x="315.1" y="56.5" width="3.9" height="3.9"/>
	<rect x="346.4" y="56.5" width="3.9" height="3.9"/>
	<rect x="358.2" y="56.5" width="3.9" height="3.9"/>
	<rect x="362.1" y="56.5" width="3.9" height="3.9"/>
	<rect x="232.7" y="60.4" width="3.9" height="3.9"/>
	<rect x="240.5" y="60.4" width="3.9" height="3.9"/>
	<rect x="248.4" y="60.4" width="3.9" height="3.9"/>
	<rect x="252.3" y="60.4" width="3.9" height="3.9"/>
	<rect x="260.1" y="60.4" width="3.9" height="3.9"/>
	<rect x="275.8" y="60.4" width="3.9" height="3.9"/>
	<rect x="279.8" y="60.4" width="3.9" height="3.9"/>
	<rect x="283.7" y="60.4" width="3.9" height="3.9"/>
	<rect x="287.6" y="60.4" width="3.9" height="3.9"/>
	<rect x="295.5" y="60.4" width="3.9" height="3.9"/>
	<rect x="303.3" y="60.4" width="3.9" height="3.9"/>
	<rect x="311.1" y="60.4" width="3.9" height="3.9"/>
	<rect x="319" y="60.4" width="3.9" height="3.9"/>
	<rect x="326.8" y="60.4" width="3.9" height="3.9"/>
	<rect x="330.8" y="60.4" width="3.9" height="3.9"/>
	<rect x="334.7" y="60.4" width="3.9" height="3.9"/>
	<rect x="338.6" y="60.4" width="3.9" height="3.9"/>
	<rect x="346.4" y="60.4" width="3.9" height="3.9"/>
	<rect x="350.4" y="60.4" width="3.9" height="3.9"/>
	<rect x="358.2" y="60.4" width="3.9" height="3.9"/>
	<rect x="362.1" y="60.4" width="3.9" height="3.9"/>
	<rect x="366.1" y="60.4" width="3.9" height="3.9"/>
	<rect x="224.8" y="64.3" width="3.9" height="3.9"/>
	<rect x="240.5" y="64.3" width="3.9" height="3.9"/>
	<rect x="244.5" y="64.3" width="3.9" height="3.9"/>
	<rect x="252.3" y="64.3" width="3.9" height="3.9"/>
	<rect x="264.1" y="64.3" width="3.9" height="3.9"/>
	<rect x="271.9" y="64.3" width="3.9" height="3.9"/>
	<rect x="275.8" y="64.3" width="3.9" height="3.9"/>
	<rect x="283.7" y="64.3" width="3.9" height="3.9"/>
	<rect x="287.6" y="64.3" width="3.9" height="3.9"/>
	<rect x="295.5" y="64.3" width="3.9" height="3.9"/>
	<rect x="307.2" y="64.3" width="3.9" height="3.9"/>
	<rect x="311.1" y="64.3" width="3.9" height="3.9"/>
	<rect x="315.1" y="64.3" width="3.9" height="3.9"/>
	<rect x="319" y="64.3" width="3.9" height="3.9"/>
	<rect x="330.8" y="64.3" width="3.9" height="3.9"/>
	<rect x="334.7" y="64.3" width="3.9" height="3.9"/>
	<rect x="346.4" y="64.3" width="3.9" height="3.9"/>
	<rect x="354.3" y="64.3" width="3.9" height="3.9"/>
	<rect x="366.1" y="64.3" width="3.9" height="3.9"/>
	<rect x="224.8" y="68.3" width="3.9" height="3.9"/>
	<rect x="232.7" y="68.3" width="3.9" height="3.9"/>
	<rect x="236.6" y="68.3" width="3.9" height="3.9"/>
	<rect x="244.5" y="68.3" width="3.9" height="3.9"/>
	<rect x="248.4" y="68.3" width="3.9" height="3.9"/>
	<rect x="252.3" y="68.3" width="3.9" height="3.9"/>
	<rect x="256.2" y="68.3" width="3.9" height="3.9"/>
	<rect x="260.1" y="68.3" width="3.9" height="3.9"/>
	<rect x="271.9" y="68.3" width="3.9" height="3.9"/>
	<rect x="279.8" y="68.3" width="3.9" height="3.9"/>
	<rect x="287.6" y="68.3" width="3.9" height="3.9"/>
	<rect x="291.5" y="68.3" width="3.9" height="3.9"/>
	<rect x="303.3" y="68.3" width="3.9" height="3.9"/>
	<rect x="311.1" y="68.3" width="3.9" height="3.9"/>
	<rect x="319" y="68.3" width="3.9" height="3.9"/>
	<rect x="322.9" y="68.3" width="3.9" height="3.9"/>
	<rect x="326.8" y="68.3" width="3.9" height="3.9"/>
	<rect x="330.8" y="68.3" width="3.9" height="3.9"/>
	<rect x="338.6" y="68.3" width="3.9" height="3.9"/>
	<rect x="342.5" y="68.3" width="3.9" height="3.9"/>
	<rect x="350.4" y="68.3" width="3.9" height="3.9"/>
	<rect x="354.3" y="68.3" width="3.9" height="3.9"/>
	<rect x="358.2" y="68.3" width="3.9" height="3.9"/>
	<rect x="366.1" y="68.3" width="3.9" height="3.9"/>
	<rect x="224.8" y="72.2" width="3.9" height="3.9"/>
	<rect x="236.6" y="72.2" width="3.9" height="3.9"/>
	<rect x="244.5" y="72.2" width="3.9" height="3.9"/>
	<rect x="252.3" y="72.2" width="3.9" height="3.9"/>
	<rect x="256.2" y="72.2" width="3.9" height="3.9"/>
	<rect x="260.1" y="72.2" width="3.9" height="3.9"/>
	<rect x="264.1" y="72.2" width="3.9" height="3.9"/>
	<rect x="291.5" y="72.2" width="3.9" height="3.9"/>
	<rect x="295.5" y="72.2" width="3.9" height="3.9"/>
	<rect x="299.4" y="72.2" width="3.9" height="3.9"/>
	<rect x="303.3" y="72.2" width="3.9" height="3.9"/>
	<rect x="315.1" y="72.2" width="3.9" height="3.9"/>
	<rect x="334.7" y="72.2" width="3.9" height="3.9"/>
	<rect x="346.4" y="72.2" width="3.9" height="3.9"/>
	<rect x="358.2" y="72.2" width="3.9" height="3.9"/>
	<rect x="362.1" y="72.2" width="3.9" height="3.9"/>
	<rect x="228.8" y="76.1" width="3.9" height="3.9"/>
	<rect x="236.6" y="76.1" width="3.9" height="3.9"/>
	<rect x="240.5" y="76.1" width="3.9" height="3.9"/>
	<rect x="248.4" y="76.1" width="3.9" height="3.9"/>
	<rect x="260.1" y="76.1" width="3.9" height="3.9"/>
	<rect x="264.1" y="76.1" width="3.9" height="3.9"/>
	<rect x="268" y="76.1" width="3.9" height="3.9"/>
	<rect x="271.9" y="76.1" width="3.9" height="3.9"/>
	<rect x="283.7" y="76.1" width="3.9" height="3.9"/>
	<rect x="303.3" y="76.1" width="3.9" height="3.9"/>
	<rect x="307.2" y="76.1" width="3.9" height="3.9"/>
	<rect x="326.8" y="76.1" width="3.9" height="3.9"/>
	<rect x="330.8" y="76.1" width="3.9" height="3.9"/>
	<rect x="342.5" y="76.1" width="3.9" height="3.9"/>
	<rect x="346.4" y="76.1" width="3.9" height="3.9"/>
	<rect x="350.4" y="76.1" width="3.9" height="3.9"/>
	<rect x="358.2" y="76.1" width="3.9" height="3.9"/>
	<rect x="362.1" y="76.1" width="3.9" height="3.9"/>
	<rect x="366.1" y="76.1" width="3.9" height="3.9"/>
	<rect x="228.8" y="80" width="3.9" height="3.9"/>
	<rect x="236.6" y="80" width="3.9" height="3.9"/>
	<rect x="240.5" y="80" width="3.9" height="3.9"/>
	<rect x="244.5" y="80" width="3.9" height="3.9"/>
	<rect x="252.3" y="80" width="3.9" height="3.9"/>
	<rect x="260.1" y="80" width="3.9" height="3.9"/>
	<rect x="264.1" y="80" width="3.9" height="3.9"/>
	<rect x="268" y="80" width="3.9" height="3.9"/>
	<rect x="279.8" y="80" width="3.9" height="3.9"/>
	<rect x="283.7" y="80" width="3.9" height="3.9"/>
	<rect x="287.6" y="80" width="3.9" height="3.9"/>
	<rect x="295.5" y="80" width="3.9" height="3.9"/>
	<rect x="307.2" y="80" width="3.9" height="3.9"/>
	<rect x="311.1" y="80" width="3.9" height="3.9"/>
	<rect x="326.8" y="80" width="3.9" height="3.9"/>
	<rect x="338.6" y="80" width="3.9" height="3.9"/>
	<rect x="346.4" y="80" width="3.9" height="3.9"/>
	<rect x="350.4" y="80" width="3.9" height="3.9"/>
	<rect x="366.1" y="80" width="3.9" height="3.9"/>
	<rect x="228.8" y="83.9" width="3.9" height="3.9"/>
	<rect x="232.7" y="83.9" width="3.9" height="3.9"/>
	<rect x="236.6" y="83.9" width="3.9" height="3.9"/>
	<rect x="240.5" y="83.9" width="3.9" height="3.9"/>
	<rect x="244.5" y="83.9" width="3.9" height="3.9"/>
	<rect x="248.4" y="83.9" width="3.9" height="3.9"/>
	<rect x="252.3" y="83.9" width="3.9" height="3.9"/>
	<rect x="256.2" y="83.9" width="3.9" height="3.9"/>
	<rect x="260.1" y="83.9" width="3.9" height="3.9"/>
	<rect x="264.1" y="83.9" width="3.9" height="3.9"/>
	<rect x="268" y="83.9" width="3.9" height="3.9"/>
	<rect x="291.5" y="83.9" width="3.9" height="3.9"/>
	<rect x="295.5" y="83.9" width="3.9" height="3.9"/>
	<rect x="299.4" y="83.9" width="3.9" height="3.9"/>
	<rect x="311.1" y="83.9" width="3.9" height="3.9"/>
	<rect x="315.1" y="83.9" width="3.9" height="3.9"/>
	<rect x="322.9" y="83.9" width="3.9" height="3.9"/>
	<rect x="326.8" y="83.9" width="3.9" height="3.9"/>
	<rect x="330.8" y="83.9" width="3.9" height="3.9"/>
	<rect x="334.7" y="83.9" width="3.9" height="3.9"/>
	<rect x="338.6" y="83.9" width="3.9" height="3.9"/>
	<rect x="342.5" y="83.9" width="3.9" height="3.9"/>
	<rect x="350.4" y="83.9" width="3.9" height="3.9"/>
	<rect x="358.2" y="83.9" width="3.9" height="3.9"/>
	<rect x="362.1" y="83.9" width="3.9" height="3.9"/>
	<rect x="366.1" y="83.9" width="3.9" height="3.9"/>
	<rect x="224.8" y="87.9" width="3.9" height="3.9"/>
	<rect x="228.8" y="87.9" width="3.9" height="3.9"/>
	<rect x="232.7" y="87.9" width="3.9" height="3.9"/>
	<rect x="236.6" y="87.9" width="3.9" height="3.9"/>
	<rect x="256.2" y="87.9" width="3.9" height="3.9"/>
	<rect x="271.9" y="87.9" width="3.9" height="3.9"/>
	<rect x="275.8" y="87.9" width="3.9" height="3.9"/>
	<rect x="279.8" y="87.9" width="3.9" height="3.9"/>
	<rect x="287.6" y="87.9" width="3.9" height="3.9"/>
	<rect x="291.5" y="87.9" width="3.9" height="3.9"/>
	<rect x="299.4" y="87.9" width="3.9" height="3.9"/>
	<rect x="303.3" y="87.9" width="3.9" height="3.9"/>
	<rect x="307.2" y="87.9" width="3.9" height="3.9"/>
	<rect x="311.1" y="87.9" width="3.9" height="3.9"/>
	<rect x="315.1" y="87.9" width="3.9" height="3.9"/>
	<rect x="319" y="87.9" width="3.9" height="3.9"/>
	<rect x="326.8" y="87.9" width="3.9" height="3.9"/>
	<rect x="334.7" y="87.9" width="3.9" height="3.9"/>
	<rect x="346.4" y="87.9" width="3.9" height="3.9"/>
	<rect x="354.3" y="87.9" width="3.9" height="3.9"/>
	<rect x="362.1" y="87.9" width="3.9" height="3.9"/>
	<rect x="228.8" y="91.8" width="3.9" height="3.9"/>
	<rect x="236.6" y="91.8" width="3.9" height="3.9"/>
	<rect x="240.5" y="91.8" width="3.9" height="3.9"/>
	<rect x="244.5" y="91.8" width="3.9" height="3.9"/>
	<rect x="248.4" y="91.8" width="3.9" height="3.9"/>
	<rect x="252.3" y="91.8" width="3.9" height="3.9"/>
	<rect x="256.2" y="91.8" width="3.9" height="3.9"/>
	<rect x="275.8" y="91.8" width="3.9" height="3.9"/>
	<rect x="279.8" y="91.8" width="3.9" height="3.9"/>
	<rect x="283.7" y="91.8" width="3.9" height="3.9"/>
	<rect x="287.6" y="91.8" width="3.9" height="3.9"/>
	<rect x="303.3" y="91.8" width="3.9" height="3.9"/>
	<rect x="307.2" y="91.8" width="3.9" height="3.9"/>
	<rect x="319" y="91.8" width="3.9" height="3.9"/>
	<rect x="326.8" y="91.8" width="3.9" height="3.9"/>
	<rect x="330.8" y="91.8" width="3.9" height="3.9"/>
	<rect x="334.7" y="91.8" width="3.9" height="3.9"/>
	<rect x="338.6" y="91.8" width="3.9" height="3.9"/>
	<rect x="346.4" y="91.8" width="3.9" height="3.9"/>
	<rect x="350.4" y="91.8" width="3.9" height="3.9"/>
	<rect x="354.3" y="91.8" width="3.9" height="3.9"/>
	<rect x="362.1" y="91.8" width="3.9" height="3.9"/>
	<rect x="366.1" y="91.8" width="3.9" height="3.9"/>
	<rect x="232.7" y="95.7" width="3.9" height="3.9"/>
	<rect x="244.5" y="95.7" width="3.9" height="3.9"/>
	<rect x="256.2" y="95.7" width="3.9" height="3.9"/>
	<rect x="271.9" y="95.7" width="3.9" height="3.9"/>
	<rect x="275.8" y="95.7" width="3.9" height="3.9"/>
	<rect x="287.6" y="95.7" width="3.9" height="3.9"/>
	<rect x="299.4" y="95.7" width="3.9" height="3.9"/>
	<rect x="303.3" y="95.7" width="3.9" height="3.9"/>
	<rect x="307.2" y="95.7" width="3.9" height="3.9"/>
	<rect x="311.1" y="95.7" width="3.9" height="3.9"/>
	<rect x="334.7" y="95.7" width="3.9" height="3.9"/>
	<rect x="338.6" y="95.7" width="3.9" height="3.9"/>
	<rect x="346.4" y="95.7" width="3.9" height="3.9"/>
	<rect x="350.4" y="95.7" width="3.9" height="3.9"/>
	<rect x="366.1" y="95.7" width="3.9" height="3.9"/>
	<rect x="236.6" y="99.6" width="3.9" height="3.9"/>
	<rect x="240.5" y="99.6" width="3.9" height="3.9"/>
	<rect x="244.5" y="99.6" width="3.9" height="3.9"/>
	<rect x="248.4" y="99.6" width="3.9" height="3.9"/>
	<rect x="260.1" y="99.6" width="3.9" height="3.9"/>
	<rect x="271.9" y="99.6" width="3.9" height="3.9"/>
	<rect x="279.8" y="99.6" width="3.9" height="3.9"/>
	<rect x="283.7" y="99.6" width="3.9" height="3.9"/>
	<rect x="291.5" y="99.6" width="3.9" height="3.9"/>
	<rect x="303.3" y="99.6" width="3.9" height="3.9"/>
	<rect x="311.1" y="99.6" width="3.9" height="3.9"/>
	<rect x="319" y="99.6" width="3.9" height="3.9"/>
	<rect x="322.9" y="99.6" width="3.9" height="3.9"/>
	<rect x="326.8" y="99.6" width="3.9" height="3.9"/>
	<rect x="338.6" y="99.6" width="3.9" height="3.9"/>
	<rect x="342.5" y="99.6" width="3.9" height="3.9"/>
	<rect x="350.4" y="99.6" width="3.9" height="3.9"/>
	<rect x="354.3" y="99.6" width="3.9" height="3.9"/>
	<rect x="358.2" y="99.6" width="3.9" height="3.9"/>
	<rect x="362.1" y="99.6" width="3.9" height="3.9"/>
	<rect x="366.1" y="99.6" width="3.9" height="3.9"/>
	<rect x="224.8" y="103.6" width="3.9" height="3.9"/>
	<rect x="236.6" y="103.6" width="3.9" height="3.9"/>
	<rect x="244.5" y="103.6" width="3.9" height="3.9"/>
	<rect x="252.3" y="103.6" width="3.9" height="3.9"/>
	<rect x="264.1" y="103.6" width="3.9" height="3.9"/>
	<rect x="287.6" y="103.6" width="3.9" height="3.9"/>
	<rect x="299.4" y="103.6" width="3.9" height="3.9"/>
	<rect x="303.3" y="103.6" width="3.9" height="3.9"/>
	<rect x="307.2" y="103.6" width="3.9" height="3.9"/>
	<rect x="311.1" y="103.6" width="3.9" height="3.9"/>
	<rect x="315.1" y="103.6" width="3.9" height="3.9"/>
	<rect x="334.7" y="103.6" width="3.9" height="3.9"/>
	<rect x="346.4" y="103.6" width="3.9" height="3.9"/>
	<rect x="358.2" y="103.6" width="3.9" height="3.9"/>
	<rect x="362.1" y="103.6" width="3.9" height="3.9"/>
	<rect x="224.8" y="107.5" width="3.9" height="3.9"/>
	<rect x="232.7" y="107.5" width="3.9" height="3.9"/>
	<rect x="236.6" y="107.5" width="3.9" height="3.9"/>
	<rect x="248.4" y="107.5" width="3.9" height="3.9"/>
	<rect x="252.3" y="107.5" width="3.9" height="3.9"/>
	<rect x="260.1" y="107.5" width="3.9" height="3.9"/>
	<rect x="264.1" y="107.5" width="3.9" height="3.9"/>
	<rect x="268" y="107.5" width="3.9" height="3.9"/>
	<rect x="271.9" y="107.5" width="3.9" height="3.9"/>
	<rect x="283.7" y="107.5" width="3.9" height="3.9"/>
	<rect x="295.5" y="107.5" width="3.9" height="3.9"/>
	<rect x="307.2" y="107.5" width="3.9" height="3.9"/>
	<rect x="311.1" y="107.5" width="3.9" height="3.9"/>
	<rect x="330.8" y="107.5" width="3.9" height="3.9"/>
	<rect x="338.6" y="107.5" width="3.9" height="3.9"/>
	<rect x="346.4" y="107.5" width="3.9" height="3.9"/>
	<rect x="350.4" y="107.5" width="3.9" height="3.9"/>
	<rect x="354.3" y="107.5" width="3.9" height="3.9"/>
	<rect x="362.1" y="107.5" width="3.9" height="3.9"/>
	<rect x="366.1" y="107.5" width="3.9" height="3.9"/>
	<rect x="224.8" y="111.4" width="3.9" height="3.9"/>
	<rect x="236.6" y="111.4" width="3.9" height="3.9"/>
	<rect x="240.5" y="111.4" width="3.9" height="3.9"/>
	<rect x="256.2" y="111.4" width="3.9" height="3.9"/>
	<rect x="260.1" y="111.4" width="3.9" height="3.9"/>
	<rect x="264.1" y="111.4" width="3.9" height="3.9"/>
	<rect x="268" y="111.4" width="3.9" height="3.9"/>
	<rect x="279.8" y="111.4" width="3.9" height="3.9"/>
	<rect x="287.6" y="111.4" width="3.9" height="3.9"/>
	<rect x="295.5" y="111.4" width="3.9" height="3.9"/>
	<rect x="299.4" y="111.4" width="3.9" height="3.9"/>
	<rect x="303.3" y="111.4" width="3.9" height="3.9"/>
	<rect x="307.2" y="111.4" width="3.9" height="3.9"/>
	<rect x="311.1" y="111.4" width="3.9" height="3.9"/>
	<rect x="319" y="111.4" width="3.9" height="3.9"/>
	<rect x="326.8" y="111.4" width="3.9" height="3.9"/>
	<rect x="330.8" y="111.4" width="3.9" height="3.9"/>
	<rect x="334.7" y="111.4" width="3.9" height="3.9"/>
	<rect x="338.6" y="111.4" width="3.9" height="3.9"/>
	<rect x="342.5" y="111.4" width="3.9" height="3.9"/>
	<rect x="346.4" y="111.4" width="3.9" height="3.9"/>
	<rect x="366.1" y="111.4" width="3.9" height="3.9"/>
	<rect x="224.8" y="115.3" width="3.9" height="3.9"/>
	<rect x="232.7" y="115.3" width="3.9" height="3.9"/>
	<rect x="240.5" y="115.3" width="3.9" height="3.9"/>
	<rect x="244.5" y="115.3" width="3.9" height="3.9"/>
	<rect x="248.4" y="115.3" width="3.9" height="3.9"/>
	<rect x="252.3" y="115.3" width="3.9" height="3.9"/>
	<rect x="260.1" y="115.3" width="3.9" height="3.9"/>
	<rect x="268" y="115.3" width="3.9" height="3.9"/>
	<rect x="283.7" y="115.3" width="3.9" height="3.9"/>
	<rect x="291.5" y="115.3" width="3.9" height="3.9"/>
	<rect x="299.4" y="115.3" width="3.9" height="3.9"/>
	<rect x="311.1" y="115.3" width="3.9" height="3.9"/>
	<rect x="315.1" y="115.3" width="3.9" height="3.9"/>
	<rect x="319" y="115.3" width="3.9" height="3.9"/>
	<rect x="322.9" y="115.3" width="3.9" height="3.9"/>
	<rect x="326.8" y="115.3" width="3.9" height="3.9"/>
	<rect x="330.8" y="115.3" width="3.9" height="3.9"/>
	<rect x="334.7" y="115.3" width="3.9" height="3.9"/>
	<rect x="338.6" y="115.3" width="3.9" height="3.9"/>
	<rect x="342.5" y="115.3" width="3.9" height="3.9"/>
	<rect x="346.4" y="115.3" width="3.9" height="3.9"/>
	<rect x="350.4" y="115.3" width="3.9" height="3.9"/>
	<rect x="354.3" y="115.3" width="3.9" height="3.9"/>
	<rect x="358.2" y="115.3" width="3.9" height="3.9"/>
	<rect x="256.2" y="119.3" width="3.9" height="3.9"/>
	<rect x="260.1" y="119.3" width="3.9" height="3.9"/>
	<rect x="271.9" y="119.3" width="3.9" height="3.9"/>
	<rect x="275.8" y="119.3" width="3.9" height="3.9"/>
	<rect x="279.8" y="119.3" width="3.9" height="3.9"/>
	<rect x="299.4" y="119.3" width="3.9" height="3.9"/>
	<rect x="307.2" y="119.3" width="3.9" height="3.9"/>
	<rect x="315.1" y="119.3" width="3.9" height="3.9"/>
	<rect x="322.9" y="119.3" width="3.9" height="3.9"/>
	<rect x="334.7" y="119.3" width="3.9" height="3.9"/>
	<rect x="350.4" y="119.3" width="3.9" height="3.9"/>
	<rect x="354.3" y="119.3" width="3.9" height="3.9"/>
	<rect x="224.8" y="123.2" width="3.9" height="3.9"/>
	<rect x="228.8" y="123.2" width="3.9" height="3.9"/>
	<rect x="232.7" y="123.2" width="3.9" height="3.9"/>
	<rect x="236.6" y="123.2" width="3.9" height="3.9"/>
	<rect x="240.5" y="123.2" width="3.9" height="3.9"/>
	<rect x="244.5" y="123.2" width="3.9" height="3.9"/>
	<rect x="248.4" y="123.2" width="3.9" height="3.9"/>
	<rect x="256.2" y="123.2" width="3.9" height="3.9"/>
	<rect x="260.1" y="123.2" width="3.9" height="3.9"/>
	<rect x="264.1" y="123.2" width="3.9" height="3.9"/>
	<rect x="275.8" y="123.2" width="3.9" height="3.9"/>
	<rect x="279.8" y="123.2" width="3.9" height="3.9"/>
	<rect x="283.7" y="123.2" width="3.9" height="3.9"/>
	<rect x="303.3" y="123.2" width="3.9" height="3.9"/>
	<rect x="307.2" y="123.2" width="3.9" height="3.9"/>
	<rect x="334.7" y="123.2" width="3.9" height="3.9"/>
	<rect x="342.5" y="123.2" width="3.9" height="3.9"/>
	<rect x="350.4" y="123.2" width="3.9" height="3.9"/>
	<rect x="362.1" y="123.2" width="3.9" height="3.9"/>
	<rect x="366.1" y="123.2" width="3.9" height="3.9"/>
	<rect x="224.8" y="127.1" width="3.9" height="3.9"/>
	<rect x="248.4" y="127.1" width="3.9" height="3.9"/>
	<rect x="271.9" y="127.1" width="3.9" height="3.9"/>
	<rect x="275.8" y="127.1" width="3.9" height="3.9"/>
	<rect x="295.5" y="127.1" width="3.9" height="3.9"/>
	<rect x="299.4" y="127.1" width="3.9" height="3.9"/>
	<rect x="303.3" y="127.1" width="3.9" height="3.9"/>
	<rect x="307.2" y="127.1" width="3.9" height="3.9"/>
	<rect x="311.1" y="127.1" width="3.9" height="3.9"/>
	<rect x="315.1" y="127.1" width="3.9" height="3.9"/>
	<rect x="326.8" y="127.1" width="3.9" height="3.9"/>
	<rect x="334.7" y="127.1" width="3.9" height="3.9"/>
	<rect x="350.4" y="127.1" width="3.9" height="3.9"/>
	<rect x="362.1" y="127.1" width="3.9" height="3.9"/>
	<rect x="366.1" y="127.1" width="3.9" height="3.9"/>
	<rect x="224.8" y="131" width="3.9" height="3.9"/>
	<rect x="232.7" y="131" width="3.9" height="3.9"/>
	<rect x="236.6" y="131" width="3.9" height="3.9"/>
	<rect x="240.5" y="131" width="3.9" height="3.9"/>
	<rect x="248.4" y="131" width="3.9" height="3.9"/>
	<rect x="256.2" y="131" width="3.9" height="3.9"/>
	<rect x="271.9" y="131" width="3.9" height="3.9"/>
	<rect x="279.8" y="131" width="3.9" height="3.9"/>
	<rect x="283.7" y="131" width="3.9" height="3.9"/>
	<rect x="287.6" y="131" width="3.9" height="3.9"/>
	<rect x="299.4" y="131" width="3.9" height="3.9"/>
	<rect x="311.1" y="131" width="3.9" height="3.9"/>
	<rect x="315.1" y="131" width="3.9" height="3.9"/>
	<rect x="322.9" y="131" width="3.9" height="3.9"/>
	<rect x="326.8" y="131" width="3.9" height="3.9"/>
	<rect x="330.8" y="131" width="3.9" height="3.9"/>
	<rect x="334.7" y="131" width="3.9" height="3.9"/>
	<rect x="338.6" y="131" width="3.9" height="3.9"/>
	<rect x="342.5" y="131" width="3.9" height="3.9"/>
	<rect x="346.4" y="131" width="3.9" height="3.9"/>
	<rect x="350.4" y="131" width="3.9" height="3.9"/>
	<rect x="358.2" y="131" width="3.9" height="3.9"/>
	<rect x="362.1" y="131" width="3.9" height="3.9"/>
	<rect x="366.1" y="131" width="3.9" height="3.9"/>
	<rect x="224.8" y="134.9" width="3.9" height="3.9"/>
	<rect x="232.7" y="134.9" width="3.9" height="3.9"/>
	<rect x="236.6" y="134.9" width="3.9" height="3.9"/>
	<rect x="240.5" y="134.9" width="3.9" height="3.9"/>
	<rect x="248.4" y="134.9" width="3.9" height="3.9"/>
	<rect x="256.2" y="134.9" width="3.9" height="3.9"/>
	<rect x="260.1" y="134.9" width="3.9" height="3.9"/>
	<rect x="283.7" y="134.9" width="3.9" height="3.9"/>
	<rect x="287.6" y="134.9" width="3.9" height="3.9"/>
	<rect x="291.5" y="134.9" width="3.9" height="3.9"/>
	<rect x="299.4" y="134.9" width="3.9" height="3.9"/>
	<rect x="303.3" y="134.9" width="3.9" height="3.9"/>
	<rect x="307.2" y="134.9" width="3.9" height="3.9"/>
	<rect x="315.1" y="134.9" width="3.9" height="3.9"/>
	<rect x="319" y="134.9" width="3.9" height="3.9"/>
	<rect x="322.9" y="134.9" width="3.9" height="3.9"/>
	<rect x="334.7" y="134.9" width="3.9" height="3.9"/>
	<rect x="342.5" y="134.9" width="3.9" height="3.9"/>
	<rect x="350.4" y="134.9" width="3.9" height="3.9"/>
	<rect x="354.3" y="134.9" width="3.9" height="3.9"/>
	<rect x="358.2" y="134.9" width="3.9" height="3.9"/>
	<rect x="362.1" y="134.9" width="3.9" height="3.9"/>
	<rect x="366.1" y="134.9" width="3.9" height="3.9"/>
	<rect x="224.8" y="138.9" width="3.9" height="3.9"/>
	<rect x="232.7" y="138.9" width="3.9" height="3.9"/>
	<rect x="236.6" y="138.9" width="3.9" height="3.9"/>
	<rect x="240.5" y="138.9" width="3.9" height="3.9"/>
	<rect x="248.4" y="138.9" width="3.9" height="3.9"/>
	<rect x="256.2" y="138.9" width="3.9" height="3.9"/>
	<rect x="268" y="138.9" width="3.9" height="3.9"/>
	<rect x="271.9" y="138.9" width="3.9" height="3.9"/>
	<rect x="283.7" y="138.9" width="3.9" height="3.9"/>
	<rect x="291.5" y="138.9" width="3.9" height="3.9"/>
	<rect x="307.2" y="138.9" width="3.9" height="3.9"/>
	<rect x="311.1" y="138.9" width="3.9" height="3.9"/>
	<rect x="326.8" y="138.9" width="3.9" height="3.9"/>
	<rect x="330.8" y="138.9" width="3.9" height="3.9"/>
	<rect x="346.4" y="138.9" width="3.9" height="3.9"/>
	<rect x="362.1" y="138.9" width="3.9" height="3.9"/>
	<rect x="366.1" y="138.9" width="3.9" height="3.9"/>
	<rect x="224.8" y="142.8" width="3.9" height="3.9"/>
	<rect x="248.4" y="142.8" width="3.9" height="3.9"/>
	<rect x="256.2" y="142.8" width="3.9" height="3.9"/>
	<rect x="260.1" y="142.8" width="3.9" height="3.9"/>
	<rect x="264.1" y="142.8" width="3.9" height="3.9"/>
	<rect x="268" y="142.8" width="3.9" height="3.9"/>
	<rect x="279.8" y="142.8" width="3.9" height="3.9"/>
	<rect x="299.4" y="142.8" width="3.9" height="3.9"/>
	<rect x="307.2" y="142.8" width="3.9" height="3.9"/>
	<rect x="315.1" y="142.8" width="3.9" height="3.9"/>
	<rect x="319" y="142.8" width="3.9" height="3.9"/>
	<rect x="334.7" y="142.8" width="3.9" height="3.9"/>
	<rect x="338.6" y="142.8" width="3.9" height="3.9"/>
	<rect x="350.4" y="142.8" width="3.9" height="3.9"/>
	<rect x="354.3" y="142.8" width="3.9" height="3.9"/>
	<rect x="366.1" y="142.8" width="3.9" height="3.9"/>
	<rect x="224.8" y="146.7" width="3.9" height="3.9"/>
	<rect x="228.8" y="146.7" width="3.9" height="3.9"/>
	<rect x="232.7" y="146.7" width="3.9" height="3.9"/>
	<rect x="236.6" y="146.7" width="3.9" height="3.9"/>
	<rect x="240.5" y="146.7" width="3.9" height="3.9"/>
	<rect x="244.5" y="146.7" width="3.9" height="3.9"/>
	<rect x="248.4" y="146.7" width="3.9" height="3.9"/>
	<rect x="256.2" y="146.7" width="3.9" height="3.9"/>
	<rect x="264.1" y="146.7" width="3.9" height="3.9"/>
	<rect x="268" y="146.7" width="3.9" height="3.9"/>
	<rect x="283.7" y="146.7" width="3.9" height="3.9"/>
	<rect x="303.3" y="146.7" width="3.9" height="3.9"/>
	<rect x="311.1" y="146.7" width="3.9" height="3.9"/>
	<rect x="322.9" y="146.7" width="3.9" height="3.9"/>
	<rect x="326.8" y="146.7" width="3.9" height="3.9"/>
	<rect x="338.6" y="146.7" width="3.9" height="3.9"/>
	<rect x="346.4" y="146.7" width="3.9" height="3.9"/>
	<rect x="350.4" y="146.7" width="3.9" height="3.9"/>
	<rect x="354.3" y="146.7" width="3.9" height="3.9"/>
	<rect x="358.2" y="146.7" width="3.9" height="3.9"/>
	<rect x="362.1" y="146.7" width="3.9" height="3.9"/>
	<rect x="366.1" y="146.7" width="3.9" height="3.9"/>
</g>
<g>
	<path class="st1" d="M449.9,40.6c-0.6-0.4-1.1-0.8-1.5-1.3c-0.5-0.5-0.9-1.1-1.3-1.7c-0.9-1.3-1.6-2.7-2.1-4.2
		c-0.6-1.8-0.9-3.4-0.9-5.1c0-1.8,0.4-3.4,1.2-4.8c0.6-1.1,1.4-1.9,2.5-2.5c1-0.6,2.2-1,3.4-1c0.4,0,0.9,0.1,1.3,0.2
		c0.3,0.1,0.8,0.2,1.3,0.4c0.6,0.2,1,0.4,1.1,0.4c0.4,0.1,0.7,0.2,0.9,0.2c0.2,0,0.5-0.1,0.8-0.1c0.2-0.1,0.5-0.2,1-0.4
		c0.5-0.2,0.8-0.3,1.1-0.4c0.4-0.1,0.9-0.2,1.2-0.3c0.4-0.1,0.9-0.1,1.4-0.1c0.8,0.1,1.6,0.2,2.3,0.5c1.2,0.5,2.2,1.2,2.9,2.3
		c-0.3,0.2-0.6,0.4-0.9,0.6c-0.6,0.5-1.1,1.1-1.5,1.8c-0.5,0.9-0.8,1.9-0.8,2.9c0,1.3,0.3,2.4,1,3.3c0.5,0.7,1.1,1.3,1.8,1.8
		c0.4,0.2,0.7,0.4,1,0.5c-0.1,0.4-0.3,0.9-0.5,1.3c-0.4,0.9-0.9,1.8-1.5,2.7c-0.5,0.7-0.9,1.3-1.2,1.6c-0.5,0.6-0.9,1-1.4,1.3
		c-0.5,0.3-1.1,0.5-1.7,0.5c-0.4,0-0.8,0-1.2-0.1c-0.3-0.1-0.7-0.2-1-0.4c-0.3-0.2-0.7-0.3-1.1-0.4c-0.9-0.2-1.8-0.2-2.7,0
		c-0.4,0.1-0.7,0.2-1.1,0.4c-0.5,0.2-0.8,0.3-1,0.4c-0.4,0.1-0.8,0.2-1.2,0.2C451,41.2,450.4,41,449.9,40.6L449.9,40.6z"/>
	<path class="st1" d="M458,19.1c-0.8,0.4-1.6,0.6-2.3,0.5c-0.1-0.8,0-1.5,0.3-2.4c0.6-1.5,1.7-2.7,3.1-3.4c0.8-0.4,1.5-0.6,2.2-0.6
		c0.1,0.8,0,1.6-0.3,2.4c-0.3,0.7-0.7,1.4-1.2,2C459.3,18.2,458.7,18.7,458,19.1L458,19.1L458,19.1z"/>
</g>
<g>
	<rect x="673.9" y="0.9" class="st1" width="157" height="157"/>
	<rect x="684.1" y="11.1" width="4.7" height="4.7"/>
	<rect x="688.8" y="11.1" width="4.7" height="4.7"/>
	<rect x="693.5" y="11.1" width="4.7" height="4.7"/>
	<rect x="698.3" y="11.1" width="4.7" height="4.7"/>
	<rect x="703" y="11.1" width="4.7" height="4.7"/>
	<rect x="707.7" y="11.1" width="4.7" height="4.7"/>
	<rect x="712.4" y="11.1" width="4.7" height="4.7"/>
	<rect x="726.5" y="11.1" width="4.7" height="4.7"/>
	<rect x="735.9" y="11.1" width="4.7" height="4.7"/>
	<rect x="740.6" y="11.1" width="4.7" height="4.7"/>
	<rect x="754.8" y="11.1" width="4.7" height="4.7"/>
	<rect x="764.2" y="11.1" width="4.7" height="4.7"/>
	<rect x="768.9" y="11.1" width="4.7" height="4.7"/>
	<rect x="773.6" y="11.1" width="4.7" height="4.7"/>
	<rect x="778.3" y="11.1" width="4.7" height="4.7"/>
	<rect x="787.7" y="11.1" width="4.7" height="4.7"/>
	<rect x="792.5" y="11.1" width="4.7" height="4.7"/>
	<rect x="797.2" y="11.1" width="4.7" height="4.7"/>
	<rect x="801.9" y="11.1" width="4.7" height="4.7"/>
	<rect x="806.6" y="11.1" width="4.7" height="4.7"/>
	<rect x="811.3" y="11.1" width="4.7" height="4.7"/>
	<rect x="816" y="11.1" width="4.7" height="4.7"/>
	<rect x="684.1" y="15.8" width="4.7" height="4.7"/>
	<rect x="712.4" y="15.8" width="4.7" height="4.7"/>
	<rect x="721.8" y="15.8" width="4.7" height="4.7"/>
	<rect x="726.5" y="15.8" width="4.7" height="4.7"/>
	<rect x="731.2" y="15.8" width="4.7" height="4.7"/>
	<rect x="735.9" y="15.8" width="4.7" height="4.7"/>
	<rect x="740.6" y="15.8" width="4.7" height="4.7"/>
	<rect x="745.3" y="15.8" width="4.7" height="4.7"/>
	<rect x="754.8" y="15.8" width="4.7" height="4.7"/>
	<rect x="759.5" y="15.8" width="4.7" height="4.7"/>
	<rect x="768.9" y="15.8" width="4.7" height="4.7"/>
	<rect x="778.3" y="15.8" width="4.7" height="4.7"/>
	<rect x="787.7" y="15.8" width="4.7" height="4.7"/>
	<rect x="816" y="15.8" width="4.7" height="4.7"/>
	<rect x="684.1" y="20.5" width="4.7" height="4.7"/>
	<rect x="693.5" y="20.5" width="4.7" height="4.7"/>
	<rect x="698.3" y="20.5" width="4.7" height="4.7"/>
	<rect x="703" y="20.5" width="4.7" height="4.7"/>
	<rect x="712.4" y="20.5" width="4.7" height="4.7"/>
	<rect x="721.8" y="20.5" width="4.7" height="4.7"/>
	<rect x="731.2" y="20.5" width="4.7" height="4.7"/>
	<rect x="735.9" y="20.5" width="4.7" height="4.7"/>
	<rect x="740.6" y="20.5" width="4.7" height="4.7"/>
	<rect x="764.2" y="20.5" width="4.7" height="4.7"/>
	<rect x="778.3" y="20.5" width="4.7" height="4.7"/>
	<rect x="787.7" y="20.5" width="4.7" height="4.7"/>
	<rect x="797.2" y="20.5" width="4.7" height="4.7"/>
	<rect x="801.9" y="20.5" width="4.7" height="4.7"/>
	<rect x="806.6" y="20.5" width="4.7" height="4.7"/>
	<rect x="816" y="20.5" width="4.7" height="4.7"/>
	<rect x="684.1" y="25.2" width="4.7" height="4.7"/>
	<rect x="693.5" y="25.2" width="4.7" height="4.7"/>
	<rect x="698.3" y="25.2" width="4.7" height="4.7"/>
	<rect x="703" y="25.2" width="4.7" height="4.7"/>
	<rect x="712.4" y="25.2" width="4.7" height="4.7"/>
	<rect x="726.5" y="25.2" width="4.7" height="4.7"/>
	<rect x="735.9" y="25.2" width="4.7" height="4.7"/>
	<rect x="740.6" y="25.2" width="4.7" height="4.7"/>
	<rect x="750.1" y="25.2" width="4.7" height="4.7"/>
	<rect x="754.8" y="25.2" width="4.7" height="4.7"/>
	<rect x="768.9" y="25.2" width="4.7" height="4.7"/>
	<rect x="787.7" y="25.2" width="4.7" height="4.7"/>
	<rect x="797.2" y="25.2" width="4.7" height="4.7"/>
	<rect x="801.9" y="25.2" width="4.7" height="4.7"/>
	<rect x="806.6" y="25.2" width="4.7" height="4.7"/>
	<rect x="816" y="25.2" width="4.7" height="4.7"/>
	<rect x="684.1" y="29.9" width="4.7" height="4.7"/>
	<rect x="693.5" y="29.9" width="4.7" height="4.7"/>
	<rect x="698.3" y="29.9" width="4.7" height="4.7"/>
	<rect x="703" y="29.9" width="4.7" height="4.7"/>
	<rect x="712.4" y="29.9" width="4.7" height="4.7"/>
	<rect x="721.8" y="29.9" width="4.7" height="4.7"/>
	<rect x="726.5" y="29.9" width="4.7" height="4.7"/>
	<rect x="735.9" y="29.9" width="4.7" height="4.7"/>
	<rect x="740.6" y="29.9" width="4.7" height="4.7"/>
	<rect x="750.1" y="29.9" width="4.7" height="4.7"/>
	<rect x="754.8" y="29.9" width="4.7" height="4.7"/>
	<rect x="759.5" y="29.9" width="4.7" height="4.7"/>
	<rect x="768.9" y="29.9" width="4.7" height="4.7"/>
	<rect x="787.7" y="29.9" width="4.7" height="4.7"/>
	<rect x="797.2" y="29.9" width="4.7" height="4.7"/>
	<rect x="801.9" y="29.9" width="4.7" height="4.7"/>
	<rect x="806.6" y="29.9" width="4.7" height="4.7"/>
	<rect x="816" y="29.9" width="4.7" height="4.7"/>
	<rect x="684.1" y="34.6" width="4.7" height="4.7"/>
	<rect x="712.4" y="34.6" width="4.7" height="4.7"/>
	<rect x="721.8" y="34.6" width="4.7" height="4.7"/>
	<rect x="731.2" y="34.6" width="4.7" height="4.7"/>
	<rect x="754.8" y="34.6" width="4.7" height="4.7"/>
	<rect x="759.5" y="34.6" width="4.7" height="4.7"/>
	<rect x="764.2" y="34.6" width="4.7" height="4.7"/>
	<rect x="773.6" y="34.6" width="4.7" height="4.7"/>
	<rect x="787.7" y="34.6" width="4.7" height="4.7"/>
	<rect x="816" y="34.6" width="4.7" height="4.7"/>
	<rect x="684.1" y="39.3" width="4.7" height="4.7"/>
	<rect x="688.8" y="39.3" width="4.7" height="4.7"/>
	<rect x="693.5" y="39.3" width="4.7" height="4.7"/>
	<rect x="698.3" y="39.3" width="4.7" height="4.7"/>
	<rect x="703" y="39.3" width="4.7" height="4.7"/>
	<rect x="707.7" y="39.3" width="4.7" height="4.7"/>
	<rect x="712.4" y="39.3" width="4.7" height="4.7"/>
	<rect x="721.8" y="39.3" width="4.7" height="4.7"/>
	<rect x="731.2" y="39.3" width="4.7" height="4.7"/>
	<rect x="740.6" y="39.3" width="4.7" height="4.7"/>
	<rect x="750.1" y="39.3" width="4.7" height="4.7"/>
	<rect x="759.5" y="39.3" width="4.7" height="4.7"/>
	<rect x="768.9" y="39.3" width="4.7" height="4.7"/>
	<rect x="778.3" y="39.3" width="4.7" height="4.7"/>
	<rect x="787.7" y="39.3" width="4.7" height="4.7"/>
	<rect x="792.5" y="39.3" width="4.7" height="4.7"/>
	<rect x="797.2" y="39.3" width="4.7" height="4.7"/>
	<rect x="801.9" y="39.3" width="4.7" height="4.7"/>
	<rect x="806.6" y="39.3" width="4.7" height="4.7"/>
	<rect x="811.3" y="39.3" width="4.7" height="4.7"/>
	<rect x="816" y="39.3" width="4.7" height="4.7"/>
	<rect x="721.8" y="44" width="4.7" height="4.7"/>
	<rect x="731.2" y="44" width="4.7" height="4.7"/>
	<rect x="735.9" y="44" width="4.7" height="4.7"/>
	<rect x="750.1" y="44" width="4.7" height="4.7"/>
	<rect x="754.8" y="44" width="4.7" height="4.7"/>
	<rect x="759.5" y="44" width="4.7" height="4.7"/>
	<rect x="764.2" y="44" width="4.7" height="4.7"/>
	<rect x="773.6" y="44" width="4.7" height="4.7"/>
	<rect x="778.3" y="44" width="4.7" height="4.7"/>
	<rect x="684.1" y="48.8" width="4.7" height="4.7"/>
	<rect x="688.8" y="48.8" width="4.7" height="4.7"/>
	<rect x="698.3" y="48.8" width="4.7" height="4.7"/>
	<rect x="712.4" y="48.8" width="4.7" height="4.7"/>
	<rect x="717.1" y="48.8" width="4.7" height="4.7"/>
	<rect x="735.9" y="48.8" width="4.7" height="4.7"/>
	<rect x="745.3" y="48.8" width="4.7" height="4.7"/>
	<rect x="759.5" y="48.8" width="4.7" height="4.7"/>
	<rect x="773.6" y="48.8" width="4.7" height="4.7"/>
	<rect x="787.7" y="48.8" width="4.7" height="4.7"/>
	<rect x="792.5" y="48.8" width="4.7" height="4.7"/>
	<rect x="797.2" y="48.8" width="4.7" height="4.7"/>
	<rect x="806.6" y="48.8" width="4.7" height="4.7"/>
	<rect x="811.3" y="48.8" width="4.7" height="4.7"/>
	<rect x="688.8" y="53.5" width="4.7" height="4.7"/>
	<rect x="693.5" y="53.5" width="4.7" height="4.7"/>
	<rect x="698.3" y="53.5" width="4.7" height="4.7"/>
	<rect x="703" y="53.5" width="4.7" height="4.7"/>
	<rect x="717.1" y="53.5" width="4.7" height="4.7"/>
	<rect x="721.8" y="53.5" width="4.7" height="4.7"/>
	<rect x="726.5" y="53.5" width="4.7" height="4.7"/>
	<rect x="759.5" y="53.5" width="4.7" height="4.7"/>
	<rect x="764.2" y="53.5" width="4.7" height="4.7"/>
	<rect x="768.9" y="53.5" width="4.7" height="4.7"/>
	<rect x="778.3" y="53.5" width="4.7" height="4.7"/>
	<rect x="783" y="53.5" width="4.7" height="4.7"/>
	<rect x="787.7" y="53.5" width="4.7" height="4.7"/>
	<rect x="792.5" y="53.5" width="4.7" height="4.7"/>
	<rect x="801.9" y="53.5" width="4.7" height="4.7"/>
	<rect x="816" y="53.5" width="4.7" height="4.7"/>
	<rect x="684.1" y="58.2" width="4.7" height="4.7"/>
	<rect x="698.3" y="58.2" width="4.7" height="4.7"/>
	<rect x="703" y="58.2" width="4.7" height="4.7"/>
	<rect x="707.7" y="58.2" width="4.7" height="4.7"/>
	<rect x="712.4" y="58.2" width="4.7" height="4.7"/>
	<rect x="721.8" y="58.2" width="4.7" height="4.7"/>
	<rect x="759.5" y="58.2" width="4.7" height="4.7"/>
	<rect x="764.2" y="58.2" width="4.7" height="4.7"/>
	<rect x="768.9" y="58.2" width="4.7" height="4.7"/>
	<rect x="773.6" y="58.2" width="4.7" height="4.7"/>
	<rect x="783" y="58.2" width="4.7" height="4.7"/>
	<rect x="787.7" y="58.2" width="4.7" height="4.7"/>
	<rect x="792.5" y="58.2" width="4.7" height="4.7"/>
	<rect x="801.9" y="58.2" width="4.7" height="4.7"/>
	<rect x="806.6" y="58.2" width="4.7" height="4.7"/>
	<rect x="811.3" y="58.2" width="4.7" height="4.7"/>
	<rect x="693.5" y="62.9" width="4.7" height="4.7"/>
	<rect x="703" y="62.9" width="4.7" height="4.7"/>
	<rect x="707.7" y="62.9" width="4.7" height="4.7"/>
	<rect x="721.8" y="62.9" width="4.7" height="4.7"/>
	<rect x="726.5" y="62.9" width="4.7" height="4.7"/>
	<rect x="731.2" y="62.9" width="4.7" height="4.7"/>
	<rect x="745.3" y="62.9" width="4.7" height="4.7"/>
	<rect x="754.8" y="62.9" width="4.7" height="4.7"/>
	<rect x="759.5" y="62.9" width="4.7" height="4.7"/>
	<rect x="778.3" y="62.9" width="4.7" height="4.7"/>
	<rect x="783" y="62.9" width="4.7" height="4.7"/>
	<rect x="787.7" y="62.9" width="4.7" height="4.7"/>
	<rect x="806.6" y="62.9" width="4.7" height="4.7"/>
	<rect x="811.3" y="62.9" width="4.7" height="4.7"/>
	<rect x="684.1" y="67.6" width="4.7" height="4.7"/>
	<rect x="698.3" y="67.6" width="4.7" height="4.7"/>
	<rect x="707.7" y="67.6" width="4.7" height="4.7"/>
	<rect x="712.4" y="67.6" width="4.7" height="4.7"/>
	<rect x="717.1" y="67.6" width="4.7" height="4.7"/>
	<rect x="721.8" y="67.6" width="4.7" height="4.7"/>
	<rect x="731.2" y="67.6" width="4.7" height="4.7"/>
	<rect x="745.3" y="67.6" width="4.7" height="4.7"/>
	<rect x="764.2" y="67.6" width="4.7" height="4.7"/>
	<rect x="768.9" y="67.6" width="4.7" height="4.7"/>
	<rect x="778.3" y="67.6" width="4.7" height="4.7"/>
	<rect x="783" y="67.6" width="4.7" height="4.7"/>
	<rect x="787.7" y="67.6" width="4.7" height="4.7"/>
	<rect x="792.5" y="67.6" width="4.7" height="4.7"/>
	<rect x="801.9" y="67.6" width="4.7" height="4.7"/>
	<rect x="811.3" y="67.6" width="4.7" height="4.7"/>
	<rect x="816" y="67.6" width="4.7" height="4.7"/>
	<rect x="684.1" y="72.3" width="4.7" height="4.7"/>
	<rect x="693.5" y="72.3" width="4.7" height="4.7"/>
	<rect x="698.3" y="72.3" width="4.7" height="4.7"/>
	<rect x="707.7" y="72.3" width="4.7" height="4.7"/>
	<rect x="721.8" y="72.3" width="4.7" height="4.7"/>
	<rect x="726.5" y="72.3" width="4.7" height="4.7"/>
	<rect x="745.3" y="72.3" width="4.7" height="4.7"/>
	<rect x="773.6" y="72.3" width="4.7" height="4.7"/>
	<rect x="778.3" y="72.3" width="4.7" height="4.7"/>
	<rect x="783" y="72.3" width="4.7" height="4.7"/>
	<rect x="688.8" y="77" width="4.7" height="4.7"/>
	<rect x="698.3" y="77" width="4.7" height="4.7"/>
	<rect x="712.4" y="77" width="4.7" height="4.7"/>
	<rect x="717.1" y="77" width="4.7" height="4.7"/>
	<rect x="726.5" y="77" width="4.7" height="4.7"/>
	<rect x="731.2" y="77" width="4.7" height="4.7"/>
	<rect x="735.9" y="77" width="4.7" height="4.7"/>
	<rect x="787.7" y="77" width="4.7" height="4.7"/>
	<rect x="792.5" y="77" width="4.7" height="4.7"/>
	<rect x="797.2" y="77" width="4.7" height="4.7"/>
	<rect x="801.9" y="77" width="4.7" height="4.7"/>
	<rect x="806.6" y="77" width="4.7" height="4.7"/>
	<rect x="811.3" y="77" width="4.7" height="4.7"/>
	<rect x="816" y="77" width="4.7" height="4.7"/>
	<rect x="698.3" y="81.7" width="4.7" height="4.7"/>
	<rect x="707.7" y="81.7" width="4.7" height="4.7"/>
	<rect x="717.1" y="81.7" width="4.7" height="4.7"/>
	<rect x="721.8" y="81.7" width="4.7" height="4.7"/>
	<rect x="726.5" y="81.7" width="4.7" height="4.7"/>
	<rect x="735.9" y="81.7" width="4.7" height="4.7"/>
	<rect x="745.3" y="81.7" width="4.7" height="4.7"/>
	<rect x="750.1" y="81.7" width="4.7" height="4.7"/>
	<rect x="754.8" y="81.7" width="4.7" height="4.7"/>
	<rect x="764.2" y="81.7" width="4.7" height="4.7"/>
	<rect x="768.9" y="81.7" width="4.7" height="4.7"/>
	<rect x="778.3" y="81.7" width="4.7" height="4.7"/>
	<rect x="792.5" y="81.7" width="4.7" height="4.7"/>
	<rect x="801.9" y="81.7" width="4.7" height="4.7"/>
	<rect x="811.3" y="81.7" width="4.7" height="4.7"/>
	<rect x="688.8" y="86.4" width="4.7" height="4.7"/>
	<rect x="693.5" y="86.4" width="4.7" height="4.7"/>
	<rect x="707.7" y="86.4" width="4.7" height="4.7"/>
	<rect x="712.4" y="86.4" width="4.7" height="4.7"/>
	<rect x="735.9" y="86.4" width="4.7" height="4.7"/>
	<rect x="759.5" y="86.4" width="4.7" height="4.7"/>
	<rect x="764.2" y="86.4" width="4.7" height="4.7"/>
	<rect x="778.3" y="86.4" width="4.7" height="4.7"/>
	<rect x="783" y="86.4" width="4.7" height="4.7"/>
	<rect x="792.5" y="86.4" width="4.7" height="4.7"/>
	<rect x="811.3" y="86.4" width="4.7" height="4.7"/>
	<rect x="688.8" y="91.1" width="4.7" height="4.7"/>
	<rect x="698.3" y="91.1" width="4.7" height="4.7"/>
	<rect x="703" y="91.1" width="4.7" height="4.7"/>
	<rect x="707.7" y="91.1" width="4.7" height="4.7"/>
	<rect x="717.1" y="91.1" width="4.7" height="4.7"/>
	<rect x="721.8" y="91.1" width="4.7" height="4.7"/>
	<rect x="726.5" y="91.1" width="4.7" height="4.7"/>
	<rect x="731.2" y="91.1" width="4.7" height="4.7"/>
	<rect x="735.9" y="91.1" width="4.7" height="4.7"/>
	<rect x="745.3" y="91.1" width="4.7" height="4.7"/>
	<rect x="750.1" y="91.1" width="4.7" height="4.7"/>
	<rect x="759.5" y="91.1" width="4.7" height="4.7"/>
	<rect x="778.3" y="91.1" width="4.7" height="4.7"/>
	<rect x="787.7" y="91.1" width="4.7" height="4.7"/>
	<rect x="792.5" y="91.1" width="4.7" height="4.7"/>
	<rect x="801.9" y="91.1" width="4.7" height="4.7"/>
	<rect x="816" y="91.1" width="4.7" height="4.7"/>
	<rect x="684.1" y="95.9" width="4.7" height="4.7"/>
	<rect x="698.3" y="95.9" width="4.7" height="4.7"/>
	<rect x="707.7" y="95.9" width="4.7" height="4.7"/>
	<rect x="712.4" y="95.9" width="4.7" height="4.7"/>
	<rect x="726.5" y="95.9" width="4.7" height="4.7"/>
	<rect x="731.2" y="95.9" width="4.7" height="4.7"/>
	<rect x="768.9" y="95.9" width="4.7" height="4.7"/>
	<rect x="787.7" y="95.9" width="4.7" height="4.7"/>
	<rect x="797.2" y="95.9" width="4.7" height="4.7"/>
	<rect x="811.3" y="95.9" width="4.7" height="4.7"/>
	<rect x="816" y="95.9" width="4.7" height="4.7"/>
	<rect x="693.5" y="100.6" width="4.7" height="4.7"/>
	<rect x="703" y="100.6" width="4.7" height="4.7"/>
	<rect x="707.7" y="100.6" width="4.7" height="4.7"/>
	<rect x="717.1" y="100.6" width="4.7" height="4.7"/>
	<rect x="726.5" y="100.6" width="4.7" height="4.7"/>
	<rect x="731.2" y="100.6" width="4.7" height="4.7"/>
	<rect x="735.9" y="100.6" width="4.7" height="4.7"/>
	<rect x="754.8" y="100.6" width="4.7" height="4.7"/>
	<rect x="759.5" y="100.6" width="4.7" height="4.7"/>
	<rect x="764.2" y="100.6" width="4.7" height="4.7"/>
	<rect x="768.9" y="100.6" width="4.7" height="4.7"/>
	<rect x="778.3" y="100.6" width="4.7" height="4.7"/>
	<rect x="783" y="100.6" width="4.7" height="4.7"/>
	<rect x="787.7" y="100.6" width="4.7" height="4.7"/>
	<rect x="792.5" y="100.6" width="4.7" height="4.7"/>
	<rect x="811.3" y="100.6" width="4.7" height="4.7"/>
	<rect x="816" y="100.6" width="4.7" height="4.7"/>
	<rect x="684.1" y="105.3" width="4.7" height="4.7"/>
	<rect x="712.4" y="105.3" width="4.7" height="4.7"/>
	<rect x="726.5" y="105.3" width="4.7" height="4.7"/>
	<rect x="745.3" y="105.3" width="4.7" height="4.7"/>
	<rect x="754.8" y="105.3" width="4.7" height="4.7"/>
	<rect x="759.5" y="105.3" width="4.7" height="4.7"/>
	<rect x="778.3" y="105.3" width="4.7" height="4.7"/>
	<rect x="783" y="105.3" width="4.7" height="4.7"/>
	<rect x="787.7" y="105.3" width="4.7" height="4.7"/>
	<rect x="792.5" y="105.3" width="4.7" height="4.7"/>
	<rect x="797.2" y="105.3" width="4.7" height="4.7"/>
	<rect x="806.6" y="105.3" width="4.7" height="4.7"/>
	<rect x="721.8" y="110" width="4.7" height="4.7"/>
	<rect x="731.2" y="110" width="4.7" height="4.7"/>
	<rect x="745.3" y="110" width="4.7" height="4.7"/>
	<rect x="750.1" y="110" width="4.7" height="4.7"/>
	<rect x="759.5" y="110" width="4.7" height="4.7"/>
	<rect x="764.2" y="110" width="4.7" height="4.7"/>
	<rect x="768.9" y="110" width="4.7" height="4.7"/>
	<rect x="773.6" y="110" width="4.7" height="4.7"/>
	<rect x="778.3" y="110" width="4.7" height="4.7"/>
	<rect x="797.2" y="110" width="4.7" height="4.7"/>
	<rect x="806.6" y="110" width="4.7" height="4.7"/>
	<rect x="811.3" y="110" width="4.7" height="4.7"/>
	<rect x="816" y="110" width="4.7" height="4.7"/>
	<rect x="684.1" y="114.7" width="4.7" height="4.7"/>
	<rect x="688.8" y="114.7" width="4.7" height="4.7"/>
	<rect x="693.5" y="114.7" width="4.7" height="4.7"/>
	<rect x="698.3" y="114.7" width="4.7" height="4.7"/>
	<rect x="703" y="114.7" width="4.7" height="4.7"/>
	<rect x="707.7" y="114.7" width="4.7" height="4.7"/>
	<rect x="712.4" y="114.7" width="4.7" height="4.7"/>
	<rect x="721.8" y="114.7" width="4.7" height="4.7"/>
	<rect x="726.5" y="114.7" width="4.7" height="4.7"/>
	<rect x="731.2" y="114.7" width="4.7" height="4.7"/>
	<rect x="740.6" y="114.7" width="4.7" height="4.7"/>
	<rect x="745.3" y="114.7" width="4.7" height="4.7"/>
	<rect x="750.1" y="114.7" width="4.7" height="4.7"/>
	<rect x="759.5" y="114.7" width="4.7" height="4.7"/>
	<rect x="768.9" y="114.7" width="4.7" height="4.7"/>
	<rect x="778.3" y="114.7" width="4.7" height="4.7"/>
	<rect x="787.7" y="114.7" width="4.7" height="4.7"/>
	<rect x="797.2" y="114.7" width="4.7" height="4.7"/>
	<rect x="811.3" y="114.7" width="4.7" height="4.7"/>
	<rect x="684.1" y="119.4" width="4.7" height="4.7"/>
	<rect x="712.4" y="119.4" width="4.7" height="4.7"/>
	<rect x="726.5" y="119.4" width="4.7" height="4.7"/>
	<rect x="735.9" y="119.4" width="4.7" height="4.7"/>
	<rect x="745.3" y="119.4" width="4.7" height="4.7"/>
	<rect x="759.5" y="119.4" width="4.7" height="4.7"/>
	<rect x="778.3" y="119.4" width="4.7" height="4.7"/>
	<rect x="797.2" y="119.4" width="4.7" height="4.7"/>
	<rect x="801.9" y="119.4" width="4.7" height="4.7"/>
	<rect x="806.6" y="119.4" width="4.7" height="4.7"/>
	<rect x="816" y="119.4" width="4.7" height="4.7"/>
	<rect x="684.1" y="124.1" width="4.7" height="4.7"/>
	<rect x="693.5" y="124.1" width="4.7" height="4.7"/>
	<rect x="698.3" y="124.1" width="4.7" height="4.7"/>
	<rect x="703" y="124.1" width="4.7" height="4.7"/>
	<rect x="712.4" y="124.1" width="4.7" height="4.7"/>
	<rect x="726.5" y="124.1" width="4.7" height="4.7"/>
	<rect x="731.2" y="124.1" width="4.7" height="4.7"/>
	<rect x="745.3" y="124.1" width="4.7" height="4.7"/>
	<rect x="750.1" y="124.1" width="4.7" height="4.7"/>
	<rect x="764.2" y="124.1" width="4.7" height="4.7"/>
	<rect x="778.3" y="124.1" width="4.7" height="4.7"/>
	<rect x="783" y="124.1" width="4.7" height="4.7"/>
	<rect x="787.7" y="124.1" width="4.7" height="4.7"/>
	<rect x="792.5" y="124.1" width="4.7" height="4.7"/>
	<rect x="797.2" y="124.1" width="4.7" height="4.7"/>
	<rect x="816" y="124.1" width="4.7" height="4.7"/>
	<rect x="684.1" y="128.8" width="4.7" height="4.7"/>
	<rect x="693.5" y="128.8" width="4.7" height="4.7"/>
	<rect x="698.3" y="128.8" width="4.7" height="4.7"/>
	<rect x="703" y="128.8" width="4.7" height="4.7"/>
	<rect x="712.4" y="128.8" width="4.7" height="4.7"/>
	<rect x="721.8" y="128.8" width="4.7" height="4.7"/>
	<rect x="726.5" y="128.8" width="4.7" height="4.7"/>
	<rect x="750.1" y="128.8" width="4.7" height="4.7"/>
	<rect x="764.2" y="128.8" width="4.7" height="4.7"/>
	<rect x="768.9" y="128.8" width="4.7" height="4.7"/>
	<rect x="787.7" y="128.8" width="4.7" height="4.7"/>
	<rect x="797.2" y="128.8" width="4.7" height="4.7"/>
	<rect x="801.9" y="128.8" width="4.7" height="4.7"/>
	<rect x="806.6" y="128.8" width="4.7" height="4.7"/>
	<rect x="684.1" y="133.5" width="4.7" height="4.7"/>
	<rect x="693.5" y="133.5" width="4.7" height="4.7"/>
	<rect x="698.3" y="133.5" width="4.7" height="4.7"/>
	<rect x="703" y="133.5" width="4.7" height="4.7"/>
	<rect x="712.4" y="133.5" width="4.7" height="4.7"/>
	<rect x="731.2" y="133.5" width="4.7" height="4.7"/>
	<rect x="735.9" y="133.5" width="4.7" height="4.7"/>
	<rect x="740.6" y="133.5" width="4.7" height="4.7"/>
	<rect x="750.1" y="133.5" width="4.7" height="4.7"/>
	<rect x="764.2" y="133.5" width="4.7" height="4.7"/>
	<rect x="768.9" y="133.5" width="4.7" height="4.7"/>
	<rect x="773.6" y="133.5" width="4.7" height="4.7"/>
	<rect x="778.3" y="133.5" width="4.7" height="4.7"/>
	<rect x="783" y="133.5" width="4.7" height="4.7"/>
	<rect x="797.2" y="133.5" width="4.7" height="4.7"/>
	<rect x="801.9" y="133.5" width="4.7" height="4.7"/>
	<rect x="806.6" y="133.5" width="4.7" height="4.7"/>
	<rect x="816" y="133.5" width="4.7" height="4.7"/>
	<rect x="684.1" y="138.2" width="4.7" height="4.7"/>
	<rect x="712.4" y="138.2" width="4.7" height="4.7"/>
	<rect x="721.8" y="138.2" width="4.7" height="4.7"/>
	<rect x="726.5" y="138.2" width="4.7" height="4.7"/>
	<rect x="740.6" y="138.2" width="4.7" height="4.7"/>
	<rect x="745.3" y="138.2" width="4.7" height="4.7"/>
	<rect x="759.5" y="138.2" width="4.7" height="4.7"/>
	<rect x="764.2" y="138.2" width="4.7" height="4.7"/>
	<rect x="773.6" y="138.2" width="4.7" height="4.7"/>
	<rect x="778.3" y="138.2" width="4.7" height="4.7"/>
	<rect x="783" y="138.2" width="4.7" height="4.7"/>
	<rect x="811.3" y="138.2" width="4.7" height="4.7"/>
	<rect x="684.1" y="143" width="4.7" height="4.7"/>
	<rect x="688.8" y="143" width="4.7" height="4.7"/>
	<rect x="693.5" y="143" width="4.7" height="4.7"/>
	<rect x="698.3" y="143" width="4.7" height="4.7"/>
	<rect x="703" y="143" width="4.7" height="4.7"/>
	<rect x="707.7" y="143" width="4.7" height="4.7"/>
	<rect x="712.4" y="143" width="4.7" height="4.7"/>
	<rect x="721.8" y="143" width="4.7" height="4.7"/>
	<rect x="731.2" y="143" width="4.7" height="4.7"/>
	<rect x="750.1" y="143" width="4.7" height="4.7"/>
	<rect x="754.8" y="143" width="4.7" height="4.7"/>
	<rect x="764.2" y="143" width="4.7" height="4.7"/>
	<rect x="768.9" y="143" width="4.7" height="4.7"/>
	<rect x="778.3" y="143" width="4.7" height="4.7"/>
	<rect x="797.2" y="143" width="4.7" height="4.7"/>
	<rect x="801.9" y="143" width="4.7" height="4.7"/>
	<rect x="811.3" y="143" width="4.7" height="4.7"/>
</g>
</svg>
