<?xml version="1.0" encoding="utf-8"?>
<!-- Generator: Adobe Illustrator 21.0.0, SVG Export Plug-In . SVG Version: 6.00 Build 0)  -->
<svg version="1.1" id="Camada_1" xmlns="http://www.w3.org/2000/svg" xmlns:xlink="http://www.w3.org/1999/xlink" x="0px" y="0px"
	 viewBox="0 0 156.9 156.9" style="enable-background:new 0 0 156.9 156.9;" xml:space="preserve">
<style type="text/css">
	.st0{fill:url(#SVGID_1_);}
	.st1{fill:#FFFFFF;}
	.st2{fill:url(#SVGID_2_);}
</style>
<g>
	<rect x="-0.1" y="0.9" class="st1" width="157" height="157"/>
	<rect x="10.1" y="11.1" width="4.7" height="4.7"/>
	<rect x="14.8" y="11.1" width="4.7" height="4.7"/>
	<rect x="19.5" y="11.1" width="4.7" height="4.7"/>
	<rect x="24.2" y="11.1" width="4.7" height="4.7"/>
	<rect x="29" y="11.1" width="4.7" height="4.7"/>
	<rect x="33.7" y="11.1" width="4.7" height="4.7"/>
	<rect x="38.4" y="11.1" width="4.7" height="4.7"/>
	<rect x="52.5" y="11.1" width="4.7" height="4.7"/>
	<rect x="61.9" y="11.1" width="4.7" height="4.7"/>
	<rect x="66.6" y="11.1" width="4.7" height="4.7"/>
	<rect x="80.8" y="11.1" width="4.7" height="4.7"/>
	<rect x="90.2" y="11.1" width="4.7" height="4.7"/>
	<rect x="94.9" y="11.1" width="4.7" height="4.7"/>
	<rect x="99.6" y="11.1" width="4.7" height="4.7"/>
	<rect x="104.3" y="11.1" width="4.7" height="4.7"/>
	<rect x="113.7" y="11.1" width="4.7" height="4.7"/>
	<rect x="118.4" y="11.1" width="4.7" height="4.7"/>
	<rect x="123.2" y="11.1" width="4.7" height="4.7"/>
	<rect x="127.9" y="11.1" width="4.7" height="4.7"/>
	<rect x="132.6" y="11.1" width="4.7" height="4.7"/>
	<rect x="137.3" y="11.1" width="4.7" height="4.7"/>
	<rect x="142" y="11.1" width="4.7" height="4.7"/>
	<rect x="10.1" y="15.8" width="4.7" height="4.7"/>
	<rect x="38.4" y="15.8" width="4.7" height="4.7"/>
	<rect x="47.8" y="15.8" width="4.7" height="4.7"/>
	<rect x="52.5" y="15.8" width="4.7" height="4.7"/>
	<rect x="57.2" y="15.8" width="4.7" height="4.7"/>
	<rect x="61.9" y="15.8" width="4.7" height="4.7"/>
	<rect x="66.6" y="15.8" width="4.7" height="4.7"/>
	<rect x="71.3" y="15.8" width="4.7" height="4.7"/>
	<rect x="80.8" y="15.8" width="4.7" height="4.7"/>
	<rect x="85.5" y="15.8" width="4.7" height="4.7"/>
	<rect x="94.9" y="15.8" width="4.7" height="4.7"/>
	<rect x="104.3" y="15.8" width="4.7" height="4.7"/>
	<rect x="113.7" y="15.8" width="4.7" height="4.7"/>
	<rect x="142" y="15.8" width="4.7" height="4.7"/>
	<rect x="10.1" y="20.5" width="4.7" height="4.7"/>
	<rect x="19.5" y="20.5" width="4.7" height="4.7"/>
	<rect x="24.2" y="20.5" width="4.7" height="4.7"/>
	<rect x="29" y="20.5" width="4.7" height="4.7"/>
	<rect x="38.4" y="20.5" width="4.7" height="4.7"/>
	<rect x="47.8" y="20.5" width="4.7" height="4.7"/>
	<rect x="57.2" y="20.5" width="4.7" height="4.7"/>
	<rect x="61.9" y="20.5" width="4.7" height="4.7"/>
	<rect x="66.6" y="20.5" width="4.7" height="4.7"/>
	<rect x="90.2" y="20.5" width="4.7" height="4.7"/>
	<rect x="104.3" y="20.5" width="4.7" height="4.7"/>
	<rect x="113.7" y="20.5" width="4.7" height="4.7"/>
	<rect x="123.2" y="20.5" width="4.7" height="4.7"/>
	<rect x="127.9" y="20.5" width="4.7" height="4.7"/>
	<rect x="132.6" y="20.5" width="4.7" height="4.7"/>
	<rect x="142" y="20.5" width="4.7" height="4.7"/>
	<rect x="10.1" y="25.2" width="4.7" height="4.7"/>
	<rect x="19.5" y="25.2" width="4.7" height="4.7"/>
	<rect x="24.2" y="25.2" width="4.7" height="4.7"/>
	<rect x="29" y="25.2" width="4.7" height="4.7"/>
	<rect x="38.4" y="25.2" width="4.7" height="4.7"/>
	<rect x="52.5" y="25.2" width="4.7" height="4.7"/>
	<rect x="61.9" y="25.2" width="4.7" height="4.7"/>
	<rect x="66.6" y="25.2" width="4.7" height="4.7"/>
	<rect x="76.1" y="25.2" width="4.7" height="4.7"/>
	<rect x="80.8" y="25.2" width="4.7" height="4.7"/>
	<rect x="94.9" y="25.2" width="4.7" height="4.7"/>
	<rect x="113.7" y="25.2" width="4.7" height="4.7"/>
	<rect x="123.2" y="25.2" width="4.7" height="4.7"/>
	<rect x="127.9" y="25.2" width="4.7" height="4.7"/>
	<rect x="132.6" y="25.2" width="4.7" height="4.7"/>
	<rect x="142" y="25.2" width="4.7" height="4.7"/>
	<rect x="10.1" y="29.9" width="4.7" height="4.7"/>
	<rect x="19.5" y="29.9" width="4.7" height="4.7"/>
	<rect x="24.2" y="29.9" width="4.7" height="4.7"/>
	<rect x="29" y="29.9" width="4.7" height="4.7"/>
	<rect x="38.4" y="29.9" width="4.7" height="4.7"/>
	<rect x="47.8" y="29.9" width="4.7" height="4.7"/>
	<rect x="52.5" y="29.9" width="4.7" height="4.7"/>
	<rect x="61.9" y="29.9" width="4.7" height="4.7"/>
	<rect x="66.6" y="29.9" width="4.7" height="4.7"/>
	<rect x="76.1" y="29.9" width="4.7" height="4.7"/>
	<rect x="80.8" y="29.9" width="4.7" height="4.7"/>
	<rect x="85.5" y="29.9" width="4.7" height="4.7"/>
	<rect x="94.9" y="29.9" width="4.7" height="4.7"/>
	<rect x="113.7" y="29.9" width="4.7" height="4.7"/>
	<rect x="123.2" y="29.9" width="4.7" height="4.7"/>
	<rect x="127.9" y="29.9" width="4.7" height="4.7"/>
	<rect x="132.6" y="29.9" width="4.7" height="4.7"/>
	<rect x="142" y="29.9" width="4.7" height="4.7"/>
	<rect x="10.1" y="34.6" width="4.7" height="4.7"/>
	<rect x="38.4" y="34.6" width="4.7" height="4.7"/>
	<rect x="47.8" y="34.6" width="4.7" height="4.7"/>
	<rect x="57.2" y="34.6" width="4.7" height="4.7"/>
	<rect x="80.8" y="34.6" width="4.7" height="4.7"/>
	<rect x="85.5" y="34.6" width="4.7" height="4.7"/>
	<rect x="90.2" y="34.6" width="4.7" height="4.7"/>
	<rect x="99.6" y="34.6" width="4.7" height="4.7"/>
	<rect x="113.7" y="34.6" width="4.7" height="4.7"/>
	<rect x="142" y="34.6" width="4.7" height="4.7"/>
	<rect x="10.1" y="39.3" width="4.7" height="4.7"/>
	<rect x="14.8" y="39.3" width="4.7" height="4.7"/>
	<rect x="19.5" y="39.3" width="4.7" height="4.7"/>
	<rect x="24.2" y="39.3" width="4.7" height="4.7"/>
	<rect x="29" y="39.3" width="4.7" height="4.7"/>
	<rect x="33.7" y="39.3" width="4.7" height="4.7"/>
	<rect x="38.4" y="39.3" width="4.7" height="4.7"/>
	<rect x="47.8" y="39.3" width="4.7" height="4.7"/>
	<rect x="57.2" y="39.3" width="4.7" height="4.7"/>
	<rect x="66.6" y="39.3" width="4.7" height="4.7"/>
	<rect x="76.1" y="39.3" width="4.7" height="4.7"/>
	<rect x="85.5" y="39.3" width="4.7" height="4.7"/>
	<rect x="94.9" y="39.3" width="4.7" height="4.7"/>
	<rect x="104.3" y="39.3" width="4.7" height="4.7"/>
	<rect x="113.7" y="39.3" width="4.7" height="4.7"/>
	<rect x="118.4" y="39.3" width="4.7" height="4.7"/>
	<rect x="123.2" y="39.3" width="4.7" height="4.7"/>
	<rect x="127.9" y="39.3" width="4.7" height="4.7"/>
	<rect x="132.6" y="39.3" width="4.7" height="4.7"/>
	<rect x="137.3" y="39.3" width="4.7" height="4.7"/>
	<rect x="142" y="39.3" width="4.7" height="4.7"/>
	<rect x="47.8" y="44" width="4.7" height="4.7"/>
	<rect x="57.2" y="44" width="4.7" height="4.7"/>
	<rect x="61.9" y="44" width="4.7" height="4.7"/>
	<rect x="76.1" y="44" width="4.7" height="4.7"/>
	<rect x="80.8" y="44" width="4.7" height="4.7"/>
	<rect x="85.5" y="44" width="4.7" height="4.7"/>
	<rect x="90.2" y="44" width="4.7" height="4.7"/>
	<rect x="99.6" y="44" width="4.7" height="4.7"/>
	<rect x="104.3" y="44" width="4.7" height="4.7"/>
	<rect x="10.1" y="48.8" width="4.7" height="4.7"/>
	<rect x="14.8" y="48.8" width="4.7" height="4.7"/>
	<rect x="24.2" y="48.8" width="4.7" height="4.7"/>
	<rect x="38.4" y="48.8" width="4.7" height="4.7"/>
	<rect x="43.1" y="48.8" width="4.7" height="4.7"/>
	<rect x="61.9" y="48.8" width="4.7" height="4.7"/>
	<rect x="71.3" y="48.8" width="4.7" height="4.7"/>
	<rect x="85.5" y="48.8" width="4.7" height="4.7"/>
	<rect x="99.6" y="48.8" width="4.7" height="4.7"/>
	<rect x="113.7" y="48.8" width="4.7" height="4.7"/>
	<rect x="118.4" y="48.8" width="4.7" height="4.7"/>
	<rect x="123.2" y="48.8" width="4.7" height="4.7"/>
	<rect x="132.6" y="48.8" width="4.7" height="4.7"/>
	<rect x="137.3" y="48.8" width="4.7" height="4.7"/>
	<rect x="14.8" y="53.5" width="4.7" height="4.7"/>
	<rect x="19.5" y="53.5" width="4.7" height="4.7"/>
	<rect x="24.2" y="53.5" width="4.7" height="4.7"/>
	<rect x="29" y="53.5" width="4.7" height="4.7"/>
	<rect x="43.1" y="53.5" width="4.7" height="4.7"/>
	<rect x="47.8" y="53.5" width="4.7" height="4.7"/>
	<rect x="52.5" y="53.5" width="4.7" height="4.7"/>
	<rect x="85.5" y="53.5" width="4.7" height="4.7"/>
	<rect x="90.2" y="53.5" width="4.7" height="4.7"/>
	<rect x="94.9" y="53.5" width="4.7" height="4.7"/>
	<rect x="104.3" y="53.5" width="4.7" height="4.7"/>
	<rect x="109" y="53.5" width="4.7" height="4.7"/>
	<rect x="113.7" y="53.5" width="4.7" height="4.7"/>
	<rect x="118.4" y="53.5" width="4.7" height="4.7"/>
	<rect x="127.9" y="53.5" width="4.7" height="4.7"/>
	<rect x="142" y="53.5" width="4.7" height="4.7"/>
	<rect x="10.1" y="58.2" width="4.7" height="4.7"/>
	<rect x="24.2" y="58.2" width="4.7" height="4.7"/>
	<rect x="29" y="58.2" width="4.7" height="4.7"/>
	<rect x="33.7" y="58.2" width="4.7" height="4.7"/>
	<rect x="38.4" y="58.2" width="4.7" height="4.7"/>
	<rect x="47.8" y="58.2" width="4.7" height="4.7"/>
	<rect x="85.5" y="58.2" width="4.7" height="4.7"/>
	<rect x="90.2" y="58.2" width="4.7" height="4.7"/>
	<rect x="94.9" y="58.2" width="4.7" height="4.7"/>
	<rect x="99.6" y="58.2" width="4.7" height="4.7"/>
	<rect x="109" y="58.2" width="4.7" height="4.7"/>
	<rect x="113.7" y="58.2" width="4.7" height="4.7"/>
	<rect x="118.4" y="58.2" width="4.7" height="4.7"/>
	<rect x="127.9" y="58.2" width="4.7" height="4.7"/>
	<rect x="132.6" y="58.2" width="4.7" height="4.7"/>
	<rect x="137.3" y="58.2" width="4.7" height="4.7"/>
	<rect x="19.5" y="62.9" width="4.7" height="4.7"/>
	<rect x="29" y="62.9" width="4.7" height="4.7"/>
	<rect x="33.7" y="62.9" width="4.7" height="4.7"/>
	<rect x="47.8" y="62.9" width="4.7" height="4.7"/>
	<rect x="52.5" y="62.9" width="4.7" height="4.7"/>
	<rect x="57.2" y="62.9" width="4.7" height="4.7"/>
	<rect x="71.3" y="62.9" width="4.7" height="4.7"/>
	<rect x="80.8" y="62.9" width="4.7" height="4.7"/>
	<rect x="85.5" y="62.9" width="4.7" height="4.7"/>
	<rect x="104.3" y="62.9" width="4.7" height="4.7"/>
	<rect x="109" y="62.9" width="4.7" height="4.7"/>
	<rect x="113.7" y="62.9" width="4.7" height="4.7"/>
	<rect x="132.6" y="62.9" width="4.7" height="4.7"/>
	<rect x="137.3" y="62.9" width="4.7" height="4.7"/>
	<rect x="10.1" y="67.6" width="4.7" height="4.7"/>
	<rect x="24.2" y="67.6" width="4.7" height="4.7"/>
	<rect x="33.7" y="67.6" width="4.7" height="4.7"/>
	<rect x="38.4" y="67.6" width="4.7" height="4.7"/>
	<rect x="43.1" y="67.6" width="4.7" height="4.7"/>
	<rect x="47.8" y="67.6" width="4.7" height="4.7"/>
	<rect x="57.2" y="67.6" width="4.7" height="4.7"/>
	<rect x="71.3" y="67.6" width="4.7" height="4.7"/>
	<rect x="90.2" y="67.6" width="4.7" height="4.7"/>
	<rect x="94.9" y="67.6" width="4.7" height="4.7"/>
	<rect x="104.3" y="67.6" width="4.7" height="4.7"/>
	<rect x="109" y="67.6" width="4.7" height="4.7"/>
	<rect x="113.7" y="67.6" width="4.7" height="4.7"/>
	<rect x="118.4" y="67.6" width="4.7" height="4.7"/>
	<rect x="127.9" y="67.6" width="4.7" height="4.7"/>
	<rect x="137.3" y="67.6" width="4.7" height="4.7"/>
	<rect x="142" y="67.6" width="4.7" height="4.7"/>
	<rect x="10.1" y="72.3" width="4.7" height="4.7"/>
	<rect x="19.5" y="72.3" width="4.7" height="4.7"/>
	<rect x="24.2" y="72.3" width="4.7" height="4.7"/>
	<rect x="33.7" y="72.3" width="4.7" height="4.7"/>
	<rect x="47.8" y="72.3" width="4.7" height="4.7"/>
	<rect x="52.5" y="72.3" width="4.7" height="4.7"/>
	<rect x="71.3" y="72.3" width="4.7" height="4.7"/>
	<rect x="99.6" y="72.3" width="4.7" height="4.7"/>
	<rect x="104.3" y="72.3" width="4.7" height="4.7"/>
	<rect x="109" y="72.3" width="4.7" height="4.7"/>
	<rect x="14.8" y="77" width="4.7" height="4.7"/>
	<rect x="24.2" y="77" width="4.7" height="4.7"/>
	<rect x="38.4" y="77" width="4.7" height="4.7"/>
	<rect x="43.1" y="77" width="4.7" height="4.7"/>
	<rect x="52.5" y="77" width="4.7" height="4.7"/>
	<rect x="57.2" y="77" width="4.7" height="4.7"/>
	<rect x="61.9" y="77" width="4.7" height="4.7"/>
	<rect x="113.7" y="77" width="4.7" height="4.7"/>
	<rect x="118.4" y="77" width="4.7" height="4.7"/>
	<rect x="123.2" y="77" width="4.7" height="4.7"/>
	<rect x="127.9" y="77" width="4.7" height="4.7"/>
	<rect x="132.6" y="77" width="4.7" height="4.7"/>
	<rect x="137.3" y="77" width="4.7" height="4.7"/>
	<rect x="142" y="77" width="4.7" height="4.7"/>
	<rect x="24.2" y="81.7" width="4.7" height="4.7"/>
	<rect x="33.7" y="81.7" width="4.7" height="4.7"/>
	<rect x="43.1" y="81.7" width="4.7" height="4.7"/>
	<rect x="47.8" y="81.7" width="4.7" height="4.7"/>
	<rect x="52.5" y="81.7" width="4.7" height="4.7"/>
	<rect x="61.9" y="81.7" width="4.7" height="4.7"/>
	<rect x="71.3" y="81.7" width="4.7" height="4.7"/>
	<rect x="76.1" y="81.7" width="4.7" height="4.7"/>
	<rect x="80.8" y="81.7" width="4.7" height="4.7"/>
	<rect x="90.2" y="81.7" width="4.7" height="4.7"/>
	<rect x="94.9" y="81.7" width="4.7" height="4.7"/>
	<rect x="104.3" y="81.7" width="4.7" height="4.7"/>
	<rect x="118.4" y="81.7" width="4.7" height="4.7"/>
	<rect x="127.9" y="81.7" width="4.7" height="4.7"/>
	<rect x="137.3" y="81.7" width="4.7" height="4.7"/>
	<rect x="14.8" y="86.4" width="4.7" height="4.7"/>
	<rect x="19.5" y="86.4" width="4.7" height="4.7"/>
	<rect x="33.7" y="86.4" width="4.7" height="4.7"/>
	<rect x="38.4" y="86.4" width="4.7" height="4.7"/>
	<rect x="61.9" y="86.4" width="4.7" height="4.7"/>
	<rect x="85.5" y="86.4" width="4.7" height="4.7"/>
	<rect x="90.2" y="86.4" width="4.7" height="4.7"/>
	<rect x="104.3" y="86.4" width="4.7" height="4.7"/>
	<rect x="109" y="86.4" width="4.7" height="4.7"/>
	<rect x="118.4" y="86.4" width="4.7" height="4.7"/>
	<rect x="137.3" y="86.4" width="4.7" height="4.7"/>
	<rect x="14.8" y="91.1" width="4.7" height="4.7"/>
	<rect x="24.2" y="91.1" width="4.7" height="4.7"/>
	<rect x="29" y="91.1" width="4.7" height="4.7"/>
	<rect x="33.7" y="91.1" width="4.7" height="4.7"/>
	<rect x="43.1" y="91.1" width="4.7" height="4.7"/>
	<rect x="47.8" y="91.1" width="4.7" height="4.7"/>
	<rect x="52.5" y="91.1" width="4.7" height="4.7"/>
	<rect x="57.2" y="91.1" width="4.7" height="4.7"/>
	<rect x="61.9" y="91.1" width="4.7" height="4.7"/>
	<rect x="71.3" y="91.1" width="4.7" height="4.7"/>
	<rect x="76.1" y="91.1" width="4.7" height="4.7"/>
	<rect x="85.5" y="91.1" width="4.7" height="4.7"/>
	<rect x="104.3" y="91.1" width="4.7" height="4.7"/>
	<rect x="113.7" y="91.1" width="4.7" height="4.7"/>
	<rect x="118.4" y="91.1" width="4.7" height="4.7"/>
	<rect x="127.9" y="91.1" width="4.7" height="4.7"/>
	<rect x="142" y="91.1" width="4.7" height="4.7"/>
	<rect x="10.1" y="95.9" width="4.7" height="4.7"/>
	<rect x="24.2" y="95.9" width="4.7" height="4.7"/>
	<rect x="33.7" y="95.9" width="4.7" height="4.7"/>
	<rect x="38.4" y="95.9" width="4.7" height="4.7"/>
	<rect x="52.5" y="95.9" width="4.7" height="4.7"/>
	<rect x="57.2" y="95.9" width="4.7" height="4.7"/>
	<rect x="94.9" y="95.9" width="4.7" height="4.7"/>
	<rect x="113.7" y="95.9" width="4.7" height="4.7"/>
	<rect x="123.2" y="95.9" width="4.7" height="4.7"/>
	<rect x="137.3" y="95.9" width="4.7" height="4.7"/>
	<rect x="142" y="95.9" width="4.7" height="4.7"/>
	<rect x="19.5" y="100.6" width="4.7" height="4.7"/>
	<rect x="29" y="100.6" width="4.7" height="4.7"/>
	<rect x="33.7" y="100.6" width="4.7" height="4.7"/>
	<rect x="43.1" y="100.6" width="4.7" height="4.7"/>
	<rect x="52.5" y="100.6" width="4.7" height="4.7"/>
	<rect x="57.2" y="100.6" width="4.7" height="4.7"/>
	<rect x="61.9" y="100.6" width="4.7" height="4.7"/>
	<rect x="80.8" y="100.6" width="4.7" height="4.7"/>
	<rect x="85.5" y="100.6" width="4.7" height="4.7"/>
	<rect x="90.2" y="100.6" width="4.7" height="4.7"/>
	<rect x="94.9" y="100.6" width="4.7" height="4.7"/>
	<rect x="104.3" y="100.6" width="4.7" height="4.7"/>
	<rect x="109" y="100.6" width="4.7" height="4.7"/>
	<rect x="113.7" y="100.6" width="4.7" height="4.7"/>
	<rect x="118.4" y="100.6" width="4.7" height="4.7"/>
	<rect x="137.3" y="100.6" width="4.7" height="4.7"/>
	<rect x="142" y="100.6" width="4.7" height="4.7"/>
	<rect x="10.1" y="105.3" width="4.7" height="4.7"/>
	<rect x="38.4" y="105.3" width="4.7" height="4.7"/>
	<rect x="52.5" y="105.3" width="4.7" height="4.7"/>
	<rect x="71.3" y="105.3" width="4.7" height="4.7"/>
	<rect x="80.8" y="105.3" width="4.7" height="4.7"/>
	<rect x="85.5" y="105.3" width="4.7" height="4.7"/>
	<rect x="104.3" y="105.3" width="4.7" height="4.7"/>
	<rect x="109" y="105.3" width="4.7" height="4.7"/>
	<rect x="113.7" y="105.3" width="4.7" height="4.7"/>
	<rect x="118.4" y="105.3" width="4.7" height="4.7"/>
	<rect x="123.2" y="105.3" width="4.7" height="4.7"/>
	<rect x="132.6" y="105.3" width="4.7" height="4.7"/>
	<rect x="47.8" y="110" width="4.7" height="4.7"/>
	<rect x="57.2" y="110" width="4.7" height="4.7"/>
	<rect x="71.3" y="110" width="4.7" height="4.7"/>
	<rect x="76.1" y="110" width="4.7" height="4.7"/>
	<rect x="85.5" y="110" width="4.7" height="4.7"/>
	<rect x="90.2" y="110" width="4.7" height="4.7"/>
	<rect x="94.9" y="110" width="4.7" height="4.7"/>
	<rect x="99.6" y="110" width="4.7" height="4.7"/>
	<rect x="104.3" y="110" width="4.7" height="4.7"/>
	<rect x="123.2" y="110" width="4.7" height="4.7"/>
	<rect x="132.6" y="110" width="4.7" height="4.7"/>
	<rect x="137.3" y="110" width="4.7" height="4.7"/>
	<rect x="142" y="110" width="4.7" height="4.7"/>
	<rect x="10.1" y="114.7" width="4.7" height="4.7"/>
	<rect x="14.8" y="114.7" width="4.7" height="4.7"/>
	<rect x="19.5" y="114.7" width="4.7" height="4.7"/>
	<rect x="24.2" y="114.7" width="4.7" height="4.7"/>
	<rect x="29" y="114.7" width="4.7" height="4.7"/>
	<rect x="33.7" y="114.7" width="4.7" height="4.7"/>
	<rect x="38.4" y="114.7" width="4.7" height="4.7"/>
	<rect x="47.8" y="114.7" width="4.7" height="4.7"/>
	<rect x="52.5" y="114.7" width="4.7" height="4.7"/>
	<rect x="57.2" y="114.7" width="4.7" height="4.7"/>
	<rect x="66.6" y="114.7" width="4.7" height="4.7"/>
	<rect x="71.3" y="114.7" width="4.7" height="4.7"/>
	<rect x="76.1" y="114.7" width="4.7" height="4.7"/>
	<rect x="85.5" y="114.7" width="4.7" height="4.7"/>
	<rect x="94.9" y="114.7" width="4.7" height="4.7"/>
	<rect x="104.3" y="114.7" width="4.7" height="4.7"/>
	<rect x="113.7" y="114.7" width="4.7" height="4.7"/>
	<rect x="123.2" y="114.7" width="4.7" height="4.7"/>
	<rect x="137.3" y="114.7" width="4.7" height="4.7"/>
	<rect x="10.1" y="119.4" width="4.7" height="4.7"/>
	<rect x="38.4" y="119.4" width="4.7" height="4.7"/>
	<rect x="52.5" y="119.4" width="4.7" height="4.7"/>
	<rect x="61.9" y="119.4" width="4.7" height="4.7"/>
	<rect x="71.3" y="119.4" width="4.7" height="4.7"/>
	<rect x="85.5" y="119.4" width="4.7" height="4.7"/>
	<rect x="104.3" y="119.4" width="4.7" height="4.7"/>
	<rect x="123.2" y="119.4" width="4.7" height="4.7"/>
	<rect x="127.9" y="119.4" width="4.7" height="4.7"/>
	<rect x="132.6" y="119.4" width="4.7" height="4.7"/>
	<rect x="142" y="119.4" width="4.7" height="4.7"/>
	<rect x="10.1" y="124.1" width="4.7" height="4.7"/>
	<rect x="19.5" y="124.1" width="4.7" height="4.7"/>
	<rect x="24.2" y="124.1" width="4.7" height="4.7"/>
	<rect x="29" y="124.1" width="4.7" height="4.7"/>
	<rect x="38.4" y="124.1" width="4.7" height="4.7"/>
	<rect x="52.5" y="124.1" width="4.7" height="4.7"/>
	<rect x="57.2" y="124.1" width="4.7" height="4.7"/>
	<rect x="71.3" y="124.1" width="4.7" height="4.7"/>
	<rect x="76.1" y="124.1" width="4.7" height="4.7"/>
	<rect x="90.2" y="124.1" width="4.7" height="4.7"/>
	<rect x="104.3" y="124.1" width="4.7" height="4.7"/>
	<rect x="109" y="124.1" width="4.7" height="4.7"/>
	<rect x="113.7" y="124.1" width="4.7" height="4.7"/>
	<rect x="118.4" y="124.1" width="4.7" height="4.7"/>
	<rect x="123.2" y="124.1" width="4.7" height="4.7"/>
	<rect x="142" y="124.1" width="4.7" height="4.7"/>
	<rect x="10.1" y="128.8" width="4.7" height="4.7"/>
	<rect x="19.5" y="128.8" width="4.7" height="4.7"/>
	<rect x="24.2" y="128.8" width="4.7" height="4.7"/>
	<rect x="29" y="128.8" width="4.7" height="4.7"/>
	<rect x="38.4" y="128.8" width="4.7" height="4.7"/>
	<rect x="47.8" y="128.8" width="4.7" height="4.7"/>
	<rect x="52.5" y="128.8" width="4.7" height="4.7"/>
	<rect x="76.1" y="128.8" width="4.7" height="4.7"/>
	<rect x="90.2" y="128.8" width="4.7" height="4.7"/>
	<rect x="94.9" y="128.8" width="4.7" height="4.7"/>
	<rect x="113.7" y="128.8" width="4.7" height="4.7"/>
	<rect x="123.2" y="128.8" width="4.7" height="4.7"/>
	<rect x="127.9" y="128.8" width="4.7" height="4.7"/>
	<rect x="132.6" y="128.8" width="4.7" height="4.7"/>
	<rect x="10.1" y="133.5" width="4.7" height="4.7"/>
	<rect x="19.5" y="133.5" width="4.7" height="4.7"/>
	<rect x="24.2" y="133.5" width="4.7" height="4.7"/>
	<rect x="29" y="133.5" width="4.7" height="4.7"/>
	<rect x="38.4" y="133.5" width="4.7" height="4.7"/>
	<rect x="57.2" y="133.5" width="4.7" height="4.7"/>
	<rect x="61.9" y="133.5" width="4.7" height="4.7"/>
	<rect x="66.6" y="133.5" width="4.7" height="4.7"/>
	<rect x="76.1" y="133.5" width="4.7" height="4.7"/>
	<rect x="90.2" y="133.5" width="4.7" height="4.7"/>
	<rect x="94.9" y="133.5" width="4.7" height="4.7"/>
	<rect x="99.6" y="133.5" width="4.7" height="4.7"/>
	<rect x="104.3" y="133.5" width="4.7" height="4.7"/>
	<rect x="109" y="133.5" width="4.7" height="4.7"/>
	<rect x="123.2" y="133.5" width="4.7" height="4.7"/>
	<rect x="127.9" y="133.5" width="4.7" height="4.7"/>
	<rect x="132.6" y="133.5" width="4.7" height="4.7"/>
	<rect x="142" y="133.5" width="4.7" height="4.7"/>
	<rect x="10.1" y="138.2" width="4.7" height="4.7"/>
	<rect x="38.4" y="138.2" width="4.7" height="4.7"/>
	<rect x="47.8" y="138.2" width="4.7" height="4.7"/>
	<rect x="52.5" y="138.2" width="4.7" height="4.7"/>
	<rect x="66.6" y="138.2" width="4.7" height="4.7"/>
	<rect x="71.3" y="138.2" width="4.7" height="4.7"/>
	<rect x="85.5" y="138.2" width="4.7" height="4.7"/>
	<rect x="90.2" y="138.2" width="4.7" height="4.7"/>
	<rect x="99.6" y="138.2" width="4.7" height="4.7"/>
	<rect x="104.3" y="138.2" width="4.7" height="4.7"/>
	<rect x="109" y="138.2" width="4.7" height="4.7"/>
	<rect x="137.3" y="138.2" width="4.7" height="4.7"/>
	<rect x="10.1" y="143" width="4.7" height="4.7"/>
	<rect x="14.8" y="143" width="4.7" height="4.7"/>
	<rect x="19.5" y="143" width="4.7" height="4.7"/>
	<rect x="24.2" y="143" width="4.7" height="4.7"/>
	<rect x="29" y="143" width="4.7" height="4.7"/>
	<rect x="33.7" y="143" width="4.7" height="4.7"/>
	<rect x="38.4" y="143" width="4.7" height="4.7"/>
	<rect x="47.8" y="143" width="4.7" height="4.7"/>
	<rect x="57.2" y="143" width="4.7" height="4.7"/>
	<rect x="76.1" y="143" width="4.7" height="4.7"/>
	<rect x="80.8" y="143" width="4.7" height="4.7"/>
	<rect x="90.2" y="143" width="4.7" height="4.7"/>
	<rect x="94.9" y="143" width="4.7" height="4.7"/>
	<rect x="104.3" y="143" width="4.7" height="4.7"/>
	<rect x="123.2" y="143" width="4.7" height="4.7"/>
	<rect x="127.9" y="143" width="4.7" height="4.7"/>
	<rect x="137.3" y="143" width="4.7" height="4.7"/>
</g>
</svg>
