<?xml version="1.0" encoding="utf-8"?>
<!-- Generator: Adobe Illustrator 21.0.0, SVG Export Plug-In . SVG Version: 6.00 Build 0)  -->
<svg version="1.1" id="Camada_1" xmlns="http://www.w3.org/2000/svg" xmlns:xlink="http://www.w3.org/1999/xlink" x="0px" y="0px"
	 viewBox="0 0 156.9 156.9" style="enable-background:new 0 0 156.9 156.9;" xml:space="preserve">
<style type="text/css">
	.st0{fill:url(#SVGID_1_);}
	.st1{fill:#FFFFFF;}
	.st2{fill:url(#SVGID_2_);}
</style>
<g>
	<rect y="0" class="st1" width="156.9" height="156.9"/>
	<rect x="5.5" y="5.5" width="3.9" height="3.9"/>
	<rect x="9.4" y="5.5" width="3.9" height="3.9"/>
	<rect x="13.3" y="5.5" width="3.9" height="3.9"/>
	<rect x="17.3" y="5.5" width="3.9" height="3.9"/>
	<rect x="21.2" y="5.5" width="3.9" height="3.9"/>
	<rect x="25.1" y="5.5" width="3.9" height="3.9"/>
	<rect x="29" y="5.5" width="3.9" height="3.9"/>
	<rect x="40.8" y="5.5" width="3.9" height="3.9"/>
	<rect x="64.3" y="5.5" width="3.9" height="3.9"/>
	<rect x="68.3" y="5.5" width="3.9" height="3.9"/>
	<rect x="80" y="5.5" width="3.9" height="3.9"/>
	<rect x="83.9" y="5.5" width="3.9" height="3.9"/>
	<rect x="95.7" y="5.5" width="3.9" height="3.9"/>
	<rect x="107.5" y="5.5" width="3.9" height="3.9"/>
	<rect x="115.3" y="5.5" width="3.9" height="3.9"/>
	<rect x="123.2" y="5.5" width="3.9" height="3.9"/>
	<rect x="127.1" y="5.5" width="3.9" height="3.9"/>
	<rect x="131" y="5.5" width="3.9" height="3.9"/>
	<rect x="134.9" y="5.5" width="3.9" height="3.9"/>
	<rect x="138.9" y="5.5" width="3.9" height="3.9"/>
	<rect x="142.8" y="5.5" width="3.9" height="3.9"/>
	<rect x="146.7" y="5.5" width="3.9" height="3.9"/>
	<rect x="5.5" y="9.4" width="3.9" height="3.9"/>
	<rect x="29" y="9.4" width="3.9" height="3.9"/>
	<rect x="36.9" y="9.4" width="3.9" height="3.9"/>
	<rect x="40.8" y="9.4" width="3.9" height="3.9"/>
	<rect x="48.6" y="9.4" width="3.9" height="3.9"/>
	<rect x="52.6" y="9.4" width="3.9" height="3.9"/>
	<rect x="72.2" y="9.4" width="3.9" height="3.9"/>
	<rect x="76.1" y="9.4" width="3.9" height="3.9"/>
	<rect x="91.8" y="9.4" width="3.9" height="3.9"/>
	<rect x="111.4" y="9.4" width="3.9" height="3.9"/>
	<rect x="123.2" y="9.4" width="3.9" height="3.9"/>
	<rect x="146.7" y="9.4" width="3.9" height="3.9"/>
	<rect x="5.5" y="13.3" width="3.9" height="3.9"/>
	<rect x="13.3" y="13.3" width="3.9" height="3.9"/>
	<rect x="17.3" y="13.3" width="3.9" height="3.9"/>
	<rect x="21.2" y="13.3" width="3.9" height="3.9"/>
	<rect x="29" y="13.3" width="3.9" height="3.9"/>
	<rect x="40.8" y="13.3" width="3.9" height="3.9"/>
	<rect x="44.7" y="13.3" width="3.9" height="3.9"/>
	<rect x="48.6" y="13.3" width="3.9" height="3.9"/>
	<rect x="60.4" y="13.3" width="3.9" height="3.9"/>
	<rect x="68.3" y="13.3" width="3.9" height="3.9"/>
	<rect x="76.1" y="13.3" width="3.9" height="3.9"/>
	<rect x="83.9" y="13.3" width="3.9" height="3.9"/>
	<rect x="87.9" y="13.3" width="3.9" height="3.9"/>
	<rect x="91.8" y="13.3" width="3.9" height="3.9"/>
	<rect x="95.7" y="13.3" width="3.9" height="3.9"/>
	<rect x="99.6" y="13.3" width="3.9" height="3.9"/>
	<rect x="111.4" y="13.3" width="3.9" height="3.9"/>
	<rect x="123.2" y="13.3" width="3.9" height="3.9"/>
	<rect x="131" y="13.3" width="3.9" height="3.9"/>
	<rect x="134.9" y="13.3" width="3.9" height="3.9"/>
	<rect x="138.9" y="13.3" width="3.9" height="3.9"/>
	<rect x="146.7" y="13.3" width="3.9" height="3.9"/>
	<rect x="5.5" y="17.3" width="3.9" height="3.9"/>
	<rect x="13.3" y="17.3" width="3.9" height="3.9"/>
	<rect x="17.3" y="17.3" width="3.9" height="3.9"/>
	<rect x="21.2" y="17.3" width="3.9" height="3.9"/>
	<rect x="29" y="17.3" width="3.9" height="3.9"/>
	<rect x="36.9" y="17.3" width="3.9" height="3.9"/>
	<rect x="40.8" y="17.3" width="3.9" height="3.9"/>
	<rect x="48.6" y="17.3" width="3.9" height="3.9"/>
	<rect x="72.2" y="17.3" width="3.9" height="3.9"/>
	<rect x="91.8" y="17.3" width="3.9" height="3.9"/>
	<rect x="99.6" y="17.3" width="3.9" height="3.9"/>
	<rect x="103.6" y="17.3" width="3.9" height="3.9"/>
	<rect x="107.5" y="17.3" width="3.9" height="3.9"/>
	<rect x="111.4" y="17.3" width="3.9" height="3.9"/>
	<rect x="115.3" y="17.3" width="3.9" height="3.9"/>
	<rect x="123.2" y="17.3" width="3.9" height="3.9"/>
	<rect x="131" y="17.3" width="3.9" height="3.9"/>
	<rect x="134.9" y="17.3" width="3.9" height="3.9"/>
	<rect x="138.9" y="17.3" width="3.9" height="3.9"/>
	<rect x="146.7" y="17.3" width="3.9" height="3.9"/>
	<rect x="5.5" y="21.2" width="3.9" height="3.9"/>
	<rect x="13.3" y="21.2" width="3.9" height="3.9"/>
	<rect x="17.3" y="21.2" width="3.9" height="3.9"/>
	<rect x="21.2" y="21.2" width="3.9" height="3.9"/>
	<rect x="29" y="21.2" width="3.9" height="3.9"/>
	<rect x="44.7" y="21.2" width="3.9" height="3.9"/>
	<rect x="52.6" y="21.2" width="3.9" height="3.9"/>
	<rect x="56.5" y="21.2" width="3.9" height="3.9"/>
	<rect x="60.4" y="21.2" width="3.9" height="3.9"/>
	<rect x="64.3" y="21.2" width="3.9" height="3.9"/>
	<rect x="72.2" y="21.2" width="3.9" height="3.9"/>
	<rect x="76.1" y="21.2" width="3.9" height="3.9"/>
	<rect x="80" y="21.2" width="3.9" height="3.9"/>
	<rect x="83.9" y="21.2" width="3.9" height="3.9"/>
	<rect x="95.7" y="21.2" width="3.9" height="3.9"/>
	<rect x="107.5" y="21.2" width="3.9" height="3.9"/>
	<rect x="115.3" y="21.2" width="3.9" height="3.9"/>
	<rect x="123.2" y="21.2" width="3.9" height="3.9"/>
	<rect x="131" y="21.2" width="3.9" height="3.9"/>
	<rect x="134.9" y="21.2" width="3.9" height="3.9"/>
	<rect x="138.9" y="21.2" width="3.9" height="3.9"/>
	<rect x="146.7" y="21.2" width="3.9" height="3.9"/>
	<rect x="5.5" y="25.1" width="3.9" height="3.9"/>
	<rect x="29" y="25.1" width="3.9" height="3.9"/>
	<rect x="36.9" y="25.1" width="3.9" height="3.9"/>
	<rect x="44.7" y="25.1" width="3.9" height="3.9"/>
	<rect x="56.5" y="25.1" width="3.9" height="3.9"/>
	<rect x="60.4" y="25.1" width="3.9" height="3.9"/>
	<rect x="64.3" y="25.1" width="3.9" height="3.9"/>
	<rect x="68.3" y="25.1" width="3.9" height="3.9"/>
	<rect x="72.2" y="25.1" width="3.9" height="3.9"/>
	<rect x="83.9" y="25.1" width="3.9" height="3.9"/>
	<rect x="87.9" y="25.1" width="3.9" height="3.9"/>
	<rect x="91.8" y="25.1" width="3.9" height="3.9"/>
	<rect x="99.6" y="25.1" width="3.9" height="3.9"/>
	<rect x="103.6" y="25.1" width="3.9" height="3.9"/>
	<rect x="111.4" y="25.1" width="3.9" height="3.9"/>
	<rect x="115.3" y="25.1" width="3.9" height="3.9"/>
	<rect x="123.2" y="25.1" width="3.9" height="3.9"/>
	<rect x="146.7" y="25.1" width="3.9" height="3.9"/>
	<rect x="5.5" y="29" width="3.9" height="3.9"/>
	<rect x="9.4" y="29" width="3.9" height="3.9"/>
	<rect x="13.3" y="29" width="3.9" height="3.9"/>
	<rect x="17.3" y="29" width="3.9" height="3.9"/>
	<rect x="21.2" y="29" width="3.9" height="3.9"/>
	<rect x="25.1" y="29" width="3.9" height="3.9"/>
	<rect x="29" y="29" width="3.9" height="3.9"/>
	<rect x="36.9" y="29" width="3.9" height="3.9"/>
	<rect x="44.7" y="29" width="3.9" height="3.9"/>
	<rect x="52.6" y="29" width="3.9" height="3.9"/>
	<rect x="60.4" y="29" width="3.9" height="3.9"/>
	<rect x="68.3" y="29" width="3.9" height="3.9"/>
	<rect x="76.1" y="29" width="3.9" height="3.9"/>
	<rect x="83.9" y="29" width="3.9" height="3.9"/>
	<rect x="91.8" y="29" width="3.9" height="3.9"/>
	<rect x="99.6" y="29" width="3.9" height="3.9"/>
	<rect x="107.5" y="29" width="3.9" height="3.9"/>
	<rect x="115.3" y="29" width="3.9" height="3.9"/>
	<rect x="123.2" y="29" width="3.9" height="3.9"/>
	<rect x="127.1" y="29" width="3.9" height="3.9"/>
	<rect x="131" y="29" width="3.9" height="3.9"/>
	<rect x="134.9" y="29" width="3.9" height="3.9"/>
	<rect x="138.9" y="29" width="3.9" height="3.9"/>
	<rect x="142.8" y="29" width="3.9" height="3.9"/>
	<rect x="146.7" y="29" width="3.9" height="3.9"/>
	<rect x="52.6" y="33" width="3.9" height="3.9"/>
	<rect x="56.5" y="33" width="3.9" height="3.9"/>
	<rect x="87.9" y="33" width="3.9" height="3.9"/>
	<rect x="91.8" y="33" width="3.9" height="3.9"/>
	<rect x="95.7" y="33" width="3.9" height="3.9"/>
	<rect x="107.5" y="33" width="3.9" height="3.9"/>
	<rect x="111.4" y="33" width="3.9" height="3.9"/>
	<rect x="5.5" y="36.9" width="3.9" height="3.9"/>
	<rect x="9.4" y="36.9" width="3.9" height="3.9"/>
	<rect x="13.3" y="36.9" width="3.9" height="3.9"/>
	<rect x="17.3" y="36.9" width="3.9" height="3.9"/>
	<rect x="21.2" y="36.9" width="3.9" height="3.9"/>
	<rect x="29" y="36.9" width="3.9" height="3.9"/>
	<rect x="33" y="36.9" width="3.9" height="3.9"/>
	<rect x="36.9" y="36.9" width="3.9" height="3.9"/>
	<rect x="40.8" y="36.9" width="3.9" height="3.9"/>
	<rect x="44.7" y="36.9" width="3.9" height="3.9"/>
	<rect x="52.6" y="36.9" width="3.9" height="3.9"/>
	<rect x="60.4" y="36.9" width="3.9" height="3.9"/>
	<rect x="64.3" y="36.9" width="3.9" height="3.9"/>
	<rect x="68.3" y="36.9" width="3.9" height="3.9"/>
	<rect x="72.2" y="36.9" width="3.9" height="3.9"/>
	<rect x="76.1" y="36.9" width="3.9" height="3.9"/>
	<rect x="95.7" y="36.9" width="3.9" height="3.9"/>
	<rect x="99.6" y="36.9" width="3.9" height="3.9"/>
	<rect x="103.6" y="36.9" width="3.9" height="3.9"/>
	<rect x="111.4" y="36.9" width="3.9" height="3.9"/>
	<rect x="119.3" y="36.9" width="3.9" height="3.9"/>
	<rect x="127.1" y="36.9" width="3.9" height="3.9"/>
	<rect x="134.9" y="36.9" width="3.9" height="3.9"/>
	<rect x="142.8" y="36.9" width="3.9" height="3.9"/>
	<rect x="5.5" y="40.8" width="3.9" height="3.9"/>
	<rect x="17.3" y="40.8" width="3.9" height="3.9"/>
	<rect x="21.2" y="40.8" width="3.9" height="3.9"/>
	<rect x="33" y="40.8" width="3.9" height="3.9"/>
	<rect x="40.8" y="40.8" width="3.9" height="3.9"/>
	<rect x="64.3" y="40.8" width="3.9" height="3.9"/>
	<rect x="68.3" y="40.8" width="3.9" height="3.9"/>
	<rect x="76.1" y="40.8" width="3.9" height="3.9"/>
	<rect x="80" y="40.8" width="3.9" height="3.9"/>
	<rect x="83.9" y="40.8" width="3.9" height="3.9"/>
	<rect x="95.7" y="40.8" width="3.9" height="3.9"/>
	<rect x="99.6" y="40.8" width="3.9" height="3.9"/>
	<rect x="103.6" y="40.8" width="3.9" height="3.9"/>
	<rect x="115.3" y="40.8" width="3.9" height="3.9"/>
	<rect x="127.1" y="40.8" width="3.9" height="3.9"/>
	<rect x="134.9" y="40.8" width="3.9" height="3.9"/>
	<rect x="138.9" y="40.8" width="3.9" height="3.9"/>
	<rect x="142.8" y="40.8" width="3.9" height="3.9"/>
	<rect x="5.5" y="44.7" width="3.9" height="3.9"/>
	<rect x="21.2" y="44.7" width="3.9" height="3.9"/>
	<rect x="25.1" y="44.7" width="3.9" height="3.9"/>
	<rect x="29" y="44.7" width="3.9" height="3.9"/>
	<rect x="33" y="44.7" width="3.9" height="3.9"/>
	<rect x="48.6" y="44.7" width="3.9" height="3.9"/>
	<rect x="52.6" y="44.7" width="3.9" height="3.9"/>
	<rect x="64.3" y="44.7" width="3.9" height="3.9"/>
	<rect x="68.3" y="44.7" width="3.9" height="3.9"/>
	<rect x="72.2" y="44.7" width="3.9" height="3.9"/>
	<rect x="83.9" y="44.7" width="3.9" height="3.9"/>
	<rect x="91.8" y="44.7" width="3.9" height="3.9"/>
	<rect x="99.6" y="44.7" width="3.9" height="3.9"/>
	<rect x="103.6" y="44.7" width="3.9" height="3.9"/>
	<rect x="107.5" y="44.7" width="3.9" height="3.9"/>
	<rect x="111.4" y="44.7" width="3.9" height="3.9"/>
	<rect x="115.3" y="44.7" width="3.9" height="3.9"/>
	<rect x="119.3" y="44.7" width="3.9" height="3.9"/>
	<rect x="123.2" y="44.7" width="3.9" height="3.9"/>
	<rect x="134.9" y="44.7" width="3.9" height="3.9"/>
	<rect x="138.9" y="44.7" width="3.9" height="3.9"/>
	<rect x="146.7" y="44.7" width="3.9" height="3.9"/>
	<rect x="5.5" y="48.6" width="3.9" height="3.9"/>
	<rect x="13.3" y="48.6" width="3.9" height="3.9"/>
	<rect x="17.3" y="48.6" width="3.9" height="3.9"/>
	<rect x="21.2" y="48.6" width="3.9" height="3.9"/>
	<rect x="36.9" y="48.6" width="3.9" height="3.9"/>
	<rect x="40.8" y="48.6" width="3.9" height="3.9"/>
	<rect x="44.7" y="48.6" width="3.9" height="3.9"/>
	<rect x="48.6" y="48.6" width="3.9" height="3.9"/>
	<rect x="60.4" y="48.6" width="3.9" height="3.9"/>
	<rect x="64.3" y="48.6" width="3.9" height="3.9"/>
	<rect x="68.3" y="48.6" width="3.9" height="3.9"/>
	<rect x="76.1" y="48.6" width="3.9" height="3.9"/>
	<rect x="83.9" y="48.6" width="3.9" height="3.9"/>
	<rect x="87.9" y="48.6" width="3.9" height="3.9"/>
	<rect x="95.7" y="48.6" width="3.9" height="3.9"/>
	<rect x="99.6" y="48.6" width="3.9" height="3.9"/>
	<rect x="107.5" y="48.6" width="3.9" height="3.9"/>
	<rect x="115.3" y="48.6" width="3.9" height="3.9"/>
	<rect x="119.3" y="48.6" width="3.9" height="3.9"/>
	<rect x="123.2" y="48.6" width="3.9" height="3.9"/>
	<rect x="127.1" y="48.6" width="3.9" height="3.9"/>
	<rect x="131" y="48.6" width="3.9" height="3.9"/>
	<rect x="134.9" y="48.6" width="3.9" height="3.9"/>
	<rect x="142.8" y="48.6" width="3.9" height="3.9"/>
	<rect x="9.4" y="52.6" width="3.9" height="3.9"/>
	<rect x="17.3" y="52.6" width="3.9" height="3.9"/>
	<rect x="21.2" y="52.6" width="3.9" height="3.9"/>
	<rect x="25.1" y="52.6" width="3.9" height="3.9"/>
	<rect x="29" y="52.6" width="3.9" height="3.9"/>
	<rect x="33" y="52.6" width="3.9" height="3.9"/>
	<rect x="36.9" y="52.6" width="3.9" height="3.9"/>
	<rect x="44.7" y="52.6" width="3.9" height="3.9"/>
	<rect x="48.6" y="52.6" width="3.9" height="3.9"/>
	<rect x="64.3" y="52.6" width="3.9" height="3.9"/>
	<rect x="68.3" y="52.6" width="3.9" height="3.9"/>
	<rect x="72.2" y="52.6" width="3.9" height="3.9"/>
	<rect x="83.9" y="52.6" width="3.9" height="3.9"/>
	<rect x="91.8" y="52.6" width="3.9" height="3.9"/>
	<rect x="103.6" y="52.6" width="3.9" height="3.9"/>
	<rect x="107.5" y="52.6" width="3.9" height="3.9"/>
	<rect x="123.2" y="52.6" width="3.9" height="3.9"/>
	<rect x="131" y="52.6" width="3.9" height="3.9"/>
	<rect x="134.9" y="52.6" width="3.9" height="3.9"/>
	<rect x="138.9" y="52.6" width="3.9" height="3.9"/>
	<rect x="146.7" y="52.6" width="3.9" height="3.9"/>
	<rect x="5.5" y="56.5" width="3.9" height="3.9"/>
	<rect x="9.4" y="56.5" width="3.9" height="3.9"/>
	<rect x="17.3" y="56.5" width="3.9" height="3.9"/>
	<rect x="21.2" y="56.5" width="3.9" height="3.9"/>
	<rect x="44.7" y="56.5" width="3.9" height="3.9"/>
	<rect x="52.6" y="56.5" width="3.9" height="3.9"/>
	<rect x="56.5" y="56.5" width="3.9" height="3.9"/>
	<rect x="60.4" y="56.5" width="3.9" height="3.9"/>
	<rect x="64.3" y="56.5" width="3.9" height="3.9"/>
	<rect x="68.3" y="56.5" width="3.9" height="3.9"/>
	<rect x="72.2" y="56.5" width="3.9" height="3.9"/>
	<rect x="76.1" y="56.5" width="3.9" height="3.9"/>
	<rect x="80" y="56.5" width="3.9" height="3.9"/>
	<rect x="83.9" y="56.5" width="3.9" height="3.9"/>
	<rect x="87.9" y="56.5" width="3.9" height="3.9"/>
	<rect x="91.8" y="56.5" width="3.9" height="3.9"/>
	<rect x="95.7" y="56.5" width="3.9" height="3.9"/>
	<rect x="127.1" y="56.5" width="3.9" height="3.9"/>
	<rect x="138.9" y="56.5" width="3.9" height="3.9"/>
	<rect x="142.8" y="56.5" width="3.9" height="3.9"/>
	<rect x="13.3" y="60.4" width="3.9" height="3.9"/>
	<rect x="21.2" y="60.4" width="3.9" height="3.9"/>
	<rect x="29" y="60.4" width="3.9" height="3.9"/>
	<rect x="33" y="60.4" width="3.9" height="3.9"/>
	<rect x="40.8" y="60.4" width="3.9" height="3.9"/>
	<rect x="56.5" y="60.4" width="3.9" height="3.9"/>
	<rect x="60.4" y="60.4" width="3.9" height="3.9"/>
	<rect x="64.3" y="60.4" width="3.9" height="3.9"/>
	<rect x="68.3" y="60.4" width="3.9" height="3.9"/>
	<rect x="76.1" y="60.4" width="3.9" height="3.9"/>
	<rect x="83.9" y="60.4" width="3.9" height="3.9"/>
	<rect x="91.8" y="60.4" width="3.9" height="3.9"/>
	<rect x="99.6" y="60.4" width="3.9" height="3.9"/>
	<rect x="107.5" y="60.4" width="3.9" height="3.9"/>
	<rect x="111.4" y="60.4" width="3.9" height="3.9"/>
	<rect x="115.3" y="60.4" width="3.9" height="3.9"/>
	<rect x="119.3" y="60.4" width="3.9" height="3.9"/>
	<rect x="127.1" y="60.4" width="3.9" height="3.9"/>
	<rect x="131" y="60.4" width="3.9" height="3.9"/>
	<rect x="138.9" y="60.4" width="3.9" height="3.9"/>
	<rect x="142.8" y="60.4" width="3.9" height="3.9"/>
	<rect x="146.7" y="60.4" width="3.9" height="3.9"/>
	<rect x="5.5" y="64.3" width="3.9" height="3.9"/>
	<rect x="21.2" y="64.3" width="3.9" height="3.9"/>
	<rect x="25.1" y="64.3" width="3.9" height="3.9"/>
	<rect x="33" y="64.3" width="3.9" height="3.9"/>
	<rect x="44.7" y="64.3" width="3.9" height="3.9"/>
	<rect x="52.6" y="64.3" width="3.9" height="3.9"/>
	<rect x="56.5" y="64.3" width="3.9" height="3.9"/>
	<rect x="64.3" y="64.3" width="3.9" height="3.9"/>
	<rect x="68.3" y="64.3" width="3.9" height="3.9"/>
	<rect x="76.1" y="64.3" width="3.9" height="3.9"/>
	<rect x="87.9" y="64.3" width="3.9" height="3.9"/>
	<rect x="91.8" y="64.3" width="3.9" height="3.9"/>
	<rect x="95.7" y="64.3" width="3.9" height="3.9"/>
	<rect x="99.6" y="64.3" width="3.9" height="3.9"/>
	<rect x="111.4" y="64.3" width="3.9" height="3.9"/>
	<rect x="115.3" y="64.3" width="3.9" height="3.9"/>
	<rect x="127.1" y="64.3" width="3.9" height="3.9"/>
	<rect x="134.9" y="64.3" width="3.9" height="3.9"/>
	<rect x="146.7" y="64.3" width="3.9" height="3.9"/>
	<rect x="5.5" y="68.3" width="3.9" height="3.9"/>
	<rect x="13.3" y="68.3" width="3.9" height="3.9"/>
	<rect x="17.3" y="68.3" width="3.9" height="3.9"/>
	<rect x="25.1" y="68.3" width="3.9" height="3.9"/>
	<rect x="29" y="68.3" width="3.9" height="3.9"/>
	<rect x="33" y="68.3" width="3.9" height="3.9"/>
	<rect x="36.9" y="68.3" width="3.9" height="3.9"/>
	<rect x="40.8" y="68.3" width="3.9" height="3.9"/>
	<rect x="52.6" y="68.3" width="3.9" height="3.9"/>
	<rect x="60.4" y="68.3" width="3.9" height="3.9"/>
	<rect x="68.3" y="68.3" width="3.9" height="3.9"/>
	<rect x="72.2" y="68.3" width="3.9" height="3.9"/>
	<rect x="83.9" y="68.3" width="3.9" height="3.9"/>
	<rect x="91.8" y="68.3" width="3.9" height="3.9"/>
	<rect x="99.6" y="68.3" width="3.9" height="3.9"/>
	<rect x="103.6" y="68.3" width="3.9" height="3.9"/>
	<rect x="107.5" y="68.3" width="3.9" height="3.9"/>
	<rect x="111.4" y="68.3" width="3.9" height="3.9"/>
	<rect x="119.3" y="68.3" width="3.9" height="3.9"/>
	<rect x="123.2" y="68.3" width="3.9" height="3.9"/>
	<rect x="131" y="68.3" width="3.9" height="3.9"/>
	<rect x="134.9" y="68.3" width="3.9" height="3.9"/>
	<rect x="138.9" y="68.3" width="3.9" height="3.9"/>
	<rect x="146.7" y="68.3" width="3.9" height="3.9"/>
	<rect x="5.5" y="72.2" width="3.9" height="3.9"/>
	<rect x="17.3" y="72.2" width="3.9" height="3.9"/>
	<rect x="25.1" y="72.2" width="3.9" height="3.9"/>
	<rect x="33" y="72.2" width="3.9" height="3.9"/>
	<rect x="36.9" y="72.2" width="3.9" height="3.9"/>
	<rect x="40.8" y="72.2" width="3.9" height="3.9"/>
	<rect x="44.7" y="72.2" width="3.9" height="3.9"/>
	<rect x="72.2" y="72.2" width="3.9" height="3.9"/>
	<rect x="76.1" y="72.2" width="3.9" height="3.9"/>
	<rect x="80" y="72.2" width="3.9" height="3.9"/>
	<rect x="83.9" y="72.2" width="3.9" height="3.9"/>
	<rect x="95.7" y="72.2" width="3.9" height="3.9"/>
	<rect x="115.3" y="72.2" width="3.9" height="3.9"/>
	<rect x="127.1" y="72.2" width="3.9" height="3.9"/>
	<rect x="138.9" y="72.2" width="3.9" height="3.9"/>
	<rect x="142.8" y="72.2" width="3.9" height="3.9"/>
	<rect x="9.4" y="76.1" width="3.9" height="3.9"/>
	<rect x="17.3" y="76.1" width="3.9" height="3.9"/>
	<rect x="21.2" y="76.1" width="3.9" height="3.9"/>
	<rect x="29" y="76.1" width="3.9" height="3.9"/>
	<rect x="40.8" y="76.1" width="3.9" height="3.9"/>
	<rect x="44.7" y="76.1" width="3.9" height="3.9"/>
	<rect x="48.6" y="76.1" width="3.9" height="3.9"/>
	<rect x="52.6" y="76.1" width="3.9" height="3.9"/>
	<rect x="64.3" y="76.1" width="3.9" height="3.9"/>
	<rect x="83.9" y="76.1" width="3.9" height="3.9"/>
	<rect x="87.9" y="76.1" width="3.9" height="3.9"/>
	<rect x="107.5" y="76.1" width="3.9" height="3.9"/>
	<rect x="111.4" y="76.1" width="3.9" height="3.9"/>
	<rect x="123.2" y="76.1" width="3.9" height="3.9"/>
	<rect x="127.1" y="76.1" width="3.9" height="3.9"/>
	<rect x="131" y="76.1" width="3.9" height="3.9"/>
	<rect x="138.9" y="76.1" width="3.9" height="3.9"/>
	<rect x="142.8" y="76.1" width="3.9" height="3.9"/>
	<rect x="146.7" y="76.1" width="3.9" height="3.9"/>
	<rect x="9.4" y="80" width="3.9" height="3.9"/>
	<rect x="17.3" y="80" width="3.9" height="3.9"/>
	<rect x="21.2" y="80" width="3.9" height="3.9"/>
	<rect x="25.1" y="80" width="3.9" height="3.9"/>
	<rect x="33" y="80" width="3.9" height="3.9"/>
	<rect x="40.8" y="80" width="3.9" height="3.9"/>
	<rect x="44.7" y="80" width="3.9" height="3.9"/>
	<rect x="48.6" y="80" width="3.9" height="3.9"/>
	<rect x="60.4" y="80" width="3.9" height="3.9"/>
	<rect x="64.3" y="80" width="3.9" height="3.9"/>
	<rect x="68.3" y="80" width="3.9" height="3.9"/>
	<rect x="76.1" y="80" width="3.9" height="3.9"/>
	<rect x="87.9" y="80" width="3.9" height="3.9"/>
	<rect x="91.8" y="80" width="3.9" height="3.9"/>
	<rect x="107.5" y="80" width="3.9" height="3.9"/>
	<rect x="119.3" y="80" width="3.9" height="3.9"/>
	<rect x="127.1" y="80" width="3.9" height="3.9"/>
	<rect x="131" y="80" width="3.9" height="3.9"/>
	<rect x="146.7" y="80" width="3.9" height="3.9"/>
	<rect x="9.4" y="83.9" width="3.9" height="3.9"/>
	<rect x="13.3" y="83.9" width="3.9" height="3.9"/>
	<rect x="17.3" y="83.9" width="3.9" height="3.9"/>
	<rect x="21.2" y="83.9" width="3.9" height="3.9"/>
	<rect x="25.1" y="83.9" width="3.9" height="3.9"/>
	<rect x="29" y="83.9" width="3.9" height="3.9"/>
	<rect x="33" y="83.9" width="3.9" height="3.9"/>
	<rect x="36.9" y="83.9" width="3.9" height="3.9"/>
	<rect x="40.8" y="83.9" width="3.9" height="3.9"/>
	<rect x="44.7" y="83.9" width="3.9" height="3.9"/>
	<rect x="48.6" y="83.9" width="3.9" height="3.9"/>
	<rect x="72.2" y="83.9" width="3.9" height="3.9"/>
	<rect x="76.1" y="83.9" width="3.9" height="3.9"/>
	<rect x="80" y="83.9" width="3.9" height="3.9"/>
	<rect x="91.8" y="83.9" width="3.9" height="3.9"/>
	<rect x="95.7" y="83.9" width="3.9" height="3.9"/>
	<rect x="103.6" y="83.9" width="3.9" height="3.9"/>
	<rect x="107.5" y="83.9" width="3.9" height="3.9"/>
	<rect x="111.4" y="83.9" width="3.9" height="3.9"/>
	<rect x="115.3" y="83.9" width="3.9" height="3.9"/>
	<rect x="119.3" y="83.9" width="3.9" height="3.9"/>
	<rect x="123.2" y="83.9" width="3.9" height="3.9"/>
	<rect x="131" y="83.9" width="3.9" height="3.9"/>
	<rect x="138.9" y="83.9" width="3.9" height="3.9"/>
	<rect x="142.8" y="83.9" width="3.9" height="3.9"/>
	<rect x="146.7" y="83.9" width="3.9" height="3.9"/>
	<rect x="5.5" y="87.9" width="3.9" height="3.9"/>
	<rect x="9.4" y="87.9" width="3.9" height="3.9"/>
	<rect x="13.3" y="87.9" width="3.9" height="3.9"/>
	<rect x="17.3" y="87.9" width="3.9" height="3.9"/>
	<rect x="36.9" y="87.9" width="3.9" height="3.9"/>
	<rect x="52.6" y="87.9" width="3.9" height="3.9"/>
	<rect x="56.5" y="87.9" width="3.9" height="3.9"/>
	<rect x="60.4" y="87.9" width="3.9" height="3.9"/>
	<rect x="68.3" y="87.9" width="3.9" height="3.9"/>
	<rect x="72.2" y="87.9" width="3.9" height="3.9"/>
	<rect x="80" y="87.9" width="3.9" height="3.9"/>
	<rect x="83.9" y="87.9" width="3.9" height="3.9"/>
	<rect x="87.9" y="87.9" width="3.9" height="3.9"/>
	<rect x="91.8" y="87.9" width="3.9" height="3.9"/>
	<rect x="95.7" y="87.9" width="3.9" height="3.9"/>
	<rect x="99.6" y="87.9" width="3.9" height="3.9"/>
	<rect x="107.5" y="87.9" width="3.9" height="3.9"/>
	<rect x="115.3" y="87.9" width="3.9" height="3.9"/>
	<rect x="127.1" y="87.9" width="3.9" height="3.9"/>
	<rect x="134.9" y="87.9" width="3.9" height="3.9"/>
	<rect x="142.8" y="87.9" width="3.9" height="3.9"/>
	<rect x="9.4" y="91.8" width="3.9" height="3.9"/>
	<rect x="17.3" y="91.8" width="3.9" height="3.9"/>
	<rect x="21.2" y="91.8" width="3.9" height="3.9"/>
	<rect x="25.1" y="91.8" width="3.9" height="3.9"/>
	<rect x="29" y="91.8" width="3.9" height="3.9"/>
	<rect x="33" y="91.8" width="3.9" height="3.9"/>
	<rect x="36.9" y="91.8" width="3.9" height="3.9"/>
	<rect x="56.5" y="91.8" width="3.9" height="3.9"/>
	<rect x="60.4" y="91.8" width="3.9" height="3.9"/>
	<rect x="64.3" y="91.8" width="3.9" height="3.9"/>
	<rect x="68.3" y="91.8" width="3.9" height="3.9"/>
	<rect x="83.9" y="91.8" width="3.9" height="3.9"/>
	<rect x="87.9" y="91.8" width="3.9" height="3.9"/>
	<rect x="99.6" y="91.8" width="3.9" height="3.9"/>
	<rect x="107.5" y="91.8" width="3.9" height="3.9"/>
	<rect x="111.4" y="91.8" width="3.9" height="3.9"/>
	<rect x="115.3" y="91.8" width="3.9" height="3.9"/>
	<rect x="119.3" y="91.8" width="3.9" height="3.9"/>
	<rect x="127.1" y="91.8" width="3.9" height="3.9"/>
	<rect x="131" y="91.8" width="3.9" height="3.9"/>
	<rect x="134.9" y="91.8" width="3.9" height="3.9"/>
	<rect x="142.8" y="91.8" width="3.9" height="3.9"/>
	<rect x="146.7" y="91.8" width="3.9" height="3.9"/>
	<rect x="13.3" y="95.7" width="3.9" height="3.9"/>
	<rect x="25.1" y="95.7" width="3.9" height="3.9"/>
	<rect x="36.9" y="95.7" width="3.9" height="3.9"/>
	<rect x="52.6" y="95.7" width="3.9" height="3.9"/>
	<rect x="56.5" y="95.7" width="3.9" height="3.9"/>
	<rect x="68.3" y="95.7" width="3.9" height="3.9"/>
	<rect x="80" y="95.7" width="3.9" height="3.9"/>
	<rect x="83.9" y="95.7" width="3.9" height="3.9"/>
	<rect x="87.9" y="95.7" width="3.9" height="3.9"/>
	<rect x="91.8" y="95.7" width="3.9" height="3.9"/>
	<rect x="115.3" y="95.7" width="3.9" height="3.9"/>
	<rect x="119.3" y="95.7" width="3.9" height="3.9"/>
	<rect x="127.1" y="95.7" width="3.9" height="3.9"/>
	<rect x="131" y="95.7" width="3.9" height="3.9"/>
	<rect x="146.7" y="95.7" width="3.9" height="3.9"/>
	<rect x="17.3" y="99.6" width="3.9" height="3.9"/>
	<rect x="21.2" y="99.6" width="3.9" height="3.9"/>
	<rect x="25.1" y="99.6" width="3.9" height="3.9"/>
	<rect x="29" y="99.6" width="3.9" height="3.9"/>
	<rect x="40.8" y="99.6" width="3.9" height="3.9"/>
	<rect x="52.6" y="99.6" width="3.9" height="3.9"/>
	<rect x="60.4" y="99.6" width="3.9" height="3.9"/>
	<rect x="64.3" y="99.6" width="3.9" height="3.9"/>
	<rect x="72.2" y="99.6" width="3.9" height="3.9"/>
	<rect x="83.9" y="99.6" width="3.9" height="3.9"/>
	<rect x="91.8" y="99.6" width="3.9" height="3.9"/>
	<rect x="99.6" y="99.6" width="3.9" height="3.9"/>
	<rect x="103.6" y="99.6" width="3.9" height="3.9"/>
	<rect x="107.5" y="99.6" width="3.9" height="3.9"/>
	<rect x="119.3" y="99.6" width="3.9" height="3.9"/>
	<rect x="123.2" y="99.6" width="3.9" height="3.9"/>
	<rect x="131" y="99.6" width="3.9" height="3.9"/>
	<rect x="134.9" y="99.6" width="3.9" height="3.9"/>
	<rect x="138.9" y="99.6" width="3.9" height="3.9"/>
	<rect x="142.8" y="99.6" width="3.9" height="3.9"/>
	<rect x="146.7" y="99.6" width="3.9" height="3.9"/>
	<rect x="5.5" y="103.6" width="3.9" height="3.9"/>
	<rect x="17.3" y="103.6" width="3.9" height="3.9"/>
	<rect x="25.1" y="103.6" width="3.9" height="3.9"/>
	<rect x="33" y="103.6" width="3.9" height="3.9"/>
	<rect x="44.7" y="103.6" width="3.9" height="3.9"/>
	<rect x="68.3" y="103.6" width="3.9" height="3.9"/>
	<rect x="80" y="103.6" width="3.9" height="3.9"/>
	<rect x="83.9" y="103.6" width="3.9" height="3.9"/>
	<rect x="87.9" y="103.6" width="3.9" height="3.9"/>
	<rect x="91.8" y="103.6" width="3.9" height="3.9"/>
	<rect x="95.7" y="103.6" width="3.9" height="3.9"/>
	<rect x="115.3" y="103.6" width="3.9" height="3.9"/>
	<rect x="127.1" y="103.6" width="3.9" height="3.9"/>
	<rect x="138.9" y="103.6" width="3.9" height="3.9"/>
	<rect x="142.8" y="103.6" width="3.9" height="3.9"/>
	<rect x="5.5" y="107.5" width="3.9" height="3.9"/>
	<rect x="13.3" y="107.5" width="3.9" height="3.9"/>
	<rect x="17.3" y="107.5" width="3.9" height="3.9"/>
	<rect x="29" y="107.5" width="3.9" height="3.9"/>
	<rect x="33" y="107.5" width="3.9" height="3.9"/>
	<rect x="40.8" y="107.5" width="3.9" height="3.9"/>
	<rect x="44.7" y="107.5" width="3.9" height="3.9"/>
	<rect x="48.6" y="107.5" width="3.9" height="3.9"/>
	<rect x="52.6" y="107.5" width="3.9" height="3.9"/>
	<rect x="64.3" y="107.5" width="3.9" height="3.9"/>
	<rect x="76.1" y="107.5" width="3.9" height="3.9"/>
	<rect x="87.9" y="107.5" width="3.9" height="3.9"/>
	<rect x="91.8" y="107.5" width="3.9" height="3.9"/>
	<rect x="111.4" y="107.5" width="3.9" height="3.9"/>
	<rect x="119.3" y="107.5" width="3.9" height="3.9"/>
	<rect x="127.1" y="107.5" width="3.9" height="3.9"/>
	<rect x="131" y="107.5" width="3.9" height="3.9"/>
	<rect x="134.9" y="107.5" width="3.9" height="3.9"/>
	<rect x="142.8" y="107.5" width="3.9" height="3.9"/>
	<rect x="146.7" y="107.5" width="3.9" height="3.9"/>
	<rect x="5.5" y="111.4" width="3.9" height="3.9"/>
	<rect x="17.3" y="111.4" width="3.9" height="3.9"/>
	<rect x="21.2" y="111.4" width="3.9" height="3.9"/>
	<rect x="36.9" y="111.4" width="3.9" height="3.9"/>
	<rect x="40.8" y="111.4" width="3.9" height="3.9"/>
	<rect x="44.7" y="111.4" width="3.9" height="3.9"/>
	<rect x="48.6" y="111.4" width="3.9" height="3.9"/>
	<rect x="60.4" y="111.4" width="3.9" height="3.9"/>
	<rect x="68.3" y="111.4" width="3.9" height="3.9"/>
	<rect x="76.1" y="111.4" width="3.9" height="3.9"/>
	<rect x="80" y="111.4" width="3.9" height="3.9"/>
	<rect x="83.9" y="111.4" width="3.9" height="3.9"/>
	<rect x="87.9" y="111.4" width="3.9" height="3.9"/>
	<rect x="91.8" y="111.4" width="3.9" height="3.9"/>
	<rect x="99.6" y="111.4" width="3.9" height="3.9"/>
	<rect x="107.5" y="111.4" width="3.9" height="3.9"/>
	<rect x="111.4" y="111.4" width="3.9" height="3.9"/>
	<rect x="115.3" y="111.4" width="3.9" height="3.9"/>
	<rect x="119.3" y="111.4" width="3.9" height="3.9"/>
	<rect x="123.2" y="111.4" width="3.9" height="3.9"/>
	<rect x="127.1" y="111.4" width="3.9" height="3.9"/>
	<rect x="146.7" y="111.4" width="3.9" height="3.9"/>
	<rect x="5.5" y="115.3" width="3.9" height="3.9"/>
	<rect x="13.3" y="115.3" width="3.9" height="3.9"/>
	<rect x="21.2" y="115.3" width="3.9" height="3.9"/>
	<rect x="25.1" y="115.3" width="3.9" height="3.9"/>
	<rect x="29" y="115.3" width="3.9" height="3.9"/>
	<rect x="33" y="115.3" width="3.9" height="3.9"/>
	<rect x="40.8" y="115.3" width="3.9" height="3.9"/>
	<rect x="48.6" y="115.3" width="3.9" height="3.9"/>
	<rect x="64.3" y="115.3" width="3.9" height="3.9"/>
	<rect x="72.2" y="115.3" width="3.9" height="3.9"/>
	<rect x="80" y="115.3" width="3.9" height="3.9"/>
	<rect x="91.8" y="115.3" width="3.9" height="3.9"/>
	<rect x="95.7" y="115.3" width="3.9" height="3.9"/>
	<rect x="99.6" y="115.3" width="3.9" height="3.9"/>
	<rect x="103.6" y="115.3" width="3.9" height="3.9"/>
	<rect x="107.5" y="115.3" width="3.9" height="3.9"/>
	<rect x="111.4" y="115.3" width="3.9" height="3.9"/>
	<rect x="115.3" y="115.3" width="3.9" height="3.9"/>
	<rect x="119.3" y="115.3" width="3.9" height="3.9"/>
	<rect x="123.2" y="115.3" width="3.9" height="3.9"/>
	<rect x="127.1" y="115.3" width="3.9" height="3.9"/>
	<rect x="131" y="115.3" width="3.9" height="3.9"/>
	<rect x="134.9" y="115.3" width="3.9" height="3.9"/>
	<rect x="138.9" y="115.3" width="3.9" height="3.9"/>
	<rect x="36.9" y="119.3" width="3.9" height="3.9"/>
	<rect x="40.8" y="119.3" width="3.9" height="3.9"/>
	<rect x="52.6" y="119.3" width="3.9" height="3.9"/>
	<rect x="56.5" y="119.3" width="3.9" height="3.9"/>
	<rect x="60.4" y="119.3" width="3.9" height="3.9"/>
	<rect x="80" y="119.3" width="3.9" height="3.9"/>
	<rect x="87.9" y="119.3" width="3.9" height="3.9"/>
	<rect x="95.7" y="119.3" width="3.9" height="3.9"/>
	<rect x="103.6" y="119.3" width="3.9" height="3.9"/>
	<rect x="115.3" y="119.3" width="3.9" height="3.9"/>
	<rect x="131" y="119.3" width="3.9" height="3.9"/>
	<rect x="134.9" y="119.3" width="3.9" height="3.9"/>
	<rect x="5.5" y="123.2" width="3.9" height="3.9"/>
	<rect x="9.4" y="123.2" width="3.9" height="3.9"/>
	<rect x="13.3" y="123.2" width="3.9" height="3.9"/>
	<rect x="17.3" y="123.2" width="3.9" height="3.9"/>
	<rect x="21.2" y="123.2" width="3.9" height="3.9"/>
	<rect x="25.1" y="123.2" width="3.9" height="3.9"/>
	<rect x="29" y="123.2" width="3.9" height="3.9"/>
	<rect x="36.9" y="123.2" width="3.9" height="3.9"/>
	<rect x="40.8" y="123.2" width="3.9" height="3.9"/>
	<rect x="44.7" y="123.2" width="3.9" height="3.9"/>
	<rect x="56.5" y="123.2" width="3.9" height="3.9"/>
	<rect x="60.4" y="123.2" width="3.9" height="3.9"/>
	<rect x="64.3" y="123.2" width="3.9" height="3.9"/>
	<rect x="83.9" y="123.2" width="3.9" height="3.9"/>
	<rect x="87.9" y="123.2" width="3.9" height="3.9"/>
	<rect x="115.3" y="123.2" width="3.9" height="3.9"/>
	<rect x="123.2" y="123.2" width="3.9" height="3.9"/>
	<rect x="131" y="123.2" width="3.9" height="3.9"/>
	<rect x="142.8" y="123.2" width="3.9" height="3.9"/>
	<rect x="146.7" y="123.2" width="3.9" height="3.9"/>
	<rect x="5.5" y="127.1" width="3.9" height="3.9"/>
	<rect x="29" y="127.1" width="3.9" height="3.9"/>
	<rect x="52.6" y="127.1" width="3.9" height="3.9"/>
	<rect x="56.5" y="127.1" width="3.9" height="3.9"/>
	<rect x="76.1" y="127.1" width="3.9" height="3.9"/>
	<rect x="80" y="127.1" width="3.9" height="3.9"/>
	<rect x="83.9" y="127.1" width="3.9" height="3.9"/>
	<rect x="87.9" y="127.1" width="3.9" height="3.9"/>
	<rect x="91.8" y="127.1" width="3.9" height="3.9"/>
	<rect x="95.7" y="127.1" width="3.9" height="3.9"/>
	<rect x="107.5" y="127.1" width="3.9" height="3.9"/>
	<rect x="115.3" y="127.1" width="3.9" height="3.9"/>
	<rect x="131" y="127.1" width="3.9" height="3.9"/>
	<rect x="142.8" y="127.1" width="3.9" height="3.9"/>
	<rect x="146.7" y="127.1" width="3.9" height="3.9"/>
	<rect x="5.5" y="131" width="3.9" height="3.9"/>
	<rect x="13.3" y="131" width="3.9" height="3.9"/>
	<rect x="17.3" y="131" width="3.9" height="3.9"/>
	<rect x="21.2" y="131" width="3.9" height="3.9"/>
	<rect x="29" y="131" width="3.9" height="3.9"/>
	<rect x="36.9" y="131" width="3.9" height="3.9"/>
	<rect x="52.6" y="131" width="3.9" height="3.9"/>
	<rect x="60.4" y="131" width="3.9" height="3.9"/>
	<rect x="64.3" y="131" width="3.9" height="3.9"/>
	<rect x="68.3" y="131" width="3.9" height="3.9"/>
	<rect x="80" y="131" width="3.9" height="3.9"/>
	<rect x="91.8" y="131" width="3.9" height="3.9"/>
	<rect x="95.7" y="131" width="3.9" height="3.9"/>
	<rect x="103.6" y="131" width="3.9" height="3.9"/>
	<rect x="107.5" y="131" width="3.9" height="3.9"/>
	<rect x="111.4" y="131" width="3.9" height="3.9"/>
	<rect x="115.3" y="131" width="3.9" height="3.9"/>
	<rect x="119.3" y="131" width="3.9" height="3.9"/>
	<rect x="123.2" y="131" width="3.9" height="3.9"/>
	<rect x="127.1" y="131" width="3.9" height="3.9"/>
	<rect x="131" y="131" width="3.9" height="3.9"/>
	<rect x="138.9" y="131" width="3.9" height="3.9"/>
	<rect x="142.8" y="131" width="3.9" height="3.9"/>
	<rect x="146.7" y="131" width="3.9" height="3.9"/>
	<rect x="5.5" y="134.9" width="3.9" height="3.9"/>
	<rect x="13.3" y="134.9" width="3.9" height="3.9"/>
	<rect x="17.3" y="134.9" width="3.9" height="3.9"/>
	<rect x="21.2" y="134.9" width="3.9" height="3.9"/>
	<rect x="29" y="134.9" width="3.9" height="3.9"/>
	<rect x="36.9" y="134.9" width="3.9" height="3.9"/>
	<rect x="40.8" y="134.9" width="3.9" height="3.9"/>
	<rect x="64.3" y="134.9" width="3.9" height="3.9"/>
	<rect x="68.3" y="134.9" width="3.9" height="3.9"/>
	<rect x="72.2" y="134.9" width="3.9" height="3.9"/>
	<rect x="80" y="134.9" width="3.9" height="3.9"/>
	<rect x="83.9" y="134.9" width="3.9" height="3.9"/>
	<rect x="87.9" y="134.9" width="3.9" height="3.9"/>
	<rect x="95.7" y="134.9" width="3.9" height="3.9"/>
	<rect x="99.6" y="134.9" width="3.9" height="3.9"/>
	<rect x="103.6" y="134.9" width="3.9" height="3.9"/>
	<rect x="115.3" y="134.9" width="3.9" height="3.9"/>
	<rect x="123.2" y="134.9" width="3.9" height="3.9"/>
	<rect x="131" y="134.9" width="3.9" height="3.9"/>
	<rect x="134.9" y="134.9" width="3.9" height="3.9"/>
	<rect x="138.9" y="134.9" width="3.9" height="3.9"/>
	<rect x="142.8" y="134.9" width="3.9" height="3.9"/>
	<rect x="146.7" y="134.9" width="3.9" height="3.9"/>
	<rect x="5.5" y="138.9" width="3.9" height="3.9"/>
	<rect x="13.3" y="138.9" width="3.9" height="3.9"/>
	<rect x="17.3" y="138.9" width="3.9" height="3.9"/>
	<rect x="21.2" y="138.9" width="3.9" height="3.9"/>
	<rect x="29" y="138.9" width="3.9" height="3.9"/>
	<rect x="36.9" y="138.9" width="3.9" height="3.9"/>
	<rect x="48.6" y="138.9" width="3.9" height="3.9"/>
	<rect x="52.6" y="138.9" width="3.9" height="3.9"/>
	<rect x="64.3" y="138.9" width="3.9" height="3.9"/>
	<rect x="72.2" y="138.9" width="3.9" height="3.9"/>
	<rect x="87.9" y="138.9" width="3.9" height="3.9"/>
	<rect x="91.8" y="138.9" width="3.9" height="3.9"/>
	<rect x="107.5" y="138.9" width="3.9" height="3.9"/>
	<rect x="111.4" y="138.9" width="3.9" height="3.9"/>
	<rect x="127.1" y="138.9" width="3.9" height="3.9"/>
	<rect x="142.8" y="138.9" width="3.9" height="3.9"/>
	<rect x="146.7" y="138.9" width="3.9" height="3.9"/>
	<rect x="5.5" y="142.8" width="3.9" height="3.9"/>
	<rect x="29" y="142.8" width="3.9" height="3.9"/>
	<rect x="36.9" y="142.8" width="3.9" height="3.9"/>
	<rect x="40.8" y="142.8" width="3.9" height="3.9"/>
	<rect x="44.7" y="142.8" width="3.9" height="3.9"/>
	<rect x="48.6" y="142.8" width="3.9" height="3.9"/>
	<rect x="60.4" y="142.8" width="3.9" height="3.9"/>
	<rect x="80" y="142.8" width="3.9" height="3.9"/>
	<rect x="87.9" y="142.8" width="3.9" height="3.9"/>
	<rect x="95.7" y="142.8" width="3.9" height="3.9"/>
	<rect x="99.6" y="142.8" width="3.9" height="3.9"/>
	<rect x="115.3" y="142.8" width="3.9" height="3.9"/>
	<rect x="119.3" y="142.8" width="3.9" height="3.9"/>
	<rect x="131" y="142.8" width="3.9" height="3.9"/>
	<rect x="134.9" y="142.8" width="3.9" height="3.9"/>
	<rect x="146.7" y="142.8" width="3.9" height="3.9"/>
	<rect x="5.5" y="146.7" width="3.9" height="3.9"/>
	<rect x="9.4" y="146.7" width="3.9" height="3.9"/>
	<rect x="13.3" y="146.7" width="3.9" height="3.9"/>
	<rect x="17.3" y="146.7" width="3.9" height="3.9"/>
	<rect x="21.2" y="146.7" width="3.9" height="3.9"/>
	<rect x="25.1" y="146.7" width="3.9" height="3.9"/>
	<rect x="29" y="146.7" width="3.9" height="3.9"/>
	<rect x="36.9" y="146.7" width="3.9" height="3.9"/>
	<rect x="44.7" y="146.7" width="3.9" height="3.9"/>
	<rect x="48.6" y="146.7" width="3.9" height="3.9"/>
	<rect x="64.3" y="146.7" width="3.9" height="3.9"/>
	<rect x="83.9" y="146.7" width="3.9" height="3.9"/>
	<rect x="91.8" y="146.7" width="3.9" height="3.9"/>
	<rect x="103.6" y="146.7" width="3.9" height="3.9"/>
	<rect x="107.5" y="146.7" width="3.9" height="3.9"/>
	<rect x="119.3" y="146.7" width="3.9" height="3.9"/>
	<rect x="127.1" y="146.7" width="3.9" height="3.9"/>
	<rect x="131" y="146.7" width="3.9" height="3.9"/>
	<rect x="134.9" y="146.7" width="3.9" height="3.9"/>
	<rect x="138.9" y="146.7" width="3.9" height="3.9"/>
	<rect x="142.8" y="146.7" width="3.9" height="3.9"/>
	<rect x="146.7" y="146.7" width="3.9" height="3.9"/>
</g>
</svg>
